<svg width="12" height="12" viewBox="0 0 12 12" fill="none" xmlns="http://www.w3.org/2000/svg">
<path fill-rule="evenodd" clip-rule="evenodd" d="M2 1.00914L10 1.00915C10.55 1.00915 11 1.45465 11 2.01027L11 9.99523C11 10.5458 10.55 10.9863 10 10.9863L2 10.9863C1.45 10.9863 1 10.5458 1 9.99521L1 8.00188L2 8.00188L2 10.0002L10 10.0002L10 2.00026L2 2.00024L2 3.99854L1 3.99854L1 2.01025C1 1.45964 1.45 1.00914 2 1.00914ZM8 6.00021L6 8.00243L6 6.50076L1 6.50076L1 5.49965L6 5.49965L6 3.99798L8 6.00021Z" fill="#111111"/>
</svg>
