<svg width="12" height="12" viewBox="0 0 12 12" fill="none" xmlns="http://www.w3.org/2000/svg">
<g clip-path="url(#clip0_5535_1736)">
<path fill-rule="evenodd" clip-rule="evenodd" d="M5.61431 0.15976C5.82732 -0.0532533 6.17268 -0.0532533 6.38569 0.15976L8.72727 2.18182L7.95588 2.95321L6.54545 1.8623V5.45455H10.1377L9.04679 4.04412L9.81818 3.27273L11.8402 5.61431C12.0533 5.82732 12.0533 6.17268 11.8402 6.38569L9.81818 8.72727L9.04679 7.95588L10.1377 6.54545H6.54545V10.1377L7.95588 9.04679L8.72727 9.81818L6.38569 11.8402C6.17268 12.0533 5.82732 12.0533 5.61431 11.8402L3.20655 9.81818L3.97794 9.04679L5.45455 10.1377V6.54545H1.8623L2.95321 7.95588L2.18182 8.72727L0.15976 6.38569C-0.0532533 6.17268 -0.0532533 5.82732 0.15976 5.61431L2.18182 3.27273L2.95321 4.04412L1.8623 5.45455H5.45455V1.8623L3.97794 2.95321L3.20655 2.18182L5.61431 0.15976Z" fill="#111111"/>
</g>
<defs>
<clipPath id="clip0_5535_1736">
<rect width="12" height="12" fill="white"/>
</clipPath>
</defs>
</svg>
