<svg width="85" height="85" viewBox="0 0 85 85" fill="none" xmlns="http://www.w3.org/2000/svg">
<path d="M58.2666 15.9993C58.2666 20.4344 54.6712 24.0298 50.2361 24.0298C45.801 24.0298 42.2056 20.4344 42.2056 15.9993C42.2056 11.5641 45.801 7.96875 50.2361 7.96875C54.6712 7.96875 58.2666 11.5641 58.2666 15.9993Z" fill="url(#paint0_linear_3914_328)"/>
<path d="M46.6329 47.6334L53.8817 35.9548H68.1779L76.0307 19.4437L63.3454 14.6112L58.9155 25.6857L42.4044 25.283L22.4702 24.8803L10.3889 38.3711L20.658 45.4185L28.3095 35.1494L34.7529 35.3508L26.6401 49.1253L24.0772 49.8495H7.96875V64.9512H28.3056L38.6855 57.5573L43.7199 61.495V77.0313H59.9223V54.8822L46.6329 47.6334Z" fill="url(#paint1_linear_3914_328)"/>
<defs>
<linearGradient id="paint0_linear_3914_328" x1="41.9997" y1="7.96875" x2="41.9997" y2="77.0313" gradientUnits="userSpaceOnUse">
<stop stop-color="#02903B"/>
<stop offset="0.198969" stop-color="#014ADD"/>
<stop offset="0.394304" stop-color="#8159FB"/>
<stop offset="0.594762" stop-color="#FD3C2D"/>
<stop offset="0.792315" stop-color="#FDC800"/>
<stop offset="1" stop-color="#FFBFE1"/>
</linearGradient>
<linearGradient id="paint1_linear_3914_328" x1="41.9997" y1="7.96875" x2="41.9997" y2="77.0313" gradientUnits="userSpaceOnUse">
<stop stop-color="#02903B"/>
<stop offset="0.198969" stop-color="#014ADD"/>
<stop offset="0.394304" stop-color="#8159FB"/>
<stop offset="0.594762" stop-color="#FD3C2D"/>
<stop offset="0.792315" stop-color="#FDC800"/>
<stop offset="1" stop-color="#FFBFE1"/>
</linearGradient>
</defs>
</svg>
