<svg width="85" height="85" viewBox="0 0 85 85" fill="none" xmlns="http://www.w3.org/2000/svg">
<path d="M46.208 47.3698L45.9291 47.8191L46.3934 48.0724L59.4223 55.1791V76.5313H44.2199V61.495V61.2513L44.028 61.1011L38.9936 57.1635L38.6995 56.9335L38.3954 57.1501L28.1458 64.4512H8.46875V50.3495H24.0772H24.1465L24.2132 50.3307L26.7761 49.6064L26.9691 49.5519L27.0709 49.379L35.1837 35.6045L35.612 34.8774L34.7685 34.851L28.3251 34.6497L28.0644 34.6415L27.9086 34.8507L20.5444 44.7341L11.1409 38.2808L22.6896 25.3848L42.3922 25.7828L42.3943 25.7829L58.9033 26.1856L59.2507 26.194L59.3798 25.8714L63.6269 15.2535L75.3466 19.7181L67.862 35.4548H53.8817H53.6035L53.4568 35.6911L46.208 47.3698ZM57.7666 15.9993C57.7666 20.1583 54.3951 23.5298 50.2361 23.5298C46.0771 23.5298 42.7056 20.1583 42.7056 15.9993C42.7056 11.8403 46.0771 8.46875 50.2361 8.46875C54.3951 8.46875 57.7666 11.8403 57.7666 15.9993Z" fill="#111111" stroke="#111111"/>
</svg>
