<?xml version="1.0" encoding="UTF-8"?>
<svg id="_Слой_1" data-name="Слой 1" xmlns="http://www.w3.org/2000/svg" version="1.1" viewBox="0 0 85 85">
  <defs>
    <style>
      .cls-1 {
        fill: #111;
      }

      .cls-1, .cls-2 {
        stroke-width: 0px;
      }

      .cls-2 {
        fill: #fff;
      }
    </style>
  </defs>
  <rect class="cls-1" x="23.5" y="8.5" width="12.5" height="37.7"/>
  <rect class="cls-1" x="37" y="8.5" width="12.2" height="37.7"/>
  <rect class="cls-1" x="50.3" y="8.5" width="12.2" height="37.7"/>
  <path class="cls-2" d="M22.5,46.2v.5h.5v-.5h-.5ZM63,46.2v.5h.5v-.5h-.5Z"/>
  <polygon class="cls-1" points="48.5 68.5 43.6 76.1 38.4 68.5 48.5 68.5"/>
  <polygon class="cls-1" points="62.1 47.2 49.1 67.5 37.8 67.5 24 47.2 62.1 47.2"/>
  <path class="cls-2" d="M63,46.2v.5l.4.3.5-.8h-.9ZM23,46.7v-.5h-1l21.6,31.7-21.1-30.9.4-.3Z"/>
</svg>