<svg width="85" height="85" viewBox="0 0 85 85" fill="none" xmlns="http://www.w3.org/2000/svg">
<path d="M36 8.5H23.5V46.2H36V8.5Z" fill="#111111"/>
<path d="M49.2 8.5H37V46.2H49.2V8.5Z" fill="#111111"/>
<path d="M62.4998 8.5H50.2998V46.2H62.4998V8.5Z" fill="#111111"/>
<path d="M22.5 46.2V46.7H23V46.2H22.5ZM63 46.2V46.7H63.5V46.2H63Z" fill="white"/>
<path d="M48.5004 68.5L43.6004 76.1L38.4004 68.5H48.5004Z" fill="#111111"/>
<path d="M62.1 47.2L49.1 67.5H37.8L24 47.2H62.1Z" fill="#111111"/>
<path d="M63 46.2V46.7L63.4 47L63.9 46.2H63ZM23 46.7V46.2H22L43.6 77.9L22.5 47L22.9 46.7H23Z" fill="white"/>
</svg>
