<svg width="85" height="85" viewBox="0 0 85 85" fill="none" xmlns="http://www.w3.org/2000/svg">
<path d="M63 46.6916V8H49.7742M63 46.6916H49.7742M63 46.6916L49.4104 67.972M23 46.6916V8H36.5484M23 46.6916H36.5484M23 46.6916L37.4955 67.972M36.5484 8V46.6916M36.5484 8H49.7742M36.5484 46.6916H49.7742M49.7742 8V46.6916M37.4955 67.972L43.6452 77L49.4104 67.972M37.4955 67.972H49.4104" stroke="#111111"/>
<path d="M37.4955 67.972L23 46.6917H36.5484H49.7742H63L49.4104 67.972M37.4955 67.972L43.6452 77.0001L49.4104 67.972M37.4955 67.972H49.4104" stroke="#111111"/>
</svg>
