<svg width="85" height="85" viewBox="0 0 85 85" fill="none" xmlns="http://www.w3.org/2000/svg">
<g clip-path="url(#clip0_3940_408)">
<path d="M36 8H23.5V45.7H36V8Z" fill="#111111"/>
<path d="M49.2 8H37V45.7H49.2V8Z" fill="#111111"/>
<path d="M62.4998 8H50.2998V45.7H62.4998V8Z" fill="#111111"/>
<path d="M22.5 45.7V46.2H23V45.7H22.5ZM63 45.7V46.2H63.5V45.7H63Z" fill="white"/>
<path d="M48.5004 68L43.6004 75.6L38.4004 68H48.5004Z" fill="#111111"/>
<path d="M62.1 46.7L49.1 67H37.8L24 46.7H62.1Z" fill="#111111"/>
<path d="M63 45.7V46.2L63.4 46.5L63.9 45.7H63ZM23 46.2V45.7H22L43.6 77.4L22.5 46.5L22.9 46.2H23Z" fill="white"/>
</g>
<defs>
<clipPath id="clip0_3940_408">
<rect width="41.9" height="69.4" fill="white" transform="translate(22 8)"/>
</clipPath>
</defs>
</svg>
