<svg width="85" height="85" viewBox="0 0 85 85" fill="none" xmlns="http://www.w3.org/2000/svg">
<mask id="mask0_3951_651" style="mask-type:luminance" maskUnits="userSpaceOnUse" x="16" y="9" width="54" height="67">
<path d="M69.3 9H16V76H69.3V9Z" fill="white"/>
</mask>
<g mask="url(#mask0_3951_651)">
<path d="M68.9 25.7V63.1L56.6 75.9H44.1L31.4 62.7L17.1 48.2C16.4 47.3 16 46.2 16 45.1C16 42.6 18 40.6 20.5 40.6C23 40.6 22.6 41 23.5 41.8L30.7 49.1V18.8C30.7 17.5 31.1 16.4 31.7 15.6C32.4 14.7 33.3 14.3 34.5 14.3C36.9 14.3 38.8 16.3 38.8 18.9V40.6H40.6V13.5C40.6 11 42.6 9 45.1 9C47.6 9 49.5 11 49.6 13.5V40.7H51.2V18.5C51.2 17.2 51.6 16.1 52.2 15.3C52.9 14.4 53.8 13.9 55 13.9C57.4 13.9 59.4 15.9 59.5 18.4V40.6H61.3V25.3C61.3 22.8 63.3 20.8 65.7 20.8C68.1 20.8 68 21.6 68.4 22.3C69 23.2 69.3 24.3 69.3 25.7H68.9Z" fill="#111111"/>
<path d="M68.9 63.2L56.6 76H44.1L31.4 62.8L17.1 48.3C16.4 47.4 16 46.3 16 45.2C16 42.7 18 40.7 20.5 40.7C23 40.7 22.6 41.1 23.5 41.9L30.7 49.2V18.9C30.7 17.6 31.1 16.5 31.7 15.7C32.4 14.8 33.3 14.4 34.5 14.4C36.9 14.4 38.8 16.4 38.8 19V40.7H40.6V13.5C40.6 11 42.6 9 45.1 9C47.6 9 49.5 11 49.6 13.5V40.7H51.2V18.5C51.2 17.2 51.6 16.1 52.2 15.3C52.9 14.4 53.8 13.9 55 13.9C57.4 13.9 59.4 15.9 59.5 18.4V40.6H61.3V25.3C61.3 22.8 63.3 20.8 65.7 20.8C68.1 20.8 68 21.6 68.4 22.3C69 23.2 69.3 24.3 69.3 25.7V63.1L68.9 63.2Z" fill="#111111"/>
</g>
</svg>
