<?xml version="1.0" encoding="UTF-8"?>
<svg id="_Слой_1" data-name="Слой 1" xmlns="http://www.w3.org/2000/svg" version="1.1" viewBox="0 0 85 85">
  <defs>
    <style>
      .cls-1 {
        fill: #f4492b;
        stroke-width: 0px;
      }
    </style>
  </defs>
  <path class="cls-1" d="M67.1,25.7v37.4l-12.3,12.8h-12.5l-12.7-13.2-14.3-14.5h0c-.7-.9-1.1-2-1.1-3.1,0-2.5,2-4.5,4.5-4.5s2.1.4,3,1.2l7.2,7.3v-30.3c0-1.3.4-2.4,1-3.2.7-.9,1.6-1.3,2.8-1.3,2.4,0,4.3,2,4.3,4.6v21.7h1.8V13.5c0-2.5,2-4.5,4.5-4.5s4.4,2,4.5,4.5v27.2h1.6v-22.2c0-1.3.4-2.4,1-3.2.7-.9,1.6-1.4,2.8-1.4,2.4,0,4.4,2,4.5,4.5v22.2h1.8v-15.3c0-2.5,2-4.5,4.4-4.5s2.3.8,2.7,1.5c.6.9.9,2,.9,3.4Z"/>
  <path class="cls-1" d="M67.1,63.2l-12.3,12.8h-12.5l-12.7-13.2-14.3-14.5h0c-.7-.9-1.1-2-1.1-3.1,0-2.5,2-4.5,4.5-4.5s2.1.4,3,1.2l7.2,7.3v-30.3c0-1.3.4-2.4,1-3.2.7-.9,1.6-1.3,2.8-1.3,2.4,0,4.3,2,4.3,4.6v21.7h1.8V13.5c0-2.5,2-4.5,4.5-4.5s4.4,2,4.5,4.5v27.2h1.6v-22.2c0-1.3.4-2.4,1-3.2.7-.9,1.6-1.4,2.8-1.4,2.4,0,4.4,2,4.5,4.5v22.2h1.8v-15.3c0-2.5,2-4.5,4.4-4.5s2.3.8,2.7,1.5c.6.9.9,2,.9,3.4v37.4Z"/>
</svg>