<svg width="85" height="85" viewBox="0 0 85 85" fill="none" xmlns="http://www.w3.org/2000/svg">
<path d="M47.01 13.561V13.5629V40.6893V41.1893H47.51H49.1253H49.6253V40.6893V18.5455C49.6365 17.3825 49.9385 16.3553 50.4819 15.632C51.0138 14.9239 51.7941 14.4801 52.8557 14.4801C55.0158 14.4801 56.7835 16.2492 56.8092 18.4583L56.8093 18.4668L56.8096 18.4734V40.6893V41.1893H57.3096H59.0629H59.5629V40.6893L59.5629 25.3957C59.5629 25.395 59.5629 25.3942 59.5629 25.3934C59.5857 23.173 61.3262 21.3871 63.4795 21.3871C64.5139 21.3871 65.2662 21.8699 65.7832 22.6418C66.3124 23.4319 66.5938 24.5311 66.6071 25.7024L66.6072 25.7101L66.6074 25.7165V40.6864L66.6074 40.6904L66.6073 40.6907L66.6069 40.7011V40.7115V62.9588L54.5822 75.5H42.469L29.9364 62.4686L29.9364 62.4686L29.9324 62.4645L15.6501 47.9472L15.6357 47.9256L15.6134 47.9001C14.9881 47.1881 14.6074 46.2486 14.6074 45.2163C14.6074 42.9846 16.3852 41.1893 18.5612 41.1893C19.572 41.1893 20.4942 41.5751 21.1945 42.2125L21.217 42.233L21.2355 42.2461L21.3096 42.3214L21.3095 42.3214L21.3145 42.3263C21.341 42.3525 21.3672 42.3791 21.393 42.4061L21.3929 42.4061L21.3978 42.4111L28.4484 49.5777L29.3048 50.4481L29.3048 49.227L29.3054 18.9595C29.3054 17.7891 29.6099 16.7656 30.1589 16.0475C30.6968 15.3439 31.4897 14.9032 32.5629 14.9032C34.7061 14.9032 36.3217 16.6933 36.3217 18.9595V18.9912V29.8403V40.6893V41.1893H36.8217H38.6025H39.1025V40.6893V13.4937L39.1029 13.4867L39.103 13.4781C39.1287 11.2691 40.8964 9.5 43.0564 9.5C45.2205 9.5 46.9908 11.2758 47.01 13.4907L47.01 13.4928L47.01 13.4946L47.0101 13.5251V13.529L47.01 13.561Z" stroke="white"/>
</svg>
