<svg width="85" height="85" viewBox="0 0 85 85" fill="none" xmlns="http://www.w3.org/2000/svg">
<path d="M47.51 13.5629L47.5101 13.527L47.51 13.4909L47.51 13.4863C47.4885 11.0049 45.5028 9 43.0564 9C40.6146 9 38.6318 10.9973 38.603 13.4723C38.6027 13.4789 38.6025 13.4855 38.6025 13.4921V40.6893H36.8217V29.8403V18.9912V18.9595C36.8217 16.4593 35.0226 14.4032 32.5629 14.4032C30.1031 14.4032 28.8054 16.4593 28.8054 18.9595L28.8048 49.227L21.7542 42.0604C21.7252 42.0301 21.6958 42.0002 21.666 41.9707L21.5868 41.8902C21.5693 41.8724 21.5506 41.8566 21.531 41.8427C20.743 41.1255 19.7022 40.6893 18.5612 40.6893C16.1014 40.6893 14.1074 42.7161 14.1074 45.2163C14.1074 46.3737 14.5347 47.4296 15.2377 48.23C15.2523 48.252 15.2691 48.2729 15.2883 48.2924L29.576 62.8152L42.2561 76H54.7955L67.1069 63.1598V40.7115L67.1072 40.705L67.1074 40.6905V25.715C67.1074 25.7089 67.1073 25.7028 67.107 25.6967C67.079 23.2211 65.9218 20.8871 63.4795 20.8871C61.0348 20.8871 59.087 22.9117 59.0629 25.3909L59.0629 40.6893H57.3096V18.472C57.3096 18.4654 57.3095 18.4589 57.3092 18.4525C57.2804 15.9775 55.2975 13.9801 52.8557 13.9801C50.4103 13.9801 49.1483 16.0632 49.1253 18.5433V40.6893H47.51V13.5629Z" fill="white"/>
</svg>
