<svg width="85" height="85" viewBox="0 0 85 85" fill="none" xmlns="http://www.w3.org/2000/svg">
<path d="M48.0101 13.5289L48.0101 13.5251L48.01 13.4889L48.01 13.4871L48.0099 13.4826L48.0099 13.482C47.9861 10.734 45.785 8.5 43.0564 8.5C40.3353 8.5 38.1388 10.7217 38.1031 13.4593C38.1027 13.4702 38.1025 13.4811 38.1025 13.4921V40.1893H37.3217V29.8403V18.9912V18.9595C37.3217 16.2253 35.339 13.9032 32.5629 13.9032C31.1763 13.9032 30.0904 14.4906 29.3645 15.4401C28.6497 16.3751 28.3054 17.6297 28.3054 18.9595L28.3048 48.0058L22.1155 41.7148C22.1147 41.7139 22.1138 41.713 22.1129 41.7121C22.0824 41.6802 22.0514 41.6487 22.02 41.6176C22.0192 41.6168 22.0183 41.616 22.0175 41.6151L21.9432 41.5395C21.9135 41.5094 21.882 41.4815 21.8489 41.456C20.9754 40.669 19.8234 40.1893 18.5612 40.1893C15.8176 40.1893 13.6074 42.4477 13.6074 45.2163C13.6074 46.4886 14.0739 47.6525 14.8435 48.5388C14.87 48.5753 14.8995 48.6102 14.9318 48.643L15.2883 48.2924L14.9318 48.643L29.2156 63.1618L29.2196 63.1658L41.8958 76.3466L42.0433 76.5H42.2561H54.7955H55.0088L55.1564 76.346L67.4678 63.5058L67.6069 63.3607V63.1598L67.6069 40.7258L67.6069 40.7256L67.6071 40.7133L67.6074 40.6988H67.6074V40.6905V25.715C67.6074 25.7048 67.6073 25.6947 67.6069 25.6848C67.5912 24.3825 67.2799 23.0795 66.614 22.0853C65.9348 21.0712 64.8874 20.3871 63.4795 20.3871C60.7442 20.3871 58.5896 22.6493 58.5629 25.386V25.3909L58.5629 40.1893H57.8096V18.472C57.8096 18.4614 57.8094 18.4506 57.809 18.4397C57.7735 15.7019 55.5769 13.4801 52.8557 13.4801C51.472 13.4801 50.3985 14.0779 49.6823 15.0314C48.9779 15.9691 48.6375 17.2226 48.6253 18.5387V18.5433V40.1893H48.01L48.01 13.5648L48.01 13.5629L48.0101 13.5289Z" stroke="#111111"/>
</svg>
