<svg width="85" height="85" viewBox="0 0 85 85" fill="none" xmlns="http://www.w3.org/2000/svg">
<g clip-path="url(#clip0_4116_614)">
<path d="M42 76C23.25 76 8 60.75 8 42C8 23.25 23.25 8 42 8C60.75 8 76 23.25 76 42C76 60.75 60.75 76 42 76ZM42 9C23.8 9 9 23.8 9 42C9 60.2 23.8 75 42 75C60.2 75 75 60.2 75 42C75 23.8 60.2 9 42 9ZM42 63.75C30.01 63.75 20.25 53.99 20.25 42C20.25 30.01 30.01 20.25 42 20.25C53.99 20.25 63.75 30.01 63.75 42C63.75 53.99 53.99 63.75 42 63.75ZM42 21.25C30.56 21.25 21.25 30.56 21.25 42C21.25 53.44 30.56 62.75 42 62.75C53.44 62.75 62.75 53.44 62.75 42C62.75 30.56 53.44 21.25 42 21.25ZM42 52.06C36.45 52.06 31.94 47.55 31.94 42C31.94 36.45 36.45 31.94 42 31.94C47.55 31.94 52.06 36.45 52.06 42C52.06 47.55 47.55 52.06 42 52.06ZM42 32.94C37 32.94 32.94 37.01 32.94 42C32.94 46.99 37.01 51.06 42 51.06C46.99 51.06 51.06 46.99 51.06 42C51.06 37.01 46.99 32.94 42 32.94Z" fill="white"/>
</g>
<defs>
<clipPath id="clip0_4116_614">
<rect width="68" height="68" fill="white" transform="translate(8 8)"/>
</clipPath>
</defs>
</svg>
