<svg width="85" height="85" viewBox="0 0 85 85" fill="none" xmlns="http://www.w3.org/2000/svg">
<path d="M32.9375 42C32.9375 36.9949 36.9949 32.9375 42 32.9375C47.0051 32.9375 51.0625 36.9949 51.0625 42C51.0625 47.0051 47.0051 51.0625 42 51.0625C36.9949 51.0625 32.9375 47.0051 32.9375 42ZM42 31.9375C36.4426 31.9375 31.9375 36.4426 31.9375 42C31.9375 47.5574 36.4426 52.0625 42 52.0625C47.5574 52.0625 52.0625 47.5574 52.0625 42C52.0625 36.4426 47.5574 31.9375 42 31.9375ZM21.25 42C21.25 30.5401 30.5401 21.25 42 21.25C53.4599 21.25 62.75 30.5401 62.75 42C62.75 53.4599 53.4599 62.75 42 62.75C30.5401 62.75 21.25 53.4599 21.25 42ZM42 20.25C29.9878 20.25 20.25 29.9878 20.25 42C20.25 54.0122 29.9878 63.75 42 63.75C54.0122 63.75 63.75 54.0122 63.75 42C63.75 29.9878 54.0122 20.25 42 20.25ZM8.5 42C8.5 23.4985 23.4985 8.5 42 8.5C60.5015 8.5 75.5 23.4985 75.5 42C75.5 60.5016 60.5015 75.5 42 75.5C23.4985 75.5 8.5 60.5016 8.5 42ZM32.4375 42C32.4375 36.7188 36.7188 32.4375 42 32.4375C47.2812 32.4375 51.5625 36.7188 51.5625 42C51.5625 47.2812 47.2812 51.5625 42 51.5625C36.7188 51.5625 32.4375 47.2812 32.4375 42ZM20.75 42C20.75 30.264 30.2639 20.75 42 20.75C53.736 20.75 63.25 30.264 63.25 42C63.25 53.7361 53.736 63.25 42 63.25C30.2639 63.25 20.75 53.7361 20.75 42Z" stroke="white"/>
</svg>
