<svg width="85" height="85" viewBox="0 0 85 85" fill="none" xmlns="http://www.w3.org/2000/svg">
<g clip-path="url(#clip0_4012_427)">
<g clip-path="url(#clip1_4012_427)">
<g clip-path="url(#clip2_4012_427)">
<path d="M71.0528 25.8396L66.9307 29.53L62.8086 33.2204L63.3747 34.515L72.4878 33.2907L72.5043 33.3283L65.4666 39.2994L66.0327 40.594L77.0006 39.4422L76.4509 38.1852L67.1396 39.363L67.1232 39.3255L74.3179 33.307L73.7355 31.9749L64.4733 33.2653L64.4569 33.2277L71.6025 27.0967L71.0528 25.8396Z" fill="#111111"/>
<path d="M63.0307 18.4743C63.5307 18.8269 63.8958 19.2429 64.1258 19.7221C64.3559 20.2014 64.4726 20.7008 64.476 21.2204C64.4905 21.7478 64.4033 22.2786 64.2145 22.8128C64.0445 23.3436 63.8001 23.8385 63.4813 24.2977C63.1625 24.7568 62.7809 25.1634 62.3365 25.5173C61.911 25.8678 61.4499 26.1265 60.9532 26.2934C60.4677 26.4682 59.9622 26.5287 59.4366 26.475C58.9111 26.4213 58.3983 26.2181 57.8983 25.8654C57.3982 25.5128 57.0332 25.0968 56.8031 24.6175C56.5731 24.1383 56.4508 23.635 56.4363 23.1075C56.4329 22.588 56.5162 22.0628 56.6861 21.532C56.875 20.9978 57.1288 20.5012 57.4476 20.042C57.7665 19.5829 58.1386 19.178 58.5642 18.8275C59.0086 18.4736 59.4735 18.2092 59.959 18.0345C60.4557 17.8676 60.9668 17.811 61.4923 17.8647C62.0179 17.9184 62.5307 18.1216 63.0307 18.4743ZM63.6489 17.5839C62.9933 17.1215 62.3244 16.8333 61.6422 16.7191C60.9711 16.6128 60.3194 16.6454 59.6873 16.8168C59.0551 16.9882 58.4557 17.2911 57.8891 17.7257C57.3302 18.149 56.8331 18.6742 56.3976 19.3014C55.9621 19.9285 55.6388 20.5847 55.4278 21.2701C55.2246 21.9442 55.1513 22.6099 55.208 23.2672C55.2648 23.9246 55.4576 24.5527 55.7866 25.1518C56.1344 25.7475 56.6361 26.2765 57.2917 26.7389C57.9473 27.2013 58.6067 27.4913 59.2701 27.6088C59.9523 27.723 60.6095 27.6943 61.2417 27.5229C61.8739 27.3515 62.4694 27.0542 63.0282 26.6308C63.5948 26.1963 64.0959 25.6654 64.5314 25.0383C64.9668 24.4112 65.2862 23.7605 65.4895 23.0864C65.7005 22.4011 65.7777 21.7298 65.7209 21.0724C65.6642 20.4151 65.4658 19.783 65.1257 19.1761C64.7968 18.5771 64.3045 18.0464 63.6489 17.5839Z" fill="#111111"/>
<path d="M43.2646 6L41.3672 20.5139L42.537 20.6692L42.7974 18.6771L42.8378 18.6825C43.0379 19.4535 43.4417 20.0793 44.0492 20.5598C44.6702 21.0421 45.4042 21.3395 46.2513 21.4519C47.0447 21.5573 47.749 21.5061 48.3644 21.2982C48.9951 21.0787 49.5381 20.7441 49.9936 20.2944C50.4509 19.8312 50.817 19.2801 51.0921 18.6411C51.3689 17.9885 51.5561 17.2895 51.6535 16.5442C51.7509 15.7989 51.7489 15.0817 51.6475 14.3926C51.5478 13.6901 51.3358 13.0622 51.0114 12.509C50.6888 11.9422 50.2511 11.4705 49.6985 11.0938C49.1592 10.7189 48.493 10.4788 47.6996 10.3734C47.3231 10.3234 46.9404 10.3209 46.5515 10.3657C46.1626 10.4106 45.7935 10.5133 45.4443 10.6737C45.0967 10.8206 44.7766 11.0193 44.4839 11.27C44.2047 11.5224 43.9731 11.8294 43.789 12.191L43.7487 12.1857L44.5352 6.16873L43.2646 6ZM50.3828 16.3755C50.3119 16.9175 50.1738 17.4507 49.9685 17.9749C49.7784 18.4873 49.5147 18.9349 49.1774 19.3175C48.8536 19.7019 48.4588 20.001 47.9931 20.2149C47.5291 20.4153 46.9946 20.4753 46.3895 20.3949C45.7172 20.3056 45.1626 20.101 44.7256 19.781C44.3039 19.4493 43.9725 19.0537 43.7316 18.5944C43.5042 18.1368 43.3578 17.6348 43.2924 17.0884C43.2422 16.5303 43.2526 15.9802 43.3235 15.4381C43.3943 14.896 43.5248 14.3688 43.7149 13.8563C43.9203 13.3321 44.1916 12.8787 44.5289 12.4961C44.8796 12.1153 45.3004 11.8265 45.7912 11.6297C46.2973 11.4211 46.8865 11.3615 47.5588 11.4508C48.1639 11.5311 48.6638 11.7354 49.0587 12.0636C49.4553 12.3782 49.7606 12.7634 49.9746 13.2192C50.2021 13.6768 50.3409 14.1847 50.391 14.7428C50.4564 15.2892 50.4537 15.8334 50.3828 16.3755Z" fill="#111111"/>
<path d="M26.1533 13.8675L29.7302 23.8141L30.9352 23.374L28.8486 17.5718C28.6858 17.0788 28.6006 16.6011 28.5929 16.1386C28.5934 15.6587 28.6681 15.2243 28.8168 14.8356C28.9736 14.4294 29.2069 14.0752 29.5166 13.7731C29.8345 13.4534 30.2356 13.2051 30.7202 13.0281C31.2047 12.8512 31.6341 12.7815 32.0083 12.8193C32.3953 12.8524 32.733 12.969 33.0213 13.169C33.3096 13.369 33.559 13.6414 33.7695 13.9861C33.9754 14.318 34.1546 14.696 34.3071 15.12L36.5392 21.327L37.7442 20.8869L35.4428 14.4871C35.2302 13.896 34.981 13.3837 34.6953 12.9501C34.4095 12.5165 34.0686 12.1903 33.6726 11.9715C33.2719 11.7399 32.8033 11.6203 32.2669 11.6127C31.7431 11.6004 31.137 11.7201 30.4484 11.9716C29.7471 12.2277 29.1702 12.6493 28.7177 13.2362C28.2605 13.8102 28.0258 14.4412 28.0135 15.129L27.9752 15.143L27.3583 13.4274L26.1533 13.8675Z" fill="#111111"/>
<path d="M17.1318 14.3712L18.3826 16.0142L19.3994 15.2279L18.1487 13.585L17.1318 14.3712ZM19.5838 17.5921L25.9737 25.9859L26.9906 25.1996L23.7956 21.0027L20.6006 16.8058L19.5838 17.5921Z" fill="#111111"/>
<path d="M12.386 31.5335L13.1285 30.4806C12.4478 29.9594 12.1019 29.3763 12.091 28.7312C12.069 28.0782 12.2937 27.4174 12.7652 26.749C12.9852 26.437 13.2171 26.1671 13.461 25.9394C13.7016 25.6925 13.959 25.5163 14.2331 25.4108C14.515 25.2942 14.8114 25.2633 15.1221 25.3182C15.4296 25.354 15.7602 25.4986 16.114 25.752C16.3461 25.9183 16.5105 26.0864 16.6071 26.2562C16.7115 26.4148 16.7686 26.5815 16.7785 26.7563C16.7773 26.9231 16.7343 27.102 16.6496 27.2929C16.5649 27.4837 16.4551 27.6985 16.32 27.9372C15.9856 28.5529 15.6607 29.167 15.3452 29.7795C15.0265 30.3729 14.7984 30.9558 14.661 31.5281C14.5314 32.0894 14.5437 32.6264 14.6978 33.1393C14.8409 33.6442 15.2109 34.1105 15.8078 34.5382C16.239 34.847 16.6659 35.0438 17.0886 35.1286C17.5082 35.1944 17.9133 35.1744 18.3041 35.0686C18.6916 34.9438 19.0514 34.7403 19.3834 34.4583C19.7344 34.1731 20.0513 33.8299 20.3341 33.4288C20.6327 33.0054 20.8494 32.6156 20.9842 32.2594C21.1268 31.892 21.2087 31.5399 21.23 31.2029C21.2592 30.8549 21.2355 30.5109 21.1591 30.1711C21.0794 29.8122 20.9682 29.439 20.8254 29.0516L20.849 29.0182C21.0701 29.1766 21.2825 29.3119 21.4861 29.4243C21.6865 29.5176 21.8845 29.5672 22.08 29.5731C22.2756 29.579 22.467 29.5316 22.6544 29.4311C22.8386 29.3115 23.025 29.118 23.2135 28.8506C23.3157 28.7058 23.3927 28.5848 23.4445 28.4878C23.5041 28.3796 23.5661 28.2563 23.6305 28.1179L22.7516 27.4883C22.7251 27.6203 22.6686 27.7475 22.5822 27.8701C22.2915 28.2823 21.9361 28.338 21.516 28.037L16.9726 24.7823C16.3978 24.3705 15.8667 24.1326 15.3794 24.0686C14.881 23.9967 14.4262 24.0399 14.0151 24.1981C13.6039 24.3564 13.2316 24.6012 12.8982 24.9325C12.5536 25.2558 12.2478 25.6069 11.9806 25.9857C11.627 26.4871 11.3602 26.9835 11.18 27.4749C10.9998 27.9663 10.9158 28.4511 10.9279 28.9294C10.9479 29.3965 11.0774 29.8498 11.3165 30.2894C11.5556 30.729 11.9121 31.1437 12.386 31.5335ZM17.6064 26.8211L18.9661 27.7951C19.3861 28.096 19.7031 28.4489 19.9168 28.8535C20.1385 29.2471 20.2671 29.6663 20.3028 30.1111C20.3464 30.5448 20.2993 30.989 20.1617 31.4438C20.024 31.8986 19.8137 32.3265 19.5308 32.7276C19.3579 32.9727 19.1503 33.1845 18.9079 33.363C18.6655 33.5415 18.4096 33.6685 18.1402 33.7438C17.8597 33.8112 17.5807 33.8293 17.3031 33.7982C17.0224 33.748 16.7493 33.6279 16.484 33.4378C16.064 33.1369 15.8298 32.7847 15.7816 32.3812C15.7302 31.9586 15.7812 31.5088 15.9346 31.0318C16.088 30.5547 16.3021 30.0625 16.5768 29.5549C16.8483 29.0283 17.1026 28.5145 17.3395 28.0134C17.4195 27.8528 17.4987 27.6579 17.577 27.4289C17.6553 27.1999 17.6572 27.0085 17.5828 26.8545L17.6064 26.8211Z" fill="#111111"/>
<path d="M7 37.8664L17.132 40.6337L17.4672 39.3869L12.0674 37.9121C11.5307 37.7656 11.0647 37.5391 10.6692 37.2329C10.2607 36.923 9.9372 36.5585 9.69863 36.1393C9.4636 35.7069 9.32308 35.2366 9.27706 34.7284C9.21796 34.2166 9.27777 33.6806 9.45649 33.1204L8.21944 32.7826C7.93185 33.6954 7.92013 34.549 8.18429 35.3434C8.45199 36.1246 8.95562 36.7861 9.69518 37.328L9.68454 37.3675L7.30863 36.7187L7 37.8664Z" fill="#111111"/>
</g>
<g clip-path="url(#clip3_4012_427)">
<path d="M12.9472 63.1604L17.0693 59.47L21.1914 55.7796L20.6253 54.485L11.5122 55.7093L11.4957 55.6717L18.5334 49.7006L17.9673 48.406L6.99944 49.5578L7.5491 50.8148L16.8604 49.637L16.8768 49.6745L9.68207 55.693L10.2645 57.0251L19.5267 55.7347L19.5431 55.7723L12.3975 61.9033L12.9472 63.1604Z" fill="#111111"/>
<path d="M20.9693 70.5257C20.4693 70.1731 20.1042 69.7571 19.8742 69.2779C19.6441 68.7986 19.5274 68.2992 19.524 67.7796C19.5095 67.2522 19.5967 66.7214 19.7855 66.1872C19.9555 65.6564 20.1999 65.1615 20.5187 64.7023C20.8375 64.2432 21.2191 63.8366 21.6635 63.4827C22.089 63.1322 22.5501 62.8735 23.0468 62.7066C23.5323 62.5318 24.0378 62.4713 24.5634 62.525C25.0889 62.5787 25.6017 62.7819 26.1017 63.1346C26.6018 63.4872 26.9668 63.9032 27.1969 64.3825C27.4269 64.8617 27.5492 65.365 27.5637 65.8925C27.5671 66.412 27.4838 66.9372 27.3139 67.468C27.125 68.0022 26.8712 68.4988 26.5524 68.958C26.2335 69.4171 25.8614 69.822 25.4358 70.1725C24.9914 70.5264 24.5265 70.7908 24.041 70.9655C23.5443 71.1324 23.0332 71.189 22.5077 71.1353C21.9821 71.0816 21.4693 70.8784 20.9693 70.5257ZM20.3511 71.4161C21.0067 71.8785 21.6756 72.1667 22.3578 72.2809C23.0289 72.3872 23.6806 72.3546 24.3127 72.1832C24.9449 72.0118 25.5443 71.7089 26.1109 71.2743C26.6698 70.851 27.1669 70.3258 27.6024 69.6986C28.0379 69.0715 28.3612 68.4153 28.5722 67.7299C28.7754 67.0558 28.8487 66.3901 28.792 65.7328C28.7352 65.0754 28.5424 64.4473 28.2134 63.8482C27.8656 63.2525 27.3639 62.7235 26.7083 62.2611C26.0527 61.7987 25.3933 61.5087 24.7299 61.3912C24.0477 61.277 23.3905 61.3057 22.7583 61.4771C22.1261 61.6485 21.5306 61.9458 20.9718 62.3692C20.4052 62.8037 19.9041 63.3346 19.4686 63.9617C19.0332 64.5888 18.7138 65.2395 18.5105 65.9136C18.2995 66.5989 18.2223 67.2702 18.2791 67.9276C18.3358 68.5849 18.5342 69.217 18.8743 69.8239C19.2032 70.4229 19.6955 70.9536 20.3511 71.4161Z" fill="#111111"/>
<path d="M40.7354 83L42.6328 68.4861L41.463 68.3308L41.2026 70.3229L41.1622 70.3175C40.9621 69.5465 40.5583 68.9207 39.9508 68.4402C39.3298 67.9579 38.5958 67.6605 37.7487 67.5481C36.9553 67.4427 36.251 67.4939 35.6356 67.7018C35.0049 67.9213 34.4619 68.2559 34.0064 68.7056C33.5491 69.1688 33.183 69.7199 32.9079 70.3589C32.6311 71.0115 32.4439 71.7105 32.3465 72.4558C32.2491 73.2011 32.2511 73.9183 32.3525 74.6074C32.4522 75.3099 32.6642 75.9378 32.9886 76.491C33.3112 77.0578 33.7489 77.5295 34.3015 77.9062C34.8408 78.2811 35.507 78.5212 36.3004 78.6266C36.6769 78.6766 37.0596 78.6791 37.4485 78.6343C37.8374 78.5894 38.2065 78.4867 38.5557 78.3263C38.9033 78.1794 39.2234 77.9807 39.5161 77.73C39.7953 77.4776 40.0269 77.1706 40.211 76.809L40.2513 76.8143L39.4648 82.8313L40.7354 83ZM33.6172 72.6245C33.6881 72.0825 33.8262 71.5493 34.0315 71.0251C34.2216 70.5127 34.4853 70.0651 34.8226 69.6825C35.1464 69.2981 35.5412 68.999 36.0069 68.7851C36.4709 68.5847 37.0054 68.5247 37.6105 68.6051C38.2828 68.6944 38.8374 68.899 39.2744 69.219C39.6961 69.5507 40.0275 69.9463 40.2684 70.4056C40.4958 70.8632 40.6422 71.3652 40.7076 71.9116C40.7578 72.4697 40.7474 73.0198 40.6765 73.5619C40.6057 74.104 40.4752 74.6312 40.2851 75.1437C40.0797 75.6679 39.8084 76.1213 39.4711 76.5039C39.1204 76.8847 38.6996 77.1735 38.2088 77.3703C37.7027 77.5789 37.1135 77.6385 36.4412 77.5492C35.8361 77.4689 35.3362 77.2646 34.9413 76.9364C34.5447 76.6218 34.2394 76.2366 34.0254 75.7808C33.7979 75.3232 33.6591 74.8153 33.609 74.2572C33.5436 73.7108 33.5463 73.1666 33.6172 72.6245Z" fill="#111111"/>
<path d="M57.8467 75.1325L54.2698 65.1859L53.0648 65.626L55.1514 71.4282C55.3142 71.9212 55.3994 72.3989 55.4071 72.8614C55.4066 73.3413 55.3319 73.7757 55.1832 74.1644C55.0264 74.5706 54.7931 74.9248 54.4834 75.2269C54.1655 75.5466 53.7644 75.7949 53.2798 75.9719C52.7953 76.1488 52.3659 76.2185 51.9917 76.1807C51.6047 76.1476 51.267 76.031 50.9787 75.831C50.6904 75.631 50.441 75.3586 50.2305 75.0139C50.0246 74.682 49.8454 74.304 49.6929 73.88L47.4608 67.673L46.2558 68.1131L48.5572 74.5129C48.7698 75.104 49.019 75.6163 49.3047 76.0499C49.5905 76.4835 49.9314 76.8097 50.3274 77.0285C50.7281 77.2601 51.1967 77.3797 51.7331 77.3873C52.2569 77.3996 52.863 77.2799 53.5516 77.0284C54.2529 76.7723 54.8298 76.3507 55.2823 75.7638C55.7395 75.1898 55.9742 74.5588 55.9865 73.871L56.0248 73.857L56.6417 75.5726L57.8467 75.1325Z" fill="#111111"/>
<path d="M66.8682 74.6288L65.6174 72.9858L64.6006 73.7721L65.8513 75.415L66.8682 74.6288ZM64.4162 71.4079L58.0263 63.0141L57.0094 63.8004L60.2044 67.9973L63.3994 72.1942L64.4162 71.4079Z" fill="#111111"/>
<path d="M71.614 57.4665L70.8715 58.5194C71.5522 59.0406 71.8981 59.6237 71.909 60.2688C71.931 60.9218 71.7063 61.5826 71.2348 62.251C71.0148 62.563 70.7829 62.8329 70.539 63.0606C70.2984 63.3075 70.041 63.4837 69.7669 63.5892C69.485 63.7058 69.1886 63.7367 68.8779 63.6818C68.5704 63.646 68.2398 63.5014 67.886 63.248C67.6539 63.0817 67.4895 62.9136 67.3929 62.7438C67.2885 62.5852 67.2314 62.4185 67.2215 62.2437C67.2227 62.0769 67.2657 61.898 67.3504 61.7071C67.4351 61.5163 67.5449 61.3015 67.68 61.0628C68.0144 60.4471 68.3393 59.833 68.6548 59.2205C68.9735 58.6271 69.2016 58.0442 69.339 57.4719C69.4686 56.9106 69.4563 56.3736 69.3022 55.8607C69.1591 55.3558 68.7891 54.8895 68.1922 54.4618C67.761 54.153 67.3341 53.9562 66.9114 53.8714C66.4918 53.8056 66.0867 53.8256 65.6959 53.9314C65.3084 54.0562 64.9486 54.2597 64.6166 54.5417C64.2656 54.8269 63.9487 55.1701 63.6659 55.5712C63.3673 55.9946 63.1506 56.3844 63.0158 56.7406C62.8732 57.108 62.7913 57.4601 62.77 57.7971C62.7408 58.1451 62.7645 58.4891 62.8409 58.8289C62.9206 59.1878 63.0318 59.561 63.1746 59.9484L63.151 59.9818C62.9299 59.8234 62.7175 59.6881 62.5139 59.5757C62.3135 59.4824 62.1155 59.4328 61.92 59.4269C61.7244 59.421 61.533 59.4684 61.3456 59.5689C61.1614 59.6885 60.975 59.882 60.7865 60.1494C60.6843 60.2942 60.6073 60.4152 60.5555 60.5122C60.4959 60.6204 60.4339 60.7437 60.3695 60.8821L61.2484 61.5117C61.2749 61.3797 61.3314 61.2525 61.4178 61.1299C61.7085 60.7177 62.0639 60.662 62.484 60.963L67.0274 64.2177C67.6022 64.6295 68.1333 64.8674 68.6206 64.9314C69.119 65.0033 69.5738 64.9601 69.9849 64.8019C70.3961 64.6436 70.7684 64.3988 71.1018 64.0675C71.4464 63.7442 71.7522 63.3931 72.0194 63.0143C72.373 62.5129 72.6398 62.0165 72.82 61.5251C73.0002 61.0337 73.0842 60.5489 73.0721 60.0706C73.0521 59.6035 72.9226 59.1502 72.6835 58.7106C72.4444 58.271 72.0879 57.8563 71.614 57.4665ZM66.3936 62.1789L65.0339 61.2049C64.6139 60.904 64.2969 60.5511 64.0832 60.1465C63.8615 59.7529 63.7329 59.3337 63.6972 58.8889C63.6536 58.4552 63.7007 58.011 63.8383 57.5562C63.976 57.1014 64.1863 56.6735 64.4692 56.2724C64.6421 56.0273 64.8497 55.8155 65.0921 55.637C65.3345 55.4585 65.5904 55.3315 65.8598 55.2562C66.1403 55.1888 66.4193 55.1707 66.6969 55.2018C66.9776 55.252 67.2507 55.3721 67.516 55.5622C67.936 55.8631 68.1702 56.2153 68.2184 56.6188C68.2698 57.0414 68.2188 57.4912 68.0654 57.9682C67.912 58.4453 67.6979 58.9375 67.4232 59.4451C67.1517 59.9717 66.8974 60.4855 66.6605 60.9866C66.5805 61.1472 66.5013 61.3421 66.423 61.5711C66.3447 61.8001 66.3428 61.9915 66.4172 62.1455L66.3936 62.1789Z" fill="#111111"/>
<path d="M77 51.1336L66.868 48.3663L66.5328 49.6131L71.9326 51.0879C72.4693 51.2344 72.9353 51.4609 73.3308 51.7671C73.7393 52.077 74.0628 52.4415 74.3014 52.8607C74.5364 53.2931 74.6769 53.7634 74.7229 54.2716C74.782 54.7834 74.7222 55.3194 74.5435 55.8796L75.7806 56.2174C76.0682 55.3046 76.0799 54.451 75.8157 53.6566C75.548 52.8754 75.0444 52.2139 74.3048 51.672L74.3155 51.6325L76.6914 52.2813L77 51.1336Z" fill="#111111"/>
</g>
<rect x="11.375" y="43.942" width="1.09375" height="1.11594" fill="#111111"/>
<rect x="71.5312" y="43.942" width="1.09375" height="1.11594" fill="#111111"/>
</g>
</g>
<defs>
<clipPath id="clip0_4012_427">
<rect width="70" height="77" fill="white" transform="translate(7 6)"/>
</clipPath>
<clipPath id="clip1_4012_427">
<rect width="70" height="77" fill="white" transform="translate(7 6)"/>
</clipPath>
<clipPath id="clip2_4012_427">
<rect width="70" height="34.5942" fill="white" transform="translate(7 6)"/>
</clipPath>
<clipPath id="clip3_4012_427">
<rect width="70" height="34.5942" fill="white" transform="matrix(-1 0 0 -1 77 83)"/>
</clipPath>
</defs>
</svg>
