<svg width="85" height="85" viewBox="0 0 85 85" fill="none" xmlns="http://www.w3.org/2000/svg">
<g clip-path="url(#clip0_4132_659)">
<mask id="mask0_4132_659" style="mask-type:luminance" maskUnits="userSpaceOnUse" x="9" y="8" width="68" height="68">
<path d="M77 8H9V76H77V8Z" fill="white"/>
</mask>
<g mask="url(#mask0_4132_659)">
<path d="M43 8C24.25 8 9 23.25 9 42C9 60.75 24.25 76 43 76C61.75 76 77 60.75 77 42C77 23.25 61.75 8 43 8ZM43 63.75C31.01 63.75 21.25 53.99 21.25 42C21.25 30.01 31.01 20.25 43 20.25C54.99 20.25 64.75 30.01 64.75 42C64.75 53.99 54.99 63.75 43 63.75Z" fill="white"/>
<path d="M43 21.25C31.56 21.25 22.25 30.56 22.25 42C22.25 53.44 31.56 62.75 43 62.75C54.44 62.75 63.75 53.44 63.75 42C63.75 30.56 54.44 21.25 43 21.25ZM43 52.06C37.45 52.06 32.94 47.55 32.94 42C32.94 36.45 37.45 31.94 43 31.94C48.55 31.94 53.06 36.45 53.06 42C53.06 47.55 48.55 52.06 43 52.06Z" fill="white"/>
<path d="M52.0604 42C52.0604 46.99 47.9904 51.06 43.0004 51.06C38.0104 51.06 33.9404 46.99 33.9404 42C33.9404 37.01 38.0004 32.94 43.0004 32.94C48.0004 32.94 52.0604 37.01 52.0604 42Z" fill="white"/>
</g>
</g>
<defs>
<clipPath id="clip0_4132_659">
<rect width="68" height="68" fill="white" transform="translate(9 8)"/>
</clipPath>
</defs>
</svg>
