<svg width="143" height="42" viewBox="0 0 143 42" fill="none" xmlns="http://www.w3.org/2000/svg">
<path d="M20.1551 41.1742H27.0159V11.317H20.1551V28.9772C20.1551 33.2334 17.487 35.7745 13.1038 35.7745C8.46636 35.7745 6.87822 32.5982 6.87822 28.9772V11.317H0.017424V30.8194C0.017424 37.2356 2.74904 42 9.92746 42C14.946 42 18.7576 39.3954 20.0916 32.9793H20.1551V41.1742Z" fill="white"/>
<path d="M38.3369 23.514C38.3369 19.2577 41.005 16.7167 45.3883 16.7167C50.0257 16.7167 51.6138 19.893 51.6138 23.514V41.1742H58.4746V21.7352C58.4746 15.2556 55.743 10.5547 48.5646 10.5547C43.546 10.5547 39.7345 13.1593 38.4004 19.5118H38.3369V11.317H31.4761V41.1742H38.3369V23.514Z" fill="white"/>
<path d="M75.7671 35.7745C70.4309 35.7745 68.0169 32.3441 68.0169 26.3726C68.0169 20.2106 70.5579 16.6532 75.7671 16.6532C80.6586 16.6532 83.7078 20.3377 83.7078 26.055V26.5632C83.7078 32.4711 80.6586 35.7745 75.7671 35.7745ZM83.7078 41.1742H90.5686V2.2328H83.7078V19.893H83.6443C82.3102 13.731 78.9434 10.4912 72.9719 10.5547C65.4759 10.4912 61.2196 16.4626 61.2196 26.3726C61.2196 36.0286 65.2218 42 72.9719 42C78.7528 42 82.2467 38.7602 83.5807 32.7252H83.7078V41.1742Z" fill="white"/>
<path d="M108.597 16.3355C113.297 16.3355 115.711 18.7495 116.093 23.3869H100.465C101.228 18.559 104.086 16.3355 108.597 16.3355ZM108.787 41.9365C116.664 41.9365 120.73 37.9979 122.255 32.2805L116.283 30.5653C115.394 33.6146 113.615 35.965 108.851 35.965C103.959 35.965 101.037 33.4875 100.402 28.469H122.318C122.445 26.8808 122.445 25.6739 122.445 24.4669C122.445 16.272 117.871 10.5547 108.787 10.5547C99.5123 10.5547 93.5409 16.5261 93.5409 26.6267C93.5409 36.4733 99.6394 41.9365 108.787 41.9365Z" fill="white"/>
<path d="M132.385 41.1742V26.055C132.385 20.8459 134.481 19.0036 139.818 19.0036H142.74V11.317H141.025C136.514 11.317 133.846 13.3498 132.512 21.1H132.385V11.317H125.524V41.1742H132.385Z" fill="white"/>
<path d="M0 0H27.0573V6.86236H0V0Z" fill="white"/>
</svg>
