<?xml version="1.0" encoding="UTF-8"?>
<svg id="_Слой_1" data-name="Слой_1" xmlns="http://www.w3.org/2000/svg" xmlns:xlink="http://www.w3.org/1999/xlink" version="1.1" viewBox="0 0 62 97">
  <!-- Generator: Adobe Illustrator 29.1.0, SVG Export Plug-In . SVG Version: 2.1.0 Build 142)  -->
  <defs>
    <style>
      .st0, .st1 {
        fill: none;
      }

      .st2 {
        clip-path: url(#clippath);
      }

      .st1 {
        stroke: #fff;
      }
    </style>
    <clipPath id="clippath">
      <rect class="st0" y="0" width="62" height="97"/>
    </clipPath>
  </defs>
  <g class="st2">
    <g>
      <path class="st1" d="M.5,70.5V26.4h14.7v39.9c0,4.2.9,8.2,3.3,11.2,2.3,3,6.1,4.9,11.5,4.9s9.3-1.5,12.2-4.3c2.9-2.8,4.5-6.8,4.5-11.8V26.4h14.7v67.3h-14.7v-18.7h-1.1v.4c-1.6,7.3-4.5,12.3-8.4,15.5-3.9,3.2-8.8,4.7-14.5,4.7-8.1,0-13.6-2.7-17.1-7.1-3.5-4.4-5.1-10.7-5.1-18Z"/>
      <path class="st1" d="M.5.5h61v14.7H.5V.5Z"/>
    </g>
  </g>
</svg>