<svg width="62" height="97" viewBox="0 0 62 97" fill="none" xmlns="http://www.w3.org/2000/svg">
<g clip-path="url(#clip0_4139_366)">
<path d="M0.540039 70.5142V26.3931H15.2611V66.2992C15.2611 70.5037 16.183 74.5177 18.5156 77.4906C20.8646 80.4844 24.5881 82.3512 30.0265 82.3512C35.1437 82.3512 39.3191 80.8688 42.218 78.0878C45.1196 75.3042 46.6842 71.2751 46.6842 66.2992V26.3931H61.4053V93.7056H46.6842V75.354H45.5491C44.0372 82.6147 41.1342 87.6615 37.24 90.8958C33.347 94.1292 28.4107 95.5951 22.7482 95.5951C14.6435 95.5951 9.12477 92.9159 5.61737 88.4987C2.0938 84.061 0.540039 77.7944 0.540039 70.5142Z" stroke="#111111"/>
<path d="M0.5 0.5H61.5V15.2009H0.5V0.5Z" stroke="#111111"/>
</g>
<defs>
<clipPath id="clip0_4139_366">
<rect width="62" height="97" fill="white"/>
</clipPath>
</defs>
</svg>
