<svg width="80" height="80" viewBox="0 0 80 80" fill="none" xmlns="http://www.w3.org/2000/svg">
<path fill-rule="evenodd" clip-rule="evenodd" d="M39.5547 18.5C36.5171 18.5 34.0547 20.9623 34.0547 24C34.0547 27.0376 36.517 29.5 39.5547 29.5C42.5923 29.5 45.0547 27.0375 45.0547 24C45.0547 20.9624 42.5922 18.5 39.5547 18.5ZM33.0547 24C33.0547 20.41 35.9648 17.5 39.5547 17.5C43.1444 17.5 46.0547 20.4101 46.0547 24C46.0547 27.5897 43.1446 30.5 39.5547 30.5C35.9647 30.5 33.0547 27.5899 33.0547 24ZM30.1348 34.4263C27.0972 34.4263 24.6348 36.8886 24.6348 39.9263C24.6348 42.9639 27.0971 45.4263 30.1348 45.4263C33.1723 45.4263 35.6348 42.9637 35.6348 39.9263C35.6348 36.8887 33.1722 34.4263 30.1348 34.4263ZM23.6348 39.9263C23.6348 36.3363 26.5449 33.4263 30.1348 33.4263C33.7245 33.4263 36.6348 36.3364 36.6348 39.9263C36.6348 43.516 33.7246 46.4263 30.1348 46.4263C26.5448 46.4263 23.6348 43.5161 23.6348 39.9263ZM48.8301 34.4263C45.7925 34.4263 43.3301 36.8886 43.3301 39.9263C43.3301 42.9639 45.7924 45.4263 48.8301 45.4263C51.8677 45.4263 54.3301 42.9637 54.3301 39.9263C54.3301 36.8887 51.8676 34.4263 48.8301 34.4263ZM42.3301 39.9263C42.3301 36.3363 45.2402 33.4263 48.8301 33.4263C52.4198 33.4263 55.3301 36.3364 55.3301 39.9263C55.3301 43.516 52.42 46.4263 48.8301 46.4263C45.2401 46.4263 42.3301 43.5161 42.3301 39.9263ZM58.1094 50.5469C55.0718 50.5469 52.6094 53.0092 52.6094 56.0469C52.6094 59.0845 55.0717 61.5469 58.1094 61.5469C61.147 61.5469 63.6094 59.0844 63.6094 56.0469C63.6094 53.0093 61.1469 50.5469 58.1094 50.5469ZM51.6094 56.0469C51.6094 52.4569 54.5195 49.5469 58.1094 49.5469C61.6991 49.5469 64.6094 52.457 64.6094 56.0469C64.6094 59.6366 61.6992 62.5469 58.1094 62.5469C54.5194 62.5469 51.6094 59.6367 51.6094 56.0469ZM21 50.5474C17.9624 50.5474 15.5 53.0097 15.5 56.0474C15.5 59.085 17.9623 61.5474 21 61.5474C24.0376 61.5474 26.5 59.0848 26.5 56.0474C26.5 53.0098 24.0375 50.5474 21 50.5474ZM14.5 56.0474C14.5 52.4574 17.4101 49.5474 21 49.5474C24.5897 49.5474 27.5 52.4575 27.5 56.0474C27.5 59.6371 24.5899 62.5474 21 62.5474C17.41 62.5474 14.5 59.6372 14.5 56.0474ZM39.5547 50.5474C36.5171 50.5474 34.0547 53.0097 34.0547 56.0474C34.0547 59.085 36.517 61.5474 39.5547 61.5474C42.5923 61.5474 45.0547 59.0848 45.0547 56.0474C45.0547 53.0098 42.5922 50.5474 39.5547 50.5474ZM33.0547 56.0474C33.0547 52.4574 35.9648 49.5474 39.5547 49.5474C43.1444 49.5474 46.0547 52.4575 46.0547 56.0474C46.0547 59.6371 43.1446 62.5474 39.5547 62.5474C35.9647 62.5474 33.0547 59.6372 33.0547 56.0474Z" fill="#111111"/>
</svg>
