<svg width="165" height="180" viewBox="0 0 165 180" fill="none" xmlns="http://www.w3.org/2000/svg">
<path fill-rule="evenodd" clip-rule="evenodd" d="M11.7145 0.619629H164.379V168.497L151.977 179.737H0.09375V13.4025L11.7145 0.619629ZM11.5025 1.98358V23.6704L0.854332 35.3833V13.6965L11.5025 1.98358ZM0.854332 36.514V131.977L11.5025 120.264V24.801L0.854332 36.514ZM11.5025 121.395L0.854332 133.108V178.46L11.5025 168.167V121.395ZM12.0365 168.708L1.41461 178.976H151.683L163.013 168.708H12.0365ZM163.619 167.948H12.2631V1.38021H163.619V167.948Z" fill="#111111"/>
<path fill-rule="evenodd" clip-rule="evenodd" d="M11.8828 120.031H163.999V120.792H11.8828V120.031Z" fill="#111111"/>
<path fill-rule="evenodd" clip-rule="evenodd" d="M11.8828 23.437H163.999V24.1976H11.8828V23.437Z" fill="#111111"/>
<path fill-rule="evenodd" clip-rule="evenodd" d="M23.2912 15.4512C24.9714 15.4512 26.3335 14.0891 26.3335 12.4089C26.3335 10.7286 24.9714 9.36654 23.2912 9.36654C21.611 9.36654 20.2489 10.7286 20.2489 12.4089C20.2489 14.0891 21.611 15.4512 23.2912 15.4512ZM23.2912 16.2118C25.3915 16.2118 27.0941 14.5092 27.0941 12.4089C27.0941 10.3086 25.3915 8.60596 23.2912 8.60596C21.1909 8.60596 19.4883 10.3086 19.4883 12.4089C19.4883 14.5092 21.1909 16.2118 23.2912 16.2118Z" fill="#111111"/>
<path fill-rule="evenodd" clip-rule="evenodd" d="M34.7013 15.4512C36.3816 15.4512 37.7437 14.0891 37.7437 12.4089C37.7437 10.7286 36.3816 9.36654 34.7013 9.36654C33.0211 9.36654 31.659 10.7286 31.659 12.4089C31.659 14.0891 33.0211 15.4512 34.7013 15.4512ZM34.7013 16.2118C36.8016 16.2118 38.5043 14.5092 38.5043 12.4089C38.5043 10.3086 36.8016 8.60596 34.7013 8.60596C32.6011 8.60596 30.8984 10.3086 30.8984 12.4089C30.8984 14.5092 32.6011 16.2118 34.7013 16.2118Z" fill="#111111"/>
<path fill-rule="evenodd" clip-rule="evenodd" d="M46.1096 15.4512C47.7898 15.4512 49.1519 14.0891 49.1519 12.4089C49.1519 10.7286 47.7898 9.36654 46.1096 9.36654C44.4293 9.36654 43.0672 10.7286 43.0672 12.4089C43.0672 14.0891 44.4293 15.4512 46.1096 15.4512ZM46.1096 16.2118C48.2098 16.2118 49.9125 14.5092 49.9125 12.4089C49.9125 10.3086 48.2098 8.60596 46.1096 8.60596C44.0093 8.60596 42.3066 10.3086 42.3066 12.4089C42.3066 14.5092 44.0093 16.2118 46.1096 16.2118Z" fill="#111111"/>
<path fill-rule="evenodd" clip-rule="evenodd" d="M148.52 15.9427L156.125 8.33691L156.663 8.87473L149.057 16.4805L148.52 15.9427Z" fill="#111111"/>
<path fill-rule="evenodd" clip-rule="evenodd" d="M156.125 16.4805L148.52 8.87473L149.057 8.33691L156.663 15.9427L156.125 16.4805Z" fill="#111111"/>
<g clip-path="url(#clip0_5867_1775)">
<path fill-rule="evenodd" clip-rule="evenodd" d="M83.763 81.363L83.7569 81.3677L57.4023 47.7991L57.5198 47.5818C58.1819 46.3574 59.397 45.012 60.7505 43.8708C62.104 42.7295 63.6359 41.7586 64.9559 41.312L64.9754 41.3697L65.3329 41.7272L93.6582 72.4257L93.662 72.4222L100.104 79.3987L100.079 79.5757C99.3746 84.5351 94.501 88.6357 89.4811 88.5013L89.3031 88.4966L83.763 81.363ZM84.5137 81.102L89.6778 87.7515C94.1962 87.7754 98.5766 84.0875 99.3063 79.645L93.5856 73.4494C92.4452 77.4358 88.6432 80.6419 84.5137 81.102ZM92.9762 72.7968L65.1299 42.6176C63.7523 45.0653 61.4302 47.0254 58.775 47.9733L83.9572 80.3931C88.1148 80.1637 92.0534 76.8449 92.9762 72.7968ZM58.6248 47.2267C61.0331 46.3385 63.1447 44.5556 64.4212 42.3404C63.4029 42.8165 62.2769 43.5686 61.2359 44.4464C60.1957 45.3235 59.2653 46.3049 58.6248 47.2267Z" fill="#111111"/>
<path fill-rule="evenodd" clip-rule="evenodd" d="M107.95 83.1659C106.33 81.4469 104.041 80.519 101.28 80.2833L101.341 79.5303C104.238 79.7737 106.718 80.7548 108.498 82.6487C110.277 84.5349 111.319 87.2882 111.426 90.9694C111.532 94.567 112.133 97.2518 113.358 99.0848C114.118 100.226 115.138 101.055 116.461 101.572C116.491 101.572 116.514 101.58 116.545 101.587V101.602C117.092 101.808 117.701 101.96 118.362 102.059L119.123 102.142L119.047 102.888C118.781 102.865 118.522 102.835 118.271 102.796L99.5532 100.636C93.6891 100.142 89.331 95.0157 89.8253 89.1821L90.5783 89.2429C90.122 94.6582 94.1683 99.4271 99.6292 99.8834L106.779 100.705C105.166 100.264 103.508 99.7237 101.979 99.0468C100.017 98.1797 98.2222 97.0921 96.9596 95.7079C94.3584 92.8405 94.0238 90.3534 93.7347 88.2313C93.7271 88.1705 93.7195 88.1096 93.7119 88.0412L94.4573 87.9423C94.4649 88.0032 94.4725 88.064 94.4801 88.1248C94.7615 90.2088 95.0734 92.5058 97.5148 95.1983C98.6785 96.4684 100.367 97.5104 102.284 98.3547C104.2 99.1989 106.315 99.8302 108.315 100.317C109.243 100.538 110.14 100.728 110.977 100.895C102.025 97.4039 98.2374 89.357 96.7999 85.6606L97.4996 85.3868C98.9371 89.0984 102.717 97.0693 111.684 100.355C110.734 99.5868 110.049 98.6817 109.502 97.6702C108.908 96.5749 108.482 95.3504 108.072 94.0574C107.98 93.7684 107.889 93.4793 107.798 93.1903C107.471 92.1483 107.129 91.0607 106.703 89.935C104.801 84.9304 100.869 83.7363 99.4467 83.7591L99.4315 83.0061C101.158 82.9757 105.379 84.3524 107.402 89.6612C107.844 90.8173 108.193 91.9278 108.52 92.9698C108.612 93.2588 108.703 93.5478 108.787 93.8216C109.197 95.1146 109.608 96.2783 110.163 97.3051C110.711 98.3319 111.411 99.2141 112.392 99.9443C112.833 100.271 113.327 100.568 113.905 100.834C113.472 100.439 113.076 99.9823 112.734 99.4651C111.395 97.4572 110.779 94.605 110.673 90.9542C110.566 87.3947 109.57 84.8467 107.95 83.1278V83.1659Z" fill="#111111"/>
</g>
<path d="M31.7128 154.474C29.3601 154.474 27.5022 153.654 26.1392 152.016C24.7925 150.377 24.1191 148.203 24.1191 145.493C24.1191 142.783 24.8087 140.593 26.1879 138.921C27.5671 137.25 29.4331 136.415 31.7858 136.415C33.5057 136.415 34.9336 136.861 36.0694 137.753C37.2052 138.646 37.9435 139.903 38.2842 141.526H37.0186C36.7752 140.309 36.1911 139.335 35.2662 138.605C34.3576 137.875 33.1974 137.51 31.7858 137.51C29.7414 137.51 28.1675 138.264 27.0641 139.773C25.977 141.266 25.4334 143.173 25.4334 145.493C25.4334 147.813 25.9689 149.703 27.0398 151.164C28.1269 152.624 29.6846 153.354 31.7128 153.354C33.3678 153.354 34.6902 152.843 35.68 151.821C36.686 150.799 37.2701 149.476 37.4324 147.854H38.625C38.4627 149.655 37.9273 151.099 37.0186 152.186C35.753 153.711 33.9844 154.474 31.7128 154.474Z" fill="#111111"/>
<path d="M46.6141 154.474C44.5048 154.474 42.866 153.938 41.6977 152.867C40.5457 151.797 39.921 150.393 39.8236 148.657H41.1136C41.1785 150.117 41.6977 151.269 42.6713 152.113C43.661 152.94 44.9672 153.354 46.5898 153.354C47.9527 153.354 49.0723 153.005 49.9485 152.308C50.8247 151.61 51.2628 150.661 51.2628 149.46C51.2628 148.243 50.8896 147.391 50.1432 146.904C49.3968 146.401 47.9446 145.947 45.7866 145.542C43.9855 145.217 42.6469 144.722 41.7707 144.057C40.8945 143.392 40.4564 142.378 40.4564 141.015C40.4564 139.652 40.9838 138.548 42.0385 137.704C43.1094 136.845 44.5048 136.415 46.2247 136.415C47.9446 136.415 49.3076 136.861 50.3136 137.753C51.3358 138.629 51.9118 139.798 52.0416 141.258H50.776C50.6624 140.073 50.1919 139.157 49.3644 138.508C48.5369 137.859 47.4984 137.534 46.249 137.534C44.8536 137.534 43.7503 137.859 42.939 138.508C42.1439 139.14 41.7464 139.968 41.7464 140.99C41.7464 142.012 42.0952 142.767 42.793 143.254C43.5069 143.724 44.7644 144.122 46.5654 144.446C47.3443 144.592 47.9933 144.738 48.5125 144.884C49.0318 145.014 49.5672 145.209 50.1189 145.469C50.6868 145.712 51.133 145.996 51.4575 146.32C51.782 146.645 52.0497 147.067 52.2607 147.586C52.4716 148.089 52.5771 148.681 52.5771 149.363C52.5771 150.855 52.0254 152.081 50.9221 153.038C49.8349 153.995 48.3989 154.474 46.6141 154.474Z" fill="#111111"/>
<path d="M60.875 154.474C58.7657 154.474 57.1269 153.938 55.9586 152.867C54.8066 151.797 54.1819 150.393 54.0846 148.657H55.3745C55.4394 150.117 55.9586 151.269 56.9322 152.113C57.9219 152.94 59.2281 153.354 60.8507 153.354C62.2137 153.354 63.3332 153.005 64.2094 152.308C65.0856 151.61 65.5237 150.661 65.5237 149.46C65.5237 148.243 65.1505 147.391 64.4041 146.904C63.6577 146.401 62.2055 145.947 60.0475 145.542C58.2465 145.217 56.9078 144.722 56.0316 144.057C55.1555 143.392 54.7174 142.378 54.7174 141.015C54.7174 139.652 55.2447 138.548 56.2994 137.704C57.3703 136.845 58.7657 136.415 60.4856 136.415C62.2055 136.415 63.5685 136.861 64.5745 137.753C65.5967 138.629 66.1727 139.798 66.3025 141.258H65.0369C64.9234 140.073 64.4528 139.157 63.6253 138.508C62.7978 137.859 61.7593 137.534 60.5099 137.534C59.1145 137.534 58.0112 137.859 57.1999 138.508C56.4048 139.14 56.0073 139.968 56.0073 140.99C56.0073 142.012 56.3562 142.767 57.0539 143.254C57.7678 143.724 59.0253 144.122 60.8264 144.446C61.6052 144.592 62.2542 144.738 62.7734 144.884C63.2927 145.014 63.8281 145.209 64.3798 145.469C64.9477 145.712 65.3939 145.996 65.7184 146.32C66.0429 146.645 66.3107 147.067 66.5216 147.586C66.7325 148.089 66.838 148.681 66.838 149.363C66.838 150.855 66.2863 152.081 65.183 153.038C64.0958 153.995 62.6599 154.474 60.875 154.474Z" fill="#111111"/>
<defs>
<clipPath id="clip0_5867_1775">
<rect width="61.5995" height="61.5919" fill="white" transform="translate(57.5176 41.311)"/>
</clipPath>
</defs>
</svg>
