<svg width="217" height="236" viewBox="0 0 217 236" fill="none" xmlns="http://www.w3.org/2000/svg">
<path fill-rule="evenodd" clip-rule="evenodd" d="M15.7788 0.5H216.5V221.222L200.193 236H0.5V17.3067L15.7788 0.5ZM15.5 2.2933V30.8067L1.5 46.2067V17.6933L15.5 2.2933ZM1.5 47.6933V173.207L15.5 157.807V32.2933L1.5 47.6933ZM15.5 159.293L1.5 174.693V234.321L15.5 220.788V159.293ZM16.2022 221.5L2.23665 235H199.807L214.704 221.5H16.2022ZM215.5 220.5H16.5V1.5H215.5V220.5Z" fill="#111111"/>
<path fill-rule="evenodd" clip-rule="evenodd" d="M16 157.5H216V158.5H16V157.5Z" fill="#111111"/>
<path fill-rule="evenodd" clip-rule="evenodd" d="M16 30.5H216V31.5H16V30.5Z" fill="#111111"/>
<path fill-rule="evenodd" clip-rule="evenodd" d="M31 20C33.2091 20 35 18.2091 35 16C35 13.7909 33.2091 12 31 12C28.7909 12 27 13.7909 27 16C27 18.2091 28.7909 20 31 20ZM31 21C33.7614 21 36 18.7614 36 16C36 13.2386 33.7614 11 31 11C28.2386 11 26 13.2386 26 16C26 18.7614 28.2386 21 31 21Z" fill="#111111"/>
<path fill-rule="evenodd" clip-rule="evenodd" d="M46 20C48.2091 20 50 18.2091 50 16C50 13.7909 48.2091 12 46 12C43.7909 12 42 13.7909 42 16C42 18.2091 43.7909 20 46 20ZM46 21C48.7614 21 51 18.7614 51 16C51 13.2386 48.7614 11 46 11C43.2386 11 41 13.2386 41 16C41 18.7614 43.2386 21 46 21Z" fill="#111111"/>
<path fill-rule="evenodd" clip-rule="evenodd" d="M61 20C63.2091 20 65 18.2091 65 16C65 13.7909 63.2091 12 61 12C58.7909 12 57 13.7909 57 16C57 18.2091 58.7909 20 61 20ZM61 21C63.7614 21 66 18.7614 66 16C66 13.2386 63.7614 11 61 11C58.2386 11 56 13.2386 56 16C56 18.7614 58.2386 21 61 21Z" fill="#111111"/>
<path fill-rule="evenodd" clip-rule="evenodd" d="M195.646 20.6464L205.646 10.6464L206.354 11.3536L196.354 21.3536L195.646 20.6464Z" fill="#111111"/>
<path fill-rule="evenodd" clip-rule="evenodd" d="M205.646 21.3536L195.646 11.3536L196.354 10.6464L206.354 20.6464L205.646 21.3536Z" fill="#111111"/>
<path fill-rule="evenodd" clip-rule="evenodd" d="M110.508 106.659L110.5 106.666L75.8496 62.5301L76.0041 62.2444C76.8745 60.6346 78.4721 58.8657 80.2517 57.3652C82.0312 55.8647 84.0454 54.5882 85.7808 54.001L85.8065 54.0769L86.2766 54.5469L123.518 94.9087L123.523 94.9041L131.993 104.077L131.96 104.309C131.034 110.83 124.626 116.221 118.026 116.045L117.792 116.038L110.508 106.659ZM111.495 106.316L118.285 115.059C124.226 115.09 129.985 110.241 130.944 104.401L123.423 96.2547C121.923 101.496 116.924 105.711 111.495 106.316ZM122.621 95.3967L86.0096 55.7175C84.1984 58.9357 81.1454 61.5128 77.6543 62.7591L110.763 105.384C116.23 105.083 121.408 100.719 122.621 95.3967ZM77.4569 61.7776C80.6232 60.6097 83.3995 58.2656 85.0779 55.3531C83.739 55.9791 82.2586 56.9679 80.8898 58.122C79.5222 59.2752 78.299 60.5656 77.4569 61.7776Z" fill="#111111"/>
<path fill-rule="evenodd" clip-rule="evenodd" d="M142.31 109.03C140.18 106.77 137.17 105.55 133.54 105.24L133.62 104.25C137.43 104.57 140.69 105.86 143.03 108.35C145.37 110.83 146.74 114.45 146.88 119.29C147.02 124.02 147.81 127.55 149.42 129.96C150.42 131.46 151.76 132.55 153.5 133.23C153.54 133.23 153.57 133.24 153.61 133.25V133.27C154.33 133.54 155.13 133.74 156 133.87L157 133.98L156.9 134.96C156.55 134.93 156.21 134.89 155.88 134.84L131.27 132C123.56 131.35 117.83 124.61 118.48 116.94L119.47 117.02C118.87 124.14 124.19 130.41 131.37 131.01L140.77 132.09C138.65 131.51 136.47 130.8 134.46 129.91C131.88 128.77 129.52 127.34 127.86 125.52C124.44 121.75 124 118.48 123.62 115.69C123.61 115.61 123.6 115.53 123.59 115.44L124.57 115.31C124.58 115.39 124.59 115.47 124.6 115.55C124.97 118.29 125.38 121.31 128.59 124.85C130.12 126.52 132.34 127.89 134.86 129C137.38 130.11 140.16 130.94 142.79 131.58C144.01 131.87 145.19 132.12 146.29 132.34C134.52 127.75 129.54 117.17 127.65 112.31L128.57 111.95C130.46 116.83 135.43 127.31 147.22 131.63C145.97 130.62 145.07 129.43 144.35 128.1C143.57 126.66 143.01 125.05 142.47 123.35C142.35 122.97 142.23 122.59 142.11 122.21C141.68 120.84 141.23 119.41 140.67 117.93C138.17 111.35 133 109.78 131.13 109.81L131.11 108.82C133.38 108.78 138.93 110.59 141.59 117.57C142.17 119.09 142.63 120.55 143.06 121.92C143.18 122.3 143.3 122.68 143.41 123.04C143.95 124.74 144.49 126.27 145.22 127.62C145.94 128.97 146.86 130.13 148.15 131.09C148.73 131.52 149.38 131.91 150.14 132.26C149.57 131.74 149.05 131.14 148.6 130.46C146.84 127.82 146.03 124.07 145.89 119.27C145.75 114.59 144.44 111.24 142.31 108.98V109.03Z" fill="#111111"/>
<path d="M42.072 202.785C38.9787 202.785 36.536 201.707 34.744 199.553C32.9733 197.398 32.088 194.539 32.088 190.977C32.088 187.414 32.9947 184.534 34.808 182.337C36.6213 180.139 39.0747 179.041 42.168 179.041C44.4293 179.041 46.3067 179.627 47.8 180.801C49.2933 181.974 50.264 183.627 50.712 185.761H49.048C48.728 184.161 47.96 182.881 46.744 181.921C45.5493 180.961 44.024 180.481 42.168 180.481C39.48 180.481 37.4107 181.473 35.96 183.457C34.5307 185.419 33.816 187.926 33.816 190.977C33.816 194.027 34.52 196.513 35.928 198.433C37.3573 200.353 39.4053 201.313 42.072 201.313C44.248 201.313 45.9867 200.641 47.288 199.297C48.6107 197.953 49.3787 196.214 49.592 194.081H51.16C50.9467 196.449 50.2427 198.347 49.048 199.777C47.384 201.782 45.0587 202.785 42.072 202.785Z" fill="#111111"/>
<path d="M61.664 202.785C58.8907 202.785 56.736 202.081 55.2 200.673C53.6853 199.265 52.864 197.419 52.736 195.137H54.432C54.5173 197.057 55.2 198.571 56.48 199.681C57.7813 200.769 59.4987 201.313 61.632 201.313C63.424 201.313 64.896 200.854 66.048 199.937C67.2 199.019 67.776 197.771 67.776 196.193C67.776 194.593 67.2853 193.473 66.304 192.833C65.3227 192.171 63.4133 191.574 60.576 191.041C58.208 190.614 56.448 189.963 55.296 189.089C54.144 188.214 53.568 186.881 53.568 185.089C53.568 183.297 54.2613 181.846 55.648 180.737C57.056 179.606 58.8907 179.041 61.152 179.041C63.4133 179.041 65.2053 179.627 66.528 180.801C67.872 181.953 68.6293 183.489 68.8 185.409H67.136C66.9867 183.851 66.368 182.646 65.28 181.793C64.192 180.939 62.8267 180.513 61.184 180.513C59.3493 180.513 57.8987 180.939 56.832 181.793C55.7867 182.625 55.264 183.713 55.264 185.057C55.264 186.401 55.7227 187.393 56.64 188.033C57.5787 188.651 59.232 189.174 61.6 189.601C62.624 189.793 63.4773 189.985 64.16 190.177C64.8427 190.347 65.5467 190.603 66.272 190.945C67.0187 191.265 67.6053 191.638 68.032 192.065C68.4587 192.491 68.8107 193.046 69.088 193.729C69.3653 194.39 69.504 195.169 69.504 196.065C69.504 198.027 68.7787 199.638 67.328 200.897C65.8987 202.155 64.0107 202.785 61.664 202.785Z" fill="#111111"/>
<path d="M80.414 202.785C77.6407 202.785 75.486 202.081 73.95 200.673C72.4353 199.265 71.614 197.419 71.486 195.137H73.182C73.2673 197.057 73.95 198.571 75.23 199.681C76.5313 200.769 78.2487 201.313 80.382 201.313C82.174 201.313 83.646 200.854 84.798 199.937C85.95 199.019 86.526 197.771 86.526 196.193C86.526 194.593 86.0353 193.473 85.054 192.833C84.0727 192.171 82.1633 191.574 79.326 191.041C76.958 190.614 75.198 189.963 74.046 189.089C72.894 188.214 72.318 186.881 72.318 185.089C72.318 183.297 73.0113 181.846 74.398 180.737C75.806 179.606 77.6407 179.041 79.902 179.041C82.1633 179.041 83.9553 179.627 85.278 180.801C86.622 181.953 87.3793 183.489 87.55 185.409H85.886C85.7367 183.851 85.118 182.646 84.03 181.793C82.942 180.939 81.5767 180.513 79.934 180.513C78.0993 180.513 76.6487 180.939 75.582 181.793C74.5367 182.625 74.014 183.713 74.014 185.057C74.014 186.401 74.4727 187.393 75.39 188.033C76.3287 188.651 77.982 189.174 80.35 189.601C81.374 189.793 82.2273 189.985 82.91 190.177C83.5927 190.347 84.2967 190.603 85.022 190.945C85.7687 191.265 86.3553 191.638 86.782 192.065C87.2087 192.491 87.5607 193.046 87.838 193.729C88.1153 194.39 88.254 195.169 88.254 196.065C88.254 198.027 87.5287 199.638 86.078 200.897C84.6487 202.155 82.7607 202.785 80.414 202.785Z" fill="#111111"/>
</svg>
