<svg width="166" height="182" viewBox="0 0 166 182" fill="none" xmlns="http://www.w3.org/2000/svg">
<path d="M26.6882 167.29H148.171L157.171 167.313C159.423 167.313 161.733 166.687 163.255 165M26.6882 167.29L13.6968 181M26.6882 167.29C25.9464 167.29 23.2163 167.289 22.5009 167.281C20.5009 167.281 14.3374 167 14.3374 157.011V120M15.5009 4.5L3.50041 17.2509C2.13826 18.6983 1.36363 20.6008 1.32741 22.588L1.00095 40.5M1.00095 168.721L14.3374 154.45M1.00095 168.721V135.5M1.00095 168.721C1.00095 169.154 0.99971 171.581 0.998061 172C0.998061 175 2 181 9.3517 181H147.843C150.447 181 152.888 179.733 154.386 177.604L163.255 165M165.001 25.5V9.57288C165.001 4 162.001 1 156.171 1H22.1672C18.0009 1 14.3374 4 14.3374 8.57288V25.5M165.001 25.5H14.3374M165.001 25.5V120M14.3374 25.5L1.00095 40.5M14.3374 25.5V120M1.00095 40.5V135.5M165.001 120V159.74C165.001 162.114 164.321 163.818 163.255 165M165.001 120H14.3374M14.3374 120L1.00095 135.5" stroke="#111111" stroke-miterlimit="10"/>
<mask id="mask0_234_940" style="mask-type:alpha" maskUnits="userSpaceOnUse" x="62" y="41" width="60" height="62">
<rect x="62" y="41" width="60" height="62" fill="#D33E3E"/>
</mask>
<g mask="url(#mask0_234_940)">
<path fill-rule="evenodd" clip-rule="evenodd" d="M110.936 82.9718C109.345 81.2796 107.153 80.4152 104.518 80.2848L104.562 79.2858C107.393 79.4258 109.854 80.3644 111.663 82.2884C113.468 84.2077 114.568 87.0485 114.799 90.887C115.024 94.6291 115.632 97.3782 116.791 99.2152C117.474 100.298 118.36 101.08 119.517 101.559C119.667 101.578 119.817 101.596 119.969 101.612L119.958 101.721C120.408 101.87 120.897 101.977 121.427 102.042L122.183 102.106L122.12 103.104C121.851 103.091 121.588 103.068 121.333 103.037L103.561 101.531C97.7911 101.24 93.3975 96 93.6699 89.8941L94.6686 89.9435C94.4177 95.5684 98.457 100.277 103.614 100.532L103.623 100.532L103.632 100.533L109.362 101.019C108.154 100.678 106.941 100.27 105.791 99.7789C103.858 98.9532 102.072 97.8806 100.793 96.4739L100.792 96.4729C98.1673 93.5737 97.7539 90.9753 97.4052 88.7837C97.3947 88.7178 97.3843 88.6523 97.3739 88.5871L98.3611 88.4337C98.3709 88.4951 98.3807 88.5566 98.3905 88.6183C98.7341 90.7761 99.1084 93.1266 101.531 95.8029C102.676 97.0614 104.317 98.0635 106.18 98.8593C108.039 99.6534 110.09 100.229 112.024 100.652C112.545 100.766 113.057 100.868 113.553 100.96C105.424 97.4383 101.718 89.6418 100.271 86.0035L101.2 85.6378C102.678 89.3554 106.428 97.1527 114.688 100.344C113.956 99.6551 113.389 98.863 112.918 97.9949C112.307 96.8705 111.853 95.6094 111.41 94.2792C111.311 93.9838 111.213 93.685 111.114 93.3828C110.764 92.3132 110.4 91.2012 109.948 90.046C107.956 84.9572 104.186 83.92 102.892 83.9951L102.829 82.9965C104.572 82.8955 108.733 84.2053 110.878 89.6851C111.342 90.8695 111.718 92.017 112.069 93.0903C112.167 93.3886 112.263 93.6811 112.358 93.967C112.8 95.293 113.231 96.4806 113.796 97.5208C114.357 98.5542 115.045 99.4327 115.995 100.14C116.138 100.246 116.287 100.349 116.443 100.448C116.268 100.228 116.103 99.9939 115.946 99.7463C114.646 97.686 114.029 94.7236 113.801 90.9424C113.579 87.2574 112.532 84.6687 110.936 82.9718Z" fill="#111111"/>
<path d="M88.9361 82.0909C93.1075 81.5627 96.8801 77.8621 97.7592 73.4363M94.32 89.0356L89.3001 82.5604C93.4483 81.884 97.145 78.258 98.1589 73.8709L103.67 79.8638C103.161 84.735 98.8682 88.9463 94.32 89.0356ZM62.9213 48.5347L62.9028 48.5109C65.6103 47.4483 67.9409 45.1622 69.1765 42.357L69.1968 42.3791L97.35 72.9913C96.6277 77.4605 92.7601 81.2543 88.5633 81.6101L62.9213 48.5347ZM63.0003 47.3597C64.0977 45.1453 65.9551 43.3234 68.1038 42.3538C67.0064 44.5682 65.1491 46.39 63.0003 47.3597Z" stroke="#111111"/>
</g>
<path d="M66.0612 152.593C63.9812 152.593 62.3652 152.065 61.2132 151.009C60.0772 149.953 59.4612 148.569 59.3652 146.857H60.6372C60.7012 148.297 61.2132 149.433 62.1732 150.265C63.1492 151.081 64.4372 151.489 66.0372 151.489C67.3812 151.489 68.4852 151.145 69.3492 150.457C70.2132 149.769 70.6452 148.833 70.6452 147.649C70.6452 146.449 70.2772 145.609 69.5412 145.129C68.8052 144.633 67.3732 144.185 65.2452 143.785C63.4692 143.465 62.1492 142.977 61.2852 142.321C60.4212 141.665 59.9892 140.665 59.9892 139.321C59.9892 137.977 60.5092 136.889 61.5492 136.057C62.6052 135.209 63.9812 134.785 65.6772 134.785C67.3732 134.785 68.7172 135.225 69.7092 136.105C70.7172 136.969 71.2852 138.121 71.4132 139.561H70.1652C70.0532 138.393 69.5892 137.489 68.7732 136.849C67.9572 136.209 66.9332 135.889 65.7012 135.889C64.3252 135.889 63.2372 136.209 62.4372 136.849C61.6532 137.473 61.2612 138.289 61.2612 139.297C61.2612 140.305 61.6052 141.049 62.2932 141.529C62.9972 141.993 64.2372 142.385 66.0132 142.705C66.7812 142.849 67.4212 142.993 67.9332 143.137C68.4452 143.265 68.9732 143.457 69.5172 143.713C70.0772 143.953 70.5172 144.233 70.8372 144.553C71.1572 144.873 71.4212 145.289 71.6292 145.801C71.8372 146.297 71.9412 146.881 71.9412 147.553C71.9412 149.025 71.3972 150.233 70.3092 151.177C69.2372 152.121 67.8212 152.593 66.0612 152.593Z" fill="#111111"/>
<path d="M51.9987 152.593C49.9187 152.593 48.3027 152.065 47.1507 151.009C46.0147 149.953 45.3987 148.569 45.3027 146.857H46.5747C46.6387 148.297 47.1507 149.433 48.1107 150.265C49.0867 151.081 50.3747 151.489 51.9747 151.489C53.3187 151.489 54.4227 151.145 55.2867 150.457C56.1507 149.769 56.5827 148.833 56.5827 147.649C56.5827 146.449 56.2147 145.609 55.4787 145.129C54.7427 144.633 53.3107 144.185 51.1827 143.785C49.4067 143.465 48.0867 142.977 47.2227 142.321C46.3587 141.665 45.9267 140.665 45.9267 139.321C45.9267 137.977 46.4467 136.889 47.4867 136.057C48.5427 135.209 49.9187 134.785 51.6147 134.785C53.3107 134.785 54.6547 135.225 55.6467 136.105C56.6547 136.969 57.2227 138.121 57.3507 139.561H56.1027C55.9907 138.393 55.5267 137.489 54.7107 136.849C53.8947 136.209 52.8707 135.889 51.6387 135.889C50.2627 135.889 49.1747 136.209 48.3747 136.849C47.5907 137.473 47.1987 138.289 47.1987 139.297C47.1987 140.305 47.5427 141.049 48.2307 141.529C48.9347 141.993 50.1747 142.385 51.9507 142.705C52.7187 142.849 53.3587 142.993 53.8707 143.137C54.3827 143.265 54.9107 143.457 55.4547 143.713C56.0147 143.953 56.4547 144.233 56.7747 144.553C57.0947 144.873 57.3587 145.289 57.5667 145.801C57.7747 146.297 57.8787 146.881 57.8787 147.553C57.8787 149.025 57.3347 150.233 56.2467 151.177C55.1747 152.121 53.7587 152.593 51.9987 152.593Z" fill="#111111"/>
<path d="M37.3044 152.593C34.9844 152.593 33.1524 151.785 31.8084 150.169C30.4804 148.553 29.8164 146.409 29.8164 143.737C29.8164 141.065 30.4964 138.905 31.8564 137.257C33.2164 135.609 35.0564 134.785 37.3764 134.785C39.0724 134.785 40.4804 135.225 41.6004 136.105C42.7204 136.985 43.4484 138.225 43.7844 139.825H42.5364C42.2964 138.625 41.7204 137.665 40.8084 136.945C39.9124 136.225 38.7684 135.865 37.3764 135.865C35.3604 135.865 33.8084 136.609 32.7204 138.097C31.6484 139.569 31.1124 141.449 31.1124 143.737C31.1124 146.025 31.6404 147.889 32.6964 149.329C33.7684 150.769 35.3044 151.489 37.3044 151.489C38.9364 151.489 40.2404 150.985 41.2164 149.977C42.2084 148.969 42.7844 147.665 42.9444 146.065H44.1204C43.9604 147.841 43.4324 149.265 42.5364 150.337C41.2884 151.841 39.5444 152.593 37.3044 152.593Z" fill="#111111"/>
<path d="M36.0349 13.7872C36.0349 15.6052 34.5695 17.0745 32.7674 17.0745C30.9654 17.0745 29.5 15.6052 29.5 13.7872C29.5 11.9693 30.9654 10.5 32.7674 10.5C34.5695 10.5 36.0349 11.9693 36.0349 13.7872Z" stroke="#111111"/>
<path d="M47.3376 13.7872C47.3376 15.6052 45.8723 17.0745 44.0702 17.0745C42.2681 17.0745 40.8027 15.6052 40.8027 13.7872C40.8027 11.9693 42.2681 10.5 44.0702 10.5C45.8723 10.5 47.3376 11.9693 47.3376 13.7872Z" stroke="#111111"/>
<path d="M58.6404 13.7872C58.6404 15.6052 57.175 17.0745 55.3729 17.0745C53.5708 17.0745 52.1055 15.6052 52.1055 13.7872C52.1055 11.9693 53.5708 10.5 55.3729 10.5C57.175 10.5 58.6404 11.9693 58.6404 13.7872Z" stroke="#111111"/>
<path d="M152.465 10L144.93 17.5745" stroke="#111111"/>
<path d="M144.93 10L152.465 17.5745" stroke="#111111"/>
</svg>
