<svg width="24" height="24" viewBox="0 0 24 24" fill="none" xmlns="http://www.w3.org/2000/svg">
<g clip-path="url(#clip0_21067_31764)">
<path d="M8.2513 22.0026C10.0449 22.0026 11.5007 20.5093 11.5007 18.6693V15.3359H8.2513C6.45766 15.3359 5.00195 16.8293 5.00195 18.6693C5.00195 20.5093 6.45766 22.0026 8.2513 22.0026Z" fill="#5CCB89"/>
<path d="M5.00195 11.9974C5.00195 10.1574 6.45766 8.66406 8.2513 8.66406H11.5007V15.3307H8.2513C6.45766 15.3307 5.00195 13.8374 5.00195 11.9974Z" fill="#9861F6"/>
<path d="M5.00195 5.33333C5.00195 3.49333 6.45766 2 8.2513 2H11.5007V8.66667H8.2513C6.45766 8.66667 5.00195 7.17333 5.00195 5.33333Z" fill="#E15A32"/>
<path d="M11.5 2H14.7494C16.543 2 17.9987 3.49333 17.9987 5.33333C17.9987 7.17333 16.543 8.66667 14.7494 8.66667H11.5V2Z" fill="#EF7A69"/>
<path d="M17.9987 11.9974C17.9987 13.8374 16.543 15.3307 14.7494 15.3307C12.9557 15.3307 11.5 13.8374 11.5 11.9974C11.5 10.1574 12.9557 8.66406 14.7494 8.66406C16.543 8.66406 17.9987 10.1574 17.9987 11.9974Z" fill="#54BAF8"/>
</g>
<defs>
<clipPath id="clip0_21067_31764">
<rect width="13" height="20" fill="white" transform="translate(5 2)"/>
</clipPath>
</defs>
</svg>
