<svg width="44" height="44" viewBox="0 0 44 44" fill="none" xmlns="http://www.w3.org/2000/svg">
<path d="M22 0C9.85233 0 0 10.0995 0 22.5562C0 32.5222 6.303 40.977 15.0462 43.9601C16.1443 44.1687 16.5 43.4695 16.5 42.8755V38.6763C10.3803 40.041 9.10617 36.0147 9.10617 36.0147C8.10517 33.4076 6.66233 32.714 6.66233 32.714C4.66583 31.3136 6.8145 31.3437 6.8145 31.3437C9.02367 31.5016 10.186 33.6688 10.186 33.6688C12.1477 37.1162 15.3322 36.1199 16.588 35.5429C16.7842 34.0861 17.3543 33.0899 17.985 32.5279C13.0992 31.9546 7.96217 30.0204 7.96217 21.3795C7.96217 18.9152 8.822 16.904 10.2282 15.325C10.0008 14.7555 9.24733 12.4604 10.4427 9.35517C10.4427 9.35517 12.2907 8.74991 16.4945 11.6672C18.249 11.1672 20.13 10.9172 22 10.9078C23.87 10.9172 25.7528 11.1672 27.511 11.6672C31.7112 8.74991 33.5555 9.35517 33.5555 9.35517C34.7527 12.4623 33.9992 14.7574 33.7718 15.325C35.1835 16.904 36.036 18.9171 36.036 21.3795C36.036 30.0429 30.8898 31.9508 25.9912 32.5091C26.7795 33.2083 27.5 34.5805 27.5 36.6857V42.8755C27.5 43.4751 27.852 44.18 28.9685 43.9582C37.7043 40.9714 44 32.5185 44 22.5562C44 10.0995 34.1495 0 22 0Z" fill="url(#paint0_linear_6107_2500)"/>
<defs>
<linearGradient id="paint0_linear_6107_2500" x1="22" y1="0" x2="22" y2="44" gradientUnits="userSpaceOnUse">
<stop stop-color="#0000CD"/>
<stop offset="0.215" stop-color="#800080"/>
<stop offset="0.4" stop-color="#EE82EE"/>
<stop offset="0.585" stop-color="#FF4500"/>
<stop offset="0.745" stop-color="#FFD700"/>
<stop offset="0.94" stop-color="#006400"/>
</linearGradient>
</defs>
</svg>
