<svg width="165" height="180" viewBox="0 0 165 180" fill="none" xmlns="http://www.w3.org/2000/svg">
<path fill-rule="evenodd" clip-rule="evenodd" d="M12.2399 0.619629H164.905V168.497L152.502 179.737H0.619141V13.4025L12.2399 0.619629ZM12.0279 1.98358V23.6704L1.37972 35.3833V13.6965L12.0279 1.98358ZM1.37972 36.514V131.977L12.0279 120.264V24.801L1.37972 36.514ZM12.0279 121.395L1.37972 133.108V178.46L12.0279 168.167V121.395ZM12.5619 168.708L1.94 178.976H152.209L163.539 168.708H12.5619ZM164.144 167.948H12.7885V1.38021H164.144V167.948Z" fill="#111111"/>
<path fill-rule="evenodd" clip-rule="evenodd" d="M12.4082 120.031H164.525V120.792H12.4082V120.031Z" fill="#111111"/>
<path fill-rule="evenodd" clip-rule="evenodd" d="M12.4082 23.437H164.525V24.1976H12.4082V23.437Z" fill="#111111"/>
<path fill-rule="evenodd" clip-rule="evenodd" d="M23.8185 15.4507C25.4988 15.4507 26.8609 14.0886 26.8609 12.4084C26.8609 10.7281 25.4988 9.36605 23.8185 9.36605C22.1383 9.36605 20.7762 10.7281 20.7762 12.4084C20.7762 14.0886 22.1383 15.4507 23.8185 15.4507ZM23.8185 16.2113C25.9188 16.2113 27.6214 14.5087 27.6214 12.4084C27.6214 10.3081 25.9188 8.60547 23.8185 8.60547C21.7182 8.60547 20.0156 10.3081 20.0156 12.4084C20.0156 14.5087 21.7182 16.2113 23.8185 16.2113Z" fill="#111111"/>
<path fill-rule="evenodd" clip-rule="evenodd" d="M35.2267 15.4507C36.907 15.4507 38.2691 14.0886 38.2691 12.4084C38.2691 10.7281 36.907 9.36605 35.2267 9.36605C33.5465 9.36605 32.1844 10.7281 32.1844 12.4084C32.1844 14.0886 33.5465 15.4507 35.2267 15.4507ZM35.2267 16.2113C37.327 16.2113 39.0296 14.5087 39.0296 12.4084C39.0296 10.3081 37.327 8.60547 35.2267 8.60547C33.1264 8.60547 31.4238 10.3081 31.4238 12.4084C31.4238 14.5087 33.1264 16.2113 35.2267 16.2113Z" fill="#111111"/>
<path fill-rule="evenodd" clip-rule="evenodd" d="M46.6369 15.4507C48.3171 15.4507 49.6792 14.0886 49.6792 12.4084C49.6792 10.7281 48.3171 9.36605 46.6369 9.36605C44.9567 9.36605 43.5946 10.7281 43.5946 12.4084C43.5946 14.0886 44.9567 15.4507 46.6369 15.4507ZM46.6369 16.2113C48.7372 16.2113 50.4398 14.5087 50.4398 12.4084C50.4398 10.3081 48.7372 8.60547 46.6369 8.60547C44.5366 8.60547 42.834 10.3081 42.834 12.4084C42.834 14.5087 44.5366 16.2113 46.6369 16.2113Z" fill="#111111"/>
<path fill-rule="evenodd" clip-rule="evenodd" d="M149.045 15.9427L156.651 8.33691L157.189 8.87473L149.583 16.4805L149.045 15.9427Z" fill="#111111"/>
<path fill-rule="evenodd" clip-rule="evenodd" d="M156.651 16.4805L149.045 8.87473L149.583 8.33691L157.189 15.9427L156.651 16.4805Z" fill="#111111"/>
<path fill-rule="evenodd" clip-rule="evenodd" d="M72.3145 102.799L92.6746 41.1919L93.3967 41.4306L73.0366 103.038L72.3145 102.799Z" fill="#111111"/>
<path fill-rule="evenodd" clip-rule="evenodd" d="M67.1941 53.2397L51.4681 72.4907L67.1941 91.75L67.7832 91.2689L52.4501 72.4908L67.7832 53.7209L67.1941 53.2397Z" fill="#111111"/>
<path fill-rule="evenodd" clip-rule="evenodd" d="M98.3306 53.2397L97.7415 53.7209L113.075 72.4908L97.7415 91.2689L98.3306 91.75L114.057 72.4907L98.3306 53.2397Z" fill="#111111"/>
<path d="M25.3262 154.157V136.755H26.5918V144.373H36.814V136.755H38.0796V154.157H36.814V145.444H26.5918V154.157H25.3262Z" fill="#111111"/>
<path d="M40.013 137.899V136.755H53.1559V137.899H47.2172V154.157H45.9516V137.899H40.013Z" fill="#111111"/>
<path d="M55.0839 154.157V136.755H56.9093L63.1644 152.429H63.213L69.2734 136.755H71.1718V154.157H69.9305V138.435H69.8818C69.5735 139.36 69.2815 140.179 69.0056 140.893L63.7972 154.157H62.5316L57.2257 140.893L56.3496 138.435H56.3009V154.157H55.0839Z" fill="#111111"/>
<path d="M74.1936 154.157V136.755H75.4592V152.989H84.8295V154.157H74.1936Z" fill="#111111"/>
</svg>
