<svg width="217" height="236" viewBox="0 0 217 236" fill="none" xmlns="http://www.w3.org/2000/svg">
<path fill-rule="evenodd" clip-rule="evenodd" d="M15.7788 0.5H216.5V221.222L200.193 236H0.5V17.3067L15.7788 0.5ZM15.5 2.2933V30.8067L1.5 46.2067V17.6933L15.5 2.2933ZM1.5 47.6933V173.207L15.5 157.807V32.2933L1.5 47.6933ZM15.5 159.293L1.5 174.693V234.321L15.5 220.788V159.293ZM16.2022 221.5L2.23665 235H199.807L214.704 221.5H16.2022ZM215.5 220.5H16.5V1.5H215.5V220.5Z" fill="#111111"/>
<path fill-rule="evenodd" clip-rule="evenodd" d="M16 157.5H216V158.5H16V157.5Z" fill="#111111"/>
<path fill-rule="evenodd" clip-rule="evenodd" d="M16 30.5H216V31.5H16V30.5Z" fill="#111111"/>
<path fill-rule="evenodd" clip-rule="evenodd" d="M31 20C33.2092 20 35 18.2091 35 16C35 13.7909 33.2092 12 31 12C28.7909 12 27 13.7909 27 16C27 18.2091 28.7909 20 31 20ZM31 21C33.7615 21 36 18.7614 36 16C36 13.2386 33.7615 11 31 11C28.2386 11 26 13.2386 26 16C26 18.7614 28.2386 21 31 21Z" fill="#111111"/>
<path fill-rule="evenodd" clip-rule="evenodd" d="M46 20C48.2092 20 50 18.2091 50 16C50 13.7909 48.2092 12 46 12C43.7909 12 42 13.7909 42 16C42 18.2091 43.7909 20 46 20ZM46 21C48.7615 21 51 18.7614 51 16C51 13.2386 48.7615 11 46 11C43.2386 11 41 13.2386 41 16C41 18.7614 43.2386 21 46 21Z" fill="#111111"/>
<path fill-rule="evenodd" clip-rule="evenodd" d="M61 20C63.2092 20 65 18.2091 65 16C65 13.7909 63.2092 12 61 12C58.7909 12 57 13.7909 57 16C57 18.2091 58.7909 20 61 20ZM61 21C63.7615 21 66 18.7614 66 16C66 13.2386 63.7615 11 61 11C58.2386 11 56 13.2386 56 16C56 18.7614 58.2386 21 61 21Z" fill="#111111"/>
<path fill-rule="evenodd" clip-rule="evenodd" d="M195.646 20.6464L205.646 10.6464L206.354 11.3536L196.354 21.3536L195.646 20.6464Z" fill="#111111"/>
<path fill-rule="evenodd" clip-rule="evenodd" d="M205.646 21.3536L195.646 11.3536L196.354 10.6464L206.354 20.6464L205.646 21.3536Z" fill="#111111"/>
<path fill-rule="evenodd" clip-rule="evenodd" d="M94.7617 134.843L121.531 53.8433L122.48 54.1571L95.7112 135.157L94.7617 134.843Z" fill="#111111"/>
<path fill-rule="evenodd" clip-rule="evenodd" d="M88.0302 69.6836L67.3538 94.9944L88.0301 120.316L88.8047 119.684L68.645 94.9946L88.8046 70.3162L88.0302 69.6836Z" fill="#111111"/>
<path fill-rule="evenodd" clip-rule="evenodd" d="M128.968 69.6836L128.194 70.3162L148.353 94.9946L128.194 119.684L128.968 120.316L149.645 94.9944L128.968 69.6836Z" fill="#111111"/>
<path d="M32.9844 202.369V179.489H34.6484V189.505H48.0884V179.489H49.7524V202.369H48.0884V190.913H34.6484V202.369H32.9844Z" fill="#111111"/>
<path d="M52.2944 180.993V179.489H69.5744V180.993H61.7664V202.369H60.1024V180.993H52.2944Z" fill="#111111"/>
<path d="M72.1094 202.369V179.489H74.5094L82.7334 200.097H82.7974L90.7654 179.489H93.2614V202.369H91.6294V181.697H91.5654C91.16 182.913 90.776 183.99 90.4134 184.929L83.5654 202.369H81.9014L74.9254 184.929L73.7734 181.697H73.7094V202.369H72.1094Z" fill="#111111"/>
<path d="M97.2344 202.369V179.489H98.8984V200.833H111.218V202.369H97.2344Z" fill="#111111"/>
</svg>
