<svg width="166" height="184" viewBox="0 0 166 184" fill="none" xmlns="http://www.w3.org/2000/svg">
<path d="M98.8197 41.9023L79.2188 101.902" stroke="white" stroke-miterlimit="10"/>
<path d="M71.3477 92.1523L56.5201 73.3983L71.3477 54.6523" stroke="white" stroke-miterlimit="10"/>
<path d="M106.692 54.6523L121.52 73.3983L106.692 92.1523" stroke="white" stroke-miterlimit="10"/>
<path d="M78.6758 152.281V135.121H79.9238V151.129H89.1638V152.281H78.6758Z" fill="white"/>
<path d="M59.832 152.281V135.121H61.632L67.8 150.577H67.848L73.824 135.121H75.696V152.281H74.472V136.777H74.424C74.12 137.689 73.832 138.497 73.56 139.201L68.424 152.281H67.176L61.944 139.201L61.08 136.777H61.032V152.281H59.832Z" fill="white"/>
<path d="M44.9707 136.249V135.121H57.9307V136.249H52.0747V152.281H50.8267V136.249H44.9707Z" fill="white"/>
<path d="M30.4883 152.281V135.121H31.7363V142.633H41.8163V135.121H43.0643V152.281H41.8163V143.689H31.7363V152.281H30.4883Z" fill="white"/>
<path d="M36.0349 13.7872C36.0349 15.6052 34.5695 17.0745 32.7674 17.0745C30.9654 17.0745 29.5 15.6052 29.5 13.7872C29.5 11.9693 30.9654 10.5 32.7674 10.5C34.5695 10.5 36.0349 11.9693 36.0349 13.7872Z" stroke="white"/>
<path d="M47.3376 13.7872C47.3376 15.6052 45.8723 17.0745 44.0702 17.0745C42.2681 17.0745 40.8027 15.6052 40.8027 13.7872C40.8027 11.9693 42.2681 10.5 44.0702 10.5C45.8723 10.5 47.3376 11.9693 47.3376 13.7872Z" stroke="white"/>
<path d="M58.6404 13.7872C58.6404 15.6052 57.175 17.0745 55.3729 17.0745C53.5708 17.0745 52.1055 15.6052 52.1055 13.7872C52.1055 11.9693 53.5708 10.5 55.3729 10.5C57.175 10.5 58.6404 11.9693 58.6404 13.7872Z" stroke="white"/>
<path d="M152.465 10L144.93 17.5745" stroke="white"/>
<path d="M144.93 10L152.465 17.5745" stroke="white"/>
<path d="M26.6882 167.29H148.171L157.171 167.313C159.423 167.313 161.733 166.687 163.255 165M26.6882 167.29L13.6968 181M26.6882 167.29C25.9464 167.29 23.2163 167.289 22.5009 167.281C20.5009 167.281 14.3374 167 14.3374 157.011V120M15.5009 4.5L3.50041 17.2509C2.13826 18.6983 1.36363 20.6008 1.32741 22.588L1.00095 40.5M1.00095 168.721L14.3374 154.45M1.00095 168.721V135.5M1.00095 168.721C1.00095 169.154 0.99971 171.581 0.998061 172C0.998061 175 2 181 9.3517 181H147.843C150.447 181 152.888 179.733 154.386 177.604L163.255 165M165.001 25.5V9.57288C165.001 4 162.001 1 156.171 1H22.1672C18.0009 1 14.3374 4 14.3374 8.57288V25.5M165.001 25.5H14.3374M165.001 25.5V120M14.3374 25.5L1.00095 40.5M14.3374 25.5V120M1.00095 40.5V135.5M165.001 120V159.74C165.001 162.114 164.321 163.818 163.255 165M165.001 120H14.3374M14.3374 120L1.00095 135.5" stroke="white" stroke-miterlimit="10"/>
</svg>
