<svg width="166" height="180" viewBox="0 0 166 180" fill="none" xmlns="http://www.w3.org/2000/svg">
<path fill-rule="evenodd" clip-rule="evenodd" d="M12.3571 0.619629H165.022V168.497L152.619 179.737H0.736328V13.4025L12.3571 0.619629ZM12.1451 1.98358V23.6704L1.49691 35.3833V13.6965L12.1451 1.98358ZM1.49691 36.514V131.977L12.1451 120.264V24.801L1.49691 36.514ZM12.1451 121.395L1.49691 133.108V178.46L12.1451 168.167V121.395ZM12.6791 168.708L2.05719 178.976H152.326L163.656 168.708H12.6791ZM164.261 167.948H12.9056V1.38021H164.261V167.948Z" fill="#111111"/>
<path fill-rule="evenodd" clip-rule="evenodd" d="M12.5254 120.031H164.642V120.792H12.5254V120.031Z" fill="#111111"/>
<path fill-rule="evenodd" clip-rule="evenodd" d="M12.5254 23.437H164.642V24.1976H12.5254V23.437Z" fill="#111111"/>
<path fill-rule="evenodd" clip-rule="evenodd" d="M23.9357 15.4507C25.616 15.4507 26.9781 14.0886 26.9781 12.4084C26.9781 10.7281 25.616 9.36605 23.9357 9.36605C22.2555 9.36605 20.8934 10.7281 20.8934 12.4084C20.8934 14.0886 22.2555 15.4507 23.9357 15.4507ZM23.9357 16.2113C26.036 16.2113 27.7386 14.5087 27.7386 12.4084C27.7386 10.3081 26.036 8.60547 23.9357 8.60547C21.8354 8.60547 20.1328 10.3081 20.1328 12.4084C20.1328 14.5087 21.8354 16.2113 23.9357 16.2113Z" fill="#111111"/>
<path fill-rule="evenodd" clip-rule="evenodd" d="M35.3439 15.4507C37.0242 15.4507 38.3863 14.0886 38.3863 12.4084C38.3863 10.7281 37.0242 9.36605 35.3439 9.36605C33.6637 9.36605 32.3016 10.7281 32.3016 12.4084C32.3016 14.0886 33.6637 15.4507 35.3439 15.4507ZM35.3439 16.2113C37.4442 16.2113 39.1468 14.5087 39.1468 12.4084C39.1468 10.3081 37.4442 8.60547 35.3439 8.60547C33.2436 8.60547 31.541 10.3081 31.541 12.4084C31.541 14.5087 33.2436 16.2113 35.3439 16.2113Z" fill="#111111"/>
<path fill-rule="evenodd" clip-rule="evenodd" d="M46.7541 15.4507C48.4343 15.4507 49.7964 14.0886 49.7964 12.4084C49.7964 10.7281 48.4343 9.36605 46.7541 9.36605C45.0739 9.36605 43.7118 10.7281 43.7118 12.4084C43.7118 14.0886 45.0739 15.4507 46.7541 15.4507ZM46.7541 16.2113C48.8544 16.2113 50.557 14.5087 50.557 12.4084C50.557 10.3081 48.8544 8.60547 46.7541 8.60547C44.6538 8.60547 42.9512 10.3081 42.9512 12.4084C42.9512 14.5087 44.6538 16.2113 46.7541 16.2113Z" fill="#111111"/>
<path fill-rule="evenodd" clip-rule="evenodd" d="M149.162 15.9427L156.768 8.33691L157.306 8.87473L149.7 16.4805L149.162 15.9427Z" fill="#111111"/>
<path fill-rule="evenodd" clip-rule="evenodd" d="M156.768 16.4805L149.162 8.87473L149.7 8.33691L157.306 15.9427L156.768 16.4805Z" fill="#111111"/>
<path fill-rule="evenodd" clip-rule="evenodd" d="M82.621 41.4112C82.6211 41.4112 82.6212 41.4112 82.5013 41.7721L82.3815 42.133L82.3805 42.1327L82.3766 42.1314L82.3601 42.126C82.3451 42.1212 82.3226 42.1139 82.2927 42.1045C82.2331 42.0856 82.1443 42.058 82.0297 42.0237C81.8005 41.9551 81.4678 41.8598 81.0571 41.7537C80.2347 41.5414 79.1029 41.2872 77.862 41.1179C76.6193 40.9484 75.2792 40.8658 74.0367 40.9906C72.7904 41.1159 71.6755 41.4465 70.8518 42.0745C68.6407 43.7587 67.9515 46.4169 67.7748 49.7498C67.6951 51.2515 67.7202 52.8651 67.7466 54.5632C67.7494 54.7448 67.7523 54.9273 67.755 55.1108C67.7831 57.0042 67.7991 58.9896 67.6589 60.9975C67.2921 66.2878 64.8438 68.9831 62.4498 70.3366C61.6148 70.8088 60.7924 71.1145 60.0776 71.3126C60.7931 71.5193 61.6166 71.8352 62.4528 72.3179C64.8445 73.6988 67.2921 76.4202 67.6589 81.7101C67.7991 83.718 67.7831 85.7034 67.755 87.5968C67.7523 87.7802 67.7494 87.9628 67.7466 88.1443C67.7202 89.8424 67.6951 91.4561 67.7748 92.9578C67.9515 96.2906 68.6405 98.9487 70.8517 100.633C71.6754 101.261 72.7904 101.592 74.0367 101.717C75.2792 101.842 76.6193 101.759 77.862 101.59C79.1029 101.42 80.2347 101.166 81.0571 100.954C81.4678 100.848 81.8005 100.752 82.0297 100.684C82.1443 100.65 82.2331 100.622 82.2927 100.603C82.3226 100.594 82.3451 100.586 82.3601 100.582L82.3766 100.576L82.3813 100.575L82.5013 100.935C82.6212 101.296 82.6211 101.296 82.621 101.296L82.6191 101.297L82.614 101.299L82.5949 101.305C82.5783 101.31 82.5539 101.318 82.5223 101.328C82.459 101.348 82.3664 101.377 82.2478 101.413C82.0104 101.484 81.6684 101.582 81.2472 101.69C80.4054 101.908 79.2433 102.169 77.9648 102.343C76.6882 102.517 75.2837 102.607 73.9606 102.474C72.6414 102.341 71.3698 101.984 70.3907 101.238C67.8985 99.3396 67.1946 96.3788 67.0153 92.9981C66.9342 91.4686 66.9597 89.828 66.9861 88.1353C66.9889 87.9526 66.9918 87.7693 66.9945 87.5855C67.0226 85.6925 67.0379 83.7356 66.9002 81.763C66.5513 76.7315 64.2504 74.234 62.0725 72.9766C60.9738 72.3423 59.8945 72.0171 59.0889 71.8509C58.6866 71.7679 58.3544 71.725 58.1246 71.7027C58.0097 71.6917 57.9206 71.6858 57.8614 71.6827C57.8317 71.6811 57.8096 71.6803 57.7954 71.6798L57.7802 71.6794L57.7774 71.6793C57.7774 71.6793 57.7772 71.6793 57.7775 71.6568L57.782 70.9413C57.7819 70.9188 57.7818 70.9188 57.7818 70.9188L57.7849 70.9188L57.8001 70.9185C57.8143 70.9182 57.8365 70.9177 57.8661 70.9165C57.9253 70.9141 58.0144 70.9094 58.1292 70.8997C58.359 70.8803 58.6912 70.8415 59.0933 70.7634C59.8987 70.6072 60.9775 70.2953 62.0755 69.6746C64.2511 68.4445 66.5513 65.9758 66.9002 60.9447C67.0379 58.9721 67.0226 57.0151 66.9945 55.1221C66.9918 54.9383 66.9889 54.755 66.9861 54.5723C66.9597 52.8796 66.9342 51.2389 67.0153 49.7095C67.1946 46.3287 67.8986 43.3679 70.3908 41.4696C71.3699 40.7231 72.6415 40.3664 73.9606 40.2339C75.2837 40.101 76.6882 40.1902 77.9648 40.3643C79.2433 40.5387 80.4054 40.8 81.2472 41.0173C81.6684 41.126 82.0104 41.224 82.2478 41.295C82.3664 41.3305 82.459 41.3593 82.5223 41.3794C82.5539 41.3894 82.5783 41.3972 82.5949 41.4026L82.614 41.4088L82.6191 41.4105L82.621 41.4112Z" fill="#111111"/>
<path fill-rule="evenodd" clip-rule="evenodd" d="M94.5509 41.4112C94.5507 41.4112 94.5506 41.4112 94.6705 41.7721L94.7904 42.133L94.7914 42.1327L94.7952 42.1314L94.8118 42.126C94.8267 42.1212 94.8493 42.1139 94.8791 42.1045C94.9388 42.0856 95.0275 42.058 95.1421 42.0237C95.3714 41.9551 95.704 41.8598 96.1148 41.7537C96.9371 41.5414 98.069 41.2872 99.3099 41.1179C100.553 40.9484 101.893 40.8658 103.135 40.9906C104.381 41.1159 105.496 41.4465 106.32 42.0745C108.531 43.7587 109.22 46.4169 109.397 49.7498C109.477 51.2515 109.452 52.8651 109.425 54.5632C109.422 54.7448 109.42 54.9273 109.417 55.1108C109.389 57.0042 109.373 58.9896 109.513 60.9975C109.88 66.2878 112.328 68.9831 114.722 70.3366C115.557 70.8088 116.379 71.1145 117.094 71.3126C116.379 71.5193 115.555 71.8352 114.719 72.3179C112.327 73.6988 109.88 76.4202 109.513 81.7101C109.373 83.718 109.389 85.7034 109.417 87.5968C109.42 87.7802 109.422 87.9628 109.425 88.1443C109.452 89.8424 109.477 91.4561 109.397 92.9578C109.22 96.2906 108.531 98.9487 106.32 100.633C105.497 101.261 104.381 101.592 103.135 101.717C101.893 101.842 100.553 101.759 99.3099 101.59C98.069 101.42 96.9371 101.166 96.1148 100.954C95.704 100.848 95.3714 100.752 95.1421 100.684C95.0275 100.65 94.9388 100.622 94.8791 100.603C94.8493 100.594 94.8267 100.586 94.8118 100.582L94.7952 100.576L94.7905 100.575L94.6705 100.935C94.5506 101.296 94.5507 101.296 94.5509 101.296L94.5528 101.297L94.5579 101.299L94.577 101.305C94.5936 101.31 94.6179 101.318 94.6496 101.328C94.7129 101.348 94.8054 101.377 94.9241 101.413C95.1614 101.484 95.5034 101.582 95.9247 101.69C96.7665 101.908 97.9286 102.169 99.2071 102.343C100.484 102.517 101.888 102.607 103.211 102.474C104.53 102.341 105.802 101.984 106.781 101.238C109.273 99.3396 109.977 96.3788 110.157 92.9981C110.238 91.4686 110.212 89.828 110.186 88.1353C110.183 87.9526 110.18 87.7693 110.177 87.5855C110.149 85.6925 110.134 83.7356 110.272 81.763C110.621 76.7315 112.921 74.234 115.099 72.9766C116.198 72.3423 117.277 72.0171 118.083 71.8509C118.485 71.7679 118.817 71.725 119.047 71.7027C119.162 71.6917 119.251 71.6858 119.311 71.6827C119.34 71.6811 119.362 71.6803 119.376 71.6798L119.392 71.6794L119.394 71.6793C119.394 71.6793 119.395 71.6793 119.394 71.6568L119.39 70.9413C119.39 70.9188 119.39 70.9188 119.39 70.9188L119.387 70.9188L119.372 70.9185C119.358 70.9182 119.335 70.9177 119.306 70.9165C119.247 70.9141 119.157 70.9094 119.043 70.8997C118.813 70.8803 118.481 70.8415 118.079 70.7634C117.273 70.6072 116.194 70.2953 115.096 69.6746C112.921 68.4445 110.621 65.9758 110.272 60.9447C110.134 58.9721 110.149 57.0151 110.177 55.1221C110.18 54.9383 110.183 54.755 110.186 54.5723C110.212 52.8796 110.238 51.2389 110.157 49.7095C109.977 46.3287 109.273 43.3679 106.781 41.4696C105.802 40.7231 104.53 40.3664 103.211 40.2339C101.888 40.101 100.484 40.1902 99.2071 40.3643C97.9286 40.5387 96.7665 40.8 95.9247 41.0173C95.5034 41.126 95.1614 41.224 94.9241 41.295C94.8054 41.3305 94.7129 41.3593 94.6496 41.3794C94.6179 41.3894 94.5936 41.3972 94.577 41.4026L94.5579 41.4088L94.5528 41.4105L94.5509 41.4112Z" fill="#111111"/>
<path fill-rule="evenodd" clip-rule="evenodd" d="M88.5096 59.1849C85.7713 59.1849 83.5516 61.4047 83.5516 64.1429C83.5516 66.8811 85.7713 69.1008 88.5096 69.1008C91.2478 69.1008 93.4675 66.8811 93.4675 64.1429C93.4675 61.4047 91.2478 59.1849 88.5096 59.1849ZM82.791 64.1429C82.791 60.9846 85.3513 58.4243 88.5096 58.4243C91.6678 58.4243 94.2281 60.9846 94.2281 64.1429C94.2281 67.3011 91.6678 69.8614 88.5096 69.8614C85.3513 69.8614 82.791 67.3011 82.791 64.1429Z" fill="#111111"/>
<path fill-rule="evenodd" clip-rule="evenodd" d="M79.9613 86.796L96.7818 71.027L97.302 71.5819L80.4815 87.3508L79.9613 86.796Z" fill="#111111"/>
<path d="M29.2635 154.474C27.722 154.474 26.5375 154.076 25.71 153.281C24.8825 152.486 24.4688 151.285 24.4688 149.679V148.754H25.71V149.63C25.71 150.945 26.0021 151.894 26.5862 152.478C27.1866 153.046 28.0871 153.33 29.2878 153.33C30.2938 153.33 31.0645 153.062 31.6 152.527C32.1516 151.975 32.4275 151.156 32.4275 150.069V136.755H33.6931V150.166C33.6931 151.431 33.3118 152.47 32.5492 153.281C31.8028 154.076 30.7076 154.474 29.2635 154.474Z" fill="#111111"/>
<path d="M42.4784 154.474C40.369 154.474 38.7302 153.938 37.562 152.867C36.41 151.797 35.7853 150.393 35.6879 148.657H36.9779C37.0428 150.117 37.562 151.269 38.5355 152.113C39.5253 152.94 40.8315 153.354 42.454 153.354C43.817 153.354 44.9366 153.005 45.8128 152.308C46.689 151.61 47.1271 150.661 47.1271 149.46C47.1271 148.243 46.7539 147.391 46.0075 146.904C45.2611 146.401 43.8089 145.947 41.6509 145.542C39.8498 145.217 38.5112 144.722 37.635 144.057C36.7588 143.392 36.3207 142.378 36.3207 141.015C36.3207 139.652 36.848 138.548 37.9027 137.704C38.9736 136.845 40.369 136.415 42.089 136.415C43.8089 136.415 45.1719 136.861 46.1779 137.753C47.2001 138.629 47.7761 139.798 47.9059 141.258H46.6403C46.5267 140.073 46.0562 139.157 45.2286 138.508C44.4011 137.859 43.3627 137.534 42.1133 137.534C40.7179 137.534 39.6145 137.859 38.8032 138.508C38.0082 139.14 37.6107 139.968 37.6107 140.99C37.6107 142.012 37.9595 142.767 38.6572 143.254C39.3712 143.724 40.6286 144.122 42.4297 144.446C43.2085 144.592 43.8576 144.738 44.3768 144.884C44.896 145.014 45.4315 145.209 45.9831 145.469C46.551 145.712 46.9973 145.996 47.3218 146.32C47.6463 146.645 47.914 147.067 48.1249 147.586C48.3359 148.089 48.4413 148.681 48.4413 149.363C48.4413 150.855 47.8897 152.081 46.7863 153.038C45.6992 153.995 44.2632 154.474 42.4784 154.474Z" fill="#111111"/>
</svg>
