<svg width="166" height="182" viewBox="0 0 166 182" fill="none" xmlns="http://www.w3.org/2000/svg">
<path d="M81.7326 45.19C81.7326 45.19 74.4578 42.5125 71.2877 45.19C67.1526 48.679 68.8384 56.1348 68.3497 63.8881C67.7206 73.9403 60 73.9467 60 73.9467C60 73.9467 67.7206 74.0597 68.3497 84.1119C68.8384 91.8652 67.1526 99.321 71.2877 102.81C74.4578 105.488 81.7326 102.81 81.7326 102.81" stroke="white" stroke-miterlimit="10"/>
<path d="M97.795 45.19C97.795 45.19 105.228 42.5125 108.467 45.19C112.692 48.679 110.969 56.1348 111.469 63.8881C112.112 73.9403 120 73.9467 120 73.9467C120 73.9467 112.112 74.0597 111.469 84.1119C110.969 91.8652 112.692 99.321 108.467 102.81C105.228 105.488 97.795 102.81 97.795 102.81" stroke="white" stroke-miterlimit="10"/>
<path d="M90.1575 70.1969C92.3156 70.1969 94.065 68.4481 94.065 66.2908C94.065 64.1336 92.3156 62.3848 90.1575 62.3848C87.9994 62.3848 86.25 64.1336 86.25 66.2908C86.25 68.4481 87.9994 70.1969 90.1575 70.1969Z" stroke="white" stroke-miterlimit="10"/>
<path d="M94.678 74.0588L86.2465 85.5972" stroke="white" stroke-miterlimit="10"/>
<path d="M47.2858 152.593C45.2058 152.593 43.5898 152.065 42.4378 151.009C41.3018 149.953 40.6858 148.569 40.5898 146.857H41.8618C41.9258 148.297 42.4378 149.433 43.3978 150.265C44.3738 151.081 45.6618 151.489 47.2618 151.489C48.6058 151.489 49.7098 151.145 50.5738 150.457C51.4378 149.769 51.8698 148.833 51.8698 147.649C51.8698 146.449 51.5018 145.609 50.7658 145.129C50.0298 144.633 48.5978 144.185 46.4698 143.785C44.6938 143.465 43.3738 142.977 42.5098 142.321C41.6458 141.665 41.2138 140.665 41.2138 139.321C41.2138 137.977 41.7338 136.889 42.7738 136.057C43.8298 135.209 45.2058 134.785 46.9018 134.785C48.5978 134.785 49.9418 135.225 50.9338 136.105C51.9418 136.969 52.5098 138.121 52.6378 139.561H51.3898C51.2778 138.393 50.8138 137.489 49.9978 136.849C49.1818 136.209 48.1578 135.889 46.9258 135.889C45.5498 135.889 44.4618 136.209 43.6618 136.849C42.8778 137.473 42.4858 138.289 42.4858 139.297C42.4858 140.305 42.8298 141.049 43.5178 141.529C44.2218 141.993 45.4618 142.385 47.2378 142.705C48.0058 142.849 48.6458 142.993 49.1578 143.137C49.6698 143.265 50.1978 143.457 50.7418 143.713C51.3018 143.953 51.7418 144.233 52.0618 144.553C52.3818 144.873 52.6458 145.289 52.8538 145.801C53.0618 146.297 53.1658 146.881 53.1658 147.553C53.1658 149.025 52.6218 150.233 51.5338 151.177C50.4618 152.121 49.0458 152.593 47.2858 152.593Z" fill="white"/>
<path d="M34.2553 152.593C32.7353 152.593 31.5673 152.201 30.7513 151.417C29.9353 150.633 29.5273 149.449 29.5273 147.865V146.953H30.7513V147.817C30.7513 149.113 31.0393 150.049 31.6153 150.625C32.2073 151.185 33.0953 151.465 34.2793 151.465C35.2713 151.465 36.0313 151.201 36.5593 150.673C37.1033 150.129 37.3753 149.321 37.3753 148.249V135.121H38.6233V148.345C38.6233 149.593 38.2473 150.617 37.4953 151.417C36.7593 152.201 35.6793 152.593 34.2553 152.593Z" fill="white"/>
<path d="M36.0349 13.7872C36.0349 15.6052 34.5695 17.0745 32.7674 17.0745C30.9654 17.0745 29.5 15.6052 29.5 13.7872C29.5 11.9693 30.9654 10.5 32.7674 10.5C34.5695 10.5 36.0349 11.9693 36.0349 13.7872Z" stroke="white"/>
<path d="M47.3376 13.7872C47.3376 15.6052 45.8723 17.0745 44.0702 17.0745C42.2681 17.0745 40.8027 15.6052 40.8027 13.7872C40.8027 11.9693 42.2681 10.5 44.0702 10.5C45.8723 10.5 47.3376 11.9693 47.3376 13.7872Z" stroke="white"/>
<path d="M58.6404 13.7872C58.6404 15.6052 57.175 17.0745 55.3729 17.0745C53.5708 17.0745 52.1055 15.6052 52.1055 13.7872C52.1055 11.9693 53.5708 10.5 55.3729 10.5C57.175 10.5 58.6404 11.9693 58.6404 13.7872Z" stroke="white"/>
<path d="M152.465 10L144.93 17.5745" stroke="white"/>
<path d="M144.93 10L152.465 17.5745" stroke="white"/>
<path d="M26.6882 167.29H148.171L157.171 167.313C159.423 167.313 161.733 166.687 163.255 165M26.6882 167.29L13.6968 181M26.6882 167.29C25.9464 167.29 23.2163 167.289 22.5009 167.281C20.5009 167.281 14.3374 167 14.3374 157.011V120M15.5009 4.5L3.50041 17.2509C2.13826 18.6983 1.36363 20.6008 1.32741 22.588L1.00095 40.5M1.00095 168.721L14.3374 154.45M1.00095 168.721V135.5M1.00095 168.721C1.00095 169.154 0.99971 171.581 0.998061 172C0.998061 175 2 181 9.3517 181H147.843C150.447 181 152.888 179.733 154.386 177.604L163.255 165M165.001 25.5V9.57288C165.001 4 162.001 1 156.171 1H22.1672C18.0009 1 14.3374 4 14.3374 8.57288V25.5M165.001 25.5H14.3374M165.001 25.5V120M14.3374 25.5L1.00095 40.5M14.3374 25.5V120M1.00095 40.5V135.5M165.001 120V159.74C165.001 162.114 164.321 163.818 163.255 165M165.001 120H14.3374M14.3374 120L1.00095 135.5" stroke="white" stroke-miterlimit="10"/>
</svg>
