<svg width="217" height="236" viewBox="0 0 217 236" fill="none" xmlns="http://www.w3.org/2000/svg">
<path fill-rule="evenodd" clip-rule="evenodd" d="M15.7788 0.5H216.5V221.222L200.193 236H0.5V17.3067L15.7788 0.5ZM15.5 2.2933V30.8067L1.5 46.2067V17.6933L15.5 2.2933ZM1.5 47.6933V173.207L15.5 157.807V32.2933L1.5 47.6933ZM15.5 159.293L1.5 174.693V234.321L15.5 220.788V159.293ZM16.2022 221.5L2.23665 235H199.807L214.704 221.5H16.2022ZM215.5 220.5H16.5V1.5H215.5V220.5Z" fill="#111111"/>
<path fill-rule="evenodd" clip-rule="evenodd" d="M16 157.5H216V158.5H16V157.5Z" fill="#111111"/>
<path fill-rule="evenodd" clip-rule="evenodd" d="M16 30.5H216V31.5H16V30.5Z" fill="#111111"/>
<path fill-rule="evenodd" clip-rule="evenodd" d="M31 20C33.2092 20 35 18.2091 35 16C35 13.7909 33.2092 12 31 12C28.7909 12 27 13.7909 27 16C27 18.2091 28.7909 20 31 20ZM31 21C33.7615 21 36 18.7614 36 16C36 13.2386 33.7615 11 31 11C28.2386 11 26 13.2386 26 16C26 18.7614 28.2386 21 31 21Z" fill="#111111"/>
<path fill-rule="evenodd" clip-rule="evenodd" d="M46 20C48.2092 20 50 18.2091 50 16C50 13.7909 48.2092 12 46 12C43.7909 12 42 13.7909 42 16C42 18.2091 43.7909 20 46 20ZM46 21C48.7615 21 51 18.7614 51 16C51 13.2386 48.7615 11 46 11C43.2386 11 41 13.2386 41 16C41 18.7614 43.2386 21 46 21Z" fill="#111111"/>
<path fill-rule="evenodd" clip-rule="evenodd" d="M61 20C63.2092 20 65 18.2091 65 16C65 13.7909 63.2092 12 61 12C58.7909 12 57 13.7909 57 16C57 18.2091 58.7909 20 61 20ZM61 21C63.7615 21 66 18.7614 66 16C66 13.2386 63.7615 11 61 11C58.2386 11 56 13.2386 56 16C56 18.7614 58.2386 21 61 21Z" fill="#111111"/>
<path fill-rule="evenodd" clip-rule="evenodd" d="M195.646 20.6464L205.646 10.6464L206.354 11.3536L196.354 21.3536L195.646 20.6464Z" fill="#111111"/>
<path fill-rule="evenodd" clip-rule="evenodd" d="M205.646 21.3536L195.646 11.3536L196.354 10.6464L206.354 20.6464L205.646 21.3536Z" fill="#111111"/>
<path fill-rule="evenodd" clip-rule="evenodd" d="M108.158 54.1319C108.158 54.1319 108.158 54.1321 108.001 54.6065L107.843 55.0811L107.842 55.0807L107.837 55.079L107.815 55.0719C107.795 55.0655 107.766 55.0559 107.727 55.0435C107.648 55.0187 107.531 54.9824 107.381 54.9373C107.079 54.8471 106.642 54.7218 106.102 54.5824C105.021 54.3033 103.533 53.969 101.901 53.7464C100.267 53.5235 98.5053 53.4149 96.8716 53.5791C95.233 53.7437 93.7672 54.1784 92.6842 55.0042C89.777 57.2185 88.871 60.7134 88.6386 65.0954C88.5339 67.0698 88.5669 69.1915 88.6015 71.4241C88.6053 71.6628 88.609 71.9028 88.6126 72.144C88.6495 74.6334 88.6705 77.2438 88.4862 79.8837C88.0039 86.8393 84.785 90.3831 81.6374 92.1627C80.5395 92.7834 79.4583 93.1854 78.5184 93.4458C79.4593 93.7177 80.542 94.1329 81.6413 94.7676C84.7859 96.5832 88.004 100.161 88.4862 107.116C88.6705 109.756 88.6495 112.367 88.6126 114.856C88.609 115.097 88.6053 115.337 88.6015 115.576C88.5669 117.809 88.5339 119.93 88.6386 121.905C88.871 126.287 89.7768 129.781 92.684 131.996C93.767 132.821 95.233 133.256 96.8716 133.421C98.5053 133.585 100.267 133.476 101.901 133.254C103.533 133.031 105.021 132.697 106.102 132.418C106.642 132.278 107.079 132.153 107.381 132.063C107.531 132.018 107.648 131.981 107.727 131.956C107.766 131.944 107.795 131.934 107.815 131.928L107.837 131.921L107.843 131.919L108.001 132.393C108.158 132.868 108.158 132.868 108.158 132.868L108.156 132.869L108.149 132.871L108.124 132.879C108.102 132.886 108.07 132.897 108.028 132.91C107.945 132.936 107.823 132.974 107.667 133.021C107.355 133.114 106.906 133.243 106.352 133.386C105.245 133.672 103.717 134.015 102.036 134.244C100.358 134.473 98.5112 134.591 96.7717 134.416C95.0371 134.242 93.3653 133.773 92.0779 132.791C88.8013 130.295 87.8757 126.402 87.64 121.958C87.5334 119.947 87.5669 117.79 87.6016 115.564C87.6053 115.324 87.6091 115.083 87.6127 114.841C87.6496 112.352 87.6697 109.779 87.4887 107.186C87.03 100.571 84.0048 97.2869 81.1413 95.6336C79.6968 94.7997 78.2777 94.3721 77.2185 94.1536C76.6897 94.0445 76.2528 93.988 75.9507 93.9588C75.7997 93.9442 75.6825 93.9365 75.6046 93.9324C75.5657 93.9304 75.5365 93.9293 75.5179 93.9287L75.4979 93.9281L75.4942 93.928C75.4942 93.928 75.4939 93.928 75.4944 93.8984L75.5002 92.9577C75.5001 92.9281 75.5 92.9281 75.5 92.9281L75.5041 92.928L75.5241 92.9277C75.5427 92.9274 75.5719 92.9266 75.6108 92.9251C75.6887 92.922 75.8058 92.9157 75.9568 92.903C76.2589 92.8775 76.6956 92.8264 77.2243 92.7238C78.2833 92.5184 79.7017 92.1084 81.1452 91.2922C84.0057 89.6749 87.03 86.4291 87.4886 79.8143C87.6697 77.2208 87.6496 74.6477 87.6127 72.1588C87.6091 71.9172 87.6053 71.6762 87.6016 71.436C87.5669 69.2104 87.5334 67.0533 87.64 65.0424C87.8757 60.5975 88.8014 56.7046 92.0781 54.2088C93.3655 53.2273 95.0372 52.7583 96.7717 52.5841C98.5112 52.4093 100.358 52.5266 102.036 52.7556C103.717 52.9849 105.245 53.3284 106.352 53.6141C106.906 53.7571 107.355 53.8859 107.667 53.9793C107.823 54.026 107.945 54.0638 108.028 54.0902C108.07 54.1033 108.102 54.1136 108.124 54.1207L108.149 54.1289L108.156 54.1311L108.158 54.1319Z" fill="#111111"/>
<path fill-rule="evenodd" clip-rule="evenodd" d="M123.844 54.1319C123.844 54.1319 123.843 54.1321 124.001 54.6065L124.159 55.0811L124.16 55.0807L124.165 55.079L124.187 55.0719C124.206 55.0655 124.236 55.0559 124.275 55.0435C124.354 55.0187 124.471 54.9824 124.621 54.9373C124.923 54.8471 125.36 54.7218 125.9 54.5824C126.981 54.3033 128.469 53.969 130.101 53.7464C131.735 53.5235 133.497 53.4149 135.13 53.5791C136.769 53.7437 138.235 54.1784 139.318 55.0042C142.225 57.2185 143.131 60.7134 143.363 65.0954C143.468 67.0698 143.435 69.1915 143.4 71.4241C143.397 71.6628 143.393 71.9028 143.389 72.144C143.352 74.6334 143.331 77.2438 143.516 79.8837C143.998 86.8393 147.217 90.3831 150.365 92.1627C151.462 92.7834 152.544 93.1854 153.484 93.4458C152.543 93.7177 151.46 94.1329 150.361 94.7676C147.216 96.5832 143.998 100.161 143.516 107.116C143.331 109.756 143.352 112.367 143.389 114.856C143.393 115.097 143.397 115.337 143.4 115.576C143.435 117.809 143.468 119.93 143.363 121.905C143.131 126.287 142.225 129.781 139.318 131.996C138.235 132.821 136.769 133.256 135.13 133.421C133.497 133.585 131.735 133.476 130.101 133.254C128.469 133.031 126.981 132.697 125.9 132.418C125.36 132.278 124.923 132.153 124.621 132.063C124.471 132.018 124.354 131.981 124.275 131.956C124.236 131.944 124.206 131.934 124.187 131.928L124.165 131.921L124.159 131.919L124.001 132.393C123.843 132.868 123.844 132.868 123.844 132.868L123.846 132.869L123.853 132.871L123.878 132.879C123.9 132.886 123.932 132.897 123.974 132.91C124.057 132.936 124.178 132.974 124.335 133.021C124.647 133.114 125.096 133.243 125.65 133.386C126.757 133.672 128.285 134.015 129.966 134.244C131.644 134.473 133.491 134.591 135.23 134.416C136.965 134.242 138.637 133.773 139.924 132.791C143.201 130.295 144.126 126.402 144.362 121.958C144.469 119.947 144.435 117.79 144.4 115.564C144.397 115.324 144.393 115.083 144.389 114.841C144.352 112.352 144.332 109.779 144.513 107.186C144.972 100.571 147.997 97.2869 150.861 95.6336C152.305 94.7997 153.724 94.3721 154.783 94.1536C155.312 94.0445 155.749 93.988 156.051 93.9588C156.202 93.9442 156.319 93.9365 156.397 93.9324C156.436 93.9304 156.465 93.9293 156.484 93.9287L156.504 93.9281L156.508 93.928C156.508 93.928 156.508 93.928 156.508 93.8984L156.502 92.9577C156.502 92.9281 156.502 92.9281 156.502 92.9281L156.498 92.928L156.478 92.9277C156.459 92.9274 156.43 92.9266 156.391 92.9251C156.313 92.922 156.196 92.9157 156.045 92.903C155.743 92.8775 155.306 92.8264 154.778 92.7238C153.719 92.5184 152.3 92.1084 150.857 91.2922C147.996 89.6749 144.972 86.4291 144.513 79.8143C144.332 77.2208 144.352 74.6477 144.389 72.1588C144.393 71.9172 144.397 71.6762 144.4 71.436C144.435 69.2104 144.469 67.0533 144.362 65.0424C144.126 60.5975 143.201 56.7046 139.924 54.2088C138.637 53.2273 136.965 52.7583 135.23 52.5841C133.491 52.4093 131.644 52.5266 129.966 52.7556C128.285 52.9849 126.757 53.3284 125.65 53.6141C125.096 53.7571 124.647 53.8859 124.335 53.9793C124.178 54.026 124.057 54.0638 123.974 54.0902C123.932 54.1033 123.9 54.1136 123.878 54.1207L123.853 54.1289L123.846 54.1311L123.844 54.1319Z" fill="#111111"/>
<path fill-rule="evenodd" clip-rule="evenodd" d="M115.901 77.5C112.301 77.5 109.383 80.4185 109.383 84.0186C109.383 87.6188 112.301 90.5373 115.901 90.5373C119.502 90.5373 122.42 87.6188 122.42 84.0186C122.42 80.4185 119.502 77.5 115.901 77.5ZM108.383 84.0186C108.383 79.8662 111.749 76.5 115.901 76.5C120.054 76.5 123.42 79.8662 123.42 84.0186C123.42 88.1711 120.054 91.5373 115.901 91.5373C111.749 91.5373 108.383 88.1711 108.383 84.0186Z" fill="#111111"/>
<path fill-rule="evenodd" clip-rule="evenodd" d="M104.66 113.802L126.775 93.0698L127.459 93.7993L105.344 114.532L104.66 113.802Z" fill="#111111"/>
<path d="M38.0071 202.785C35.9805 202.785 34.4231 202.262 33.3351 201.217C32.2471 200.171 31.7031 198.593 31.7031 196.481V195.265H33.3351V196.417C33.3351 198.145 33.7191 199.393 34.4871 200.161C35.2765 200.907 36.4605 201.281 38.0391 201.281C39.3618 201.281 40.3751 200.929 41.0791 200.225C41.8045 199.499 42.1671 198.422 42.1671 196.993V179.489H43.8311V197.121C43.8311 198.785 43.3298 200.15 42.3271 201.217C41.3458 202.262 39.9058 202.785 38.0071 202.785Z" fill="#111111"/>
<path d="M55.3819 202.785C52.6085 202.785 50.4539 202.081 48.9179 200.673C47.4032 199.265 46.5819 197.419 46.4539 195.137H48.1499C48.2352 197.057 48.9179 198.571 50.1979 199.681C51.4992 200.769 53.2165 201.313 55.3499 201.313C57.1419 201.313 58.6139 200.854 59.7659 199.937C60.9179 199.019 61.4939 197.771 61.4939 196.193C61.4939 194.593 61.0032 193.473 60.0219 192.833C59.0405 192.171 57.1312 191.574 54.2939 191.041C51.9259 190.614 50.1659 189.963 49.0139 189.089C47.8619 188.214 47.2859 186.881 47.2859 185.089C47.2859 183.297 47.9792 181.846 49.3659 180.737C50.7739 179.606 52.6085 179.041 54.8699 179.041C57.1312 179.041 58.9232 179.627 60.2459 180.801C61.5899 181.953 62.3472 183.489 62.5179 185.409H60.8539C60.7045 183.851 60.0859 182.646 58.9979 181.793C57.9099 180.939 56.5445 180.513 54.9019 180.513C53.0672 180.513 51.6165 180.939 50.5499 181.793C49.5045 182.625 48.9819 183.713 48.9819 185.057C48.9819 186.401 49.4405 187.393 50.3579 188.033C51.2965 188.651 52.9499 189.174 55.3179 189.601C56.3419 189.793 57.1952 189.985 57.8779 190.177C58.5605 190.347 59.2645 190.603 59.9899 190.945C60.7365 191.265 61.3232 191.638 61.7499 192.065C62.1765 192.491 62.5285 193.046 62.8059 193.729C63.0832 194.39 63.2219 195.169 63.2219 196.065C63.2219 198.027 62.4965 199.638 61.0459 200.897C59.6165 202.155 57.7285 202.785 55.3819 202.785Z" fill="#111111"/>
</svg>
