<svg width="79" height="79" viewBox="0 0 79 79" fill="none" xmlns="http://www.w3.org/2000/svg">
<g clip-path="url(#clip0_251_826)">
<path d="M11.4909 2.05C11.0309 2.42 10.6309 2.85 10.2809 3.34C9.45094 4.48 8.96094 5.88 8.96094 7.41V62.24C8.96094 66.45 12.3409 69.86 16.5109 69.86H71.6609C73.7009 69.87 75.5409 68.96 76.7909 67.52C77.8609 66.31 78.5009 64.7 78.5009 62.96V7.41C78.5009 3.59 75.4409 0.5 71.6609 0.5H15.8109C14.1809 0.5 12.6709 1.08 11.5009 2.04" stroke="#111111"/>
<path d="M16.5102 69.8594L7.76023 78.4794L7.74023 78.4994" stroke="#111111"/>
<path d="M11.5 2.03906H11.49L10.28 3.33906L2.81 11.2891C2.03 12.1291 1.36 13.0891 0.97 14.1591C0.85 14.4891 0.75 14.8191 0.69 15.1691C0.55 15.8291 0.5 16.4991 0.5 17.1691V70.8791" stroke="#111111"/>
<path d="M0.5 70.8795C0.5 74.9895 3.72 78.3395 7.76 78.4795C7.85 78.4995 7.95 78.4995 8.05 78.4995H65.11C67.24 78.4995 69.26 77.5795 70.67 75.9895L76.79 67.5195L77.51 66.5195" stroke="#111111"/>
<path d="M0.5 70.88L8.96 62" stroke="#111111"/>
<path d="M46.3496 31H47.7668V39.3548C47.7668 40.0989 47.6296 40.7331 47.3552 41.2538C47.097 41.7583 46.6927 42.1727 46.1944 42.4412C45.6961 42.7115 45.1076 42.8466 44.4287 42.8466C43.7878 42.8466 43.2173 42.7295 42.719 42.4989C42.2406 42.2808 41.8326 41.9313 41.542 41.4935C41.2477 41.0322 41.0978 40.4935 41.1123 39.9476H42.5078C42.5078 40.2791 42.5891 40.5674 42.7533 40.8142C42.9267 41.0628 43.1632 41.2592 43.4394 41.3854C43.7283 41.5223 44.0586 41.5908 44.4287 41.5908C44.8367 41.5908 45.1834 41.5061 45.4686 41.3349C45.7593 41.1583 45.9885 40.8935 46.1203 40.58C46.2738 40.2466 46.3496 39.8376 46.3496 39.3548V31Z" fill="#111111"/>
</g>
<defs>
<clipPath id="clip0_251_826">
<rect width="79" height="79" fill="white"/>
</clipPath>
</defs>
</svg>
