<svg width="79" height="79" viewBox="0 0 79 79" fill="none" xmlns="http://www.w3.org/2000/svg">
<g clip-path="url(#clip0_251_871)">
<path d="M76.7909 67.52C75.5409 68.96 73.7009 69.87 71.6609 69.87L16.5109 69.86C12.3409 69.86 8.96094 66.45 8.96094 62.24V7.41C8.96094 5.88 9.45094 4.48 10.2809 3.34L11.4909 2.05H11.5009C12.6709 1.08 14.1809 0.5 15.8109 0.5H71.6609C75.4409 0.5 78.5009 3.59 78.5009 7.41V62.96C78.5009 64.7 77.8609 66.31 76.7909 67.52Z" fill="#111111"/>
<path d="M76.7898 67.5195L70.6698 75.9895C69.2598 77.5795 67.2398 78.4995 65.1098 78.4995H8.04977C7.94977 78.4995 7.84977 78.4995 7.75977 78.4795L16.5098 69.8595H71.6598C73.6998 69.8695 75.5398 68.9595 76.7898 67.5195Z" fill="#111111"/>
<path d="M16.51 69.86L7.76 78.48C3.72 78.34 0.5 74.99 0.5 70.88L8.96 62V62.24C8.96 66.45 12.34 69.86 16.51 69.86Z" fill="#111111"/>
<path d="M11.4893 2.05078L10.2793 3.34078C10.6293 2.85078 11.0293 2.42078 11.4893 2.05078Z" fill="#111111"/>
<path d="M2.81 11.2898L10.28 3.33984C9.45 4.47984 8.96 5.87984 8.96 7.40984V61.9998L0.5 70.8798V17.1698C0.5 16.4998 0.55 15.8298 0.69 15.1698C0.75 14.8198 0.85 14.4898 0.97 14.1598C1.36 13.0898 2.03 12.1298 2.81 11.2898Z" fill="#111111"/>
<path d="M11.4909 2.05C11.0309 2.42 10.6309 2.85 10.2809 3.34C9.45094 4.48 8.96094 5.88 8.96094 7.41V62.24C8.96094 66.45 12.3409 69.86 16.5109 69.86H71.6609C73.7009 69.87 75.5409 68.96 76.7909 67.52C77.8609 66.31 78.5009 64.7 78.5009 62.96V7.41C78.5009 3.59 75.4409 0.5 71.6609 0.5H15.8109C14.1809 0.5 12.6709 1.08 11.5009 2.04" stroke="white"/>
<path d="M16.5102 69.8594L7.76023 78.4794L7.74023 78.4994" stroke="white"/>
<path d="M11.5 2.03906H11.49L10.28 3.33906L2.81 11.2891C2.03 12.1291 1.36 13.0891 0.97 14.1591C0.85 14.4891 0.75 14.8191 0.69 15.1691C0.55 15.8291 0.5 16.4991 0.5 17.1691V70.8791" stroke="white"/>
<path d="M0.5 70.8795C0.5 74.9895 3.72 78.3395 7.76 78.4795C7.85 78.4995 7.95 78.4995 8.05 78.4995H65.11C67.24 78.4995 69.26 77.5795 70.67 75.9895L76.79 67.5195L77.51 66.5195" stroke="white"/>
<path d="M0.5 70.88L8.96 62" stroke="white"/>
<path d="M40.3821 41.7652L37.207 30.082H38.6353L41.0622 39.5968H41.1749L43.6466 30.082H45.2341L47.7058 39.5968H47.8185L50.2436 30.082H51.6719L48.4986 41.7634H47.0471L44.486 32.4558H44.3947L41.8336 41.7634L40.3821 41.7652Z" fill="white"/>
</g>
<defs>
<clipPath id="clip0_251_871">
<rect width="79" height="79" fill="white"/>
</clipPath>
</defs>
</svg>
