<svg width="79" height="79" viewBox="0 0 79 79" fill="none" xmlns="http://www.w3.org/2000/svg">
<g clip-path="url(#clip0_251_901)">
<path d="M11.4909 2.05C11.0309 2.42 10.6309 2.85 10.2809 3.34C9.45094 4.48 8.96094 5.88 8.96094 7.41V62.24C8.96094 66.45 12.3409 69.86 16.5109 69.86H71.6609C73.7009 69.87 75.5409 68.96 76.7909 67.52C77.8609 66.31 78.5009 64.7 78.5009 62.96V7.41C78.5009 3.59 75.4409 0.5 71.6609 0.5H15.8109C14.1809 0.5 12.6709 1.08 11.5009 2.04" stroke="white"/>
<path d="M16.5102 69.8594L7.76023 78.4794L7.74023 78.4994" stroke="white"/>
<path d="M11.5 2.03906H11.49L10.28 3.33906L2.81 11.2891C2.03 12.1291 1.36 13.0891 0.97 14.1591C0.85 14.4891 0.75 14.8191 0.69 15.1691C0.55 15.8291 0.5 16.4991 0.5 17.1691V70.8791" stroke="white"/>
<path d="M0.5 70.8795C0.5 74.9895 3.72 78.3395 7.76 78.4795C7.85 78.4995 7.95 78.4995 8.05 78.4995H65.11C67.24 78.4995 69.26 77.5795 70.67 75.9895L76.79 67.5195L77.51 66.5195" stroke="white"/>
<path d="M0.5 70.88L8.96 62" stroke="white"/>
<path d="M40.894 42.7663H39.4082L43.7068 31.0801H45.1709L49.4695 42.7663H47.9837L44.4849 32.9287H44.3928L40.894 42.7663ZM41.4429 38.2006H47.4348V39.4565H41.4429V38.2006Z" fill="white"/>
</g>
<defs>
<clipPath id="clip0_251_901">
<rect width="79" height="79" fill="white"/>
</clipPath>
</defs>
</svg>
