<svg width="70" height="70" viewBox="0 0 70 70" fill="none" xmlns="http://www.w3.org/2000/svg">
<path d="M7.22144 0.5H62.7471C66.46 0.5 69.4685 3.50387 69.4685 7.20705V62.6221C69.4685 66.3251 66.4599 69.3291 62.7471 69.3291H7.22144C3.5086 69.3291 0.5 66.3251 0.5 62.6221V7.20705C0.5 3.50387 3.50859 0.5 7.22144 0.5Z" fill="#111111" stroke="white"/>
<path d="M39.0196 30.8608H40.4368V39.2156C40.4368 39.9597 40.2995 40.594 40.0251 41.1147C39.7669 41.6192 39.3626 42.0336 38.8643 42.302C38.366 42.5723 37.7775 42.7074 37.0987 42.7074C36.4578 42.7074 35.8872 42.5903 35.3889 42.3597C34.9105 42.1417 34.5026 41.7921 34.2119 41.3543C33.9176 40.893 33.7678 40.3543 33.7822 39.8084H35.1777C35.1777 40.1399 35.259 40.4282 35.4233 40.675C35.5966 40.9237 35.8331 41.1201 36.1093 41.2462C36.3982 41.3831 36.7286 41.4516 37.0987 41.4516C37.5067 41.4516 37.8533 41.3669 38.1385 41.1957C38.4292 41.0192 38.6585 40.7543 38.7902 40.4408C38.9437 40.1075 39.0196 39.6985 39.0196 39.2156V30.8608Z" fill="white"/>
</svg>
