<svg width="48" height="48" viewBox="0 0 48 48" fill="none" xmlns="http://www.w3.org/2000/svg">
<path fill-rule="evenodd" clip-rule="evenodd" d="M24 47C36.7025 47 47 36.7025 47 24C47 11.2975 36.7025 1 24 1C11.2975 1 1 11.2975 1 24C1 36.7025 11.2975 47 24 47ZM24 48C37.2548 48 48 37.2548 48 24C48 10.7452 37.2548 0 24 0C10.7452 0 0 10.7452 0 24C0 37.2548 10.7452 48 24 48Z" fill="black"/>
<path fill-rule="evenodd" clip-rule="evenodd" d="M24 38C31.732 38 38 31.732 38 24C38 16.268 31.732 10 24 10C16.268 10 10 16.268 10 24C10 31.732 16.268 38 24 38ZM24 39C32.2843 39 39 32.2843 39 24C39 15.7157 32.2843 9 24 9C15.7157 9 9 15.7157 9 24C9 32.2843 15.7157 39 24 39Z" fill="black"/>
<path fill-rule="evenodd" clip-rule="evenodd" d="M23.75 29.5C26.9256 29.5 29.5 26.9256 29.5 23.75C29.5 20.5744 26.9256 18 23.75 18C20.5744 18 18 20.5744 18 23.75C18 26.9256 20.5744 29.5 23.75 29.5ZM23.75 30.5C27.4779 30.5 30.5 27.4779 30.5 23.75C30.5 20.0221 27.4779 17 23.75 17C20.0221 17 17 20.0221 17 23.75C17 27.4779 20.0221 30.5 23.75 30.5Z" fill="black"/>
</svg>
