<svg width="140" height="28" viewBox="0 0 140 28" fill="none" xmlns="http://www.w3.org/2000/svg">
<path d="M125.671 6.31607H120.504L118.429 14.4418C117.634 17.4448 116.927 20.5803 116.221 23.8041H116.132C115.47 20.6244 114.719 17.6215 113.792 14.3535L111.584 6.31607H106.682L112.997 27.072H118.738L120.946 18.0189C121.608 15.2809 122.271 12.4104 122.801 9.58403H122.889C123.419 12.4545 123.993 15.2367 124.7 18.0189L127.04 27.072H132.825L139.096 6.31607H134.371L132.428 14.3535C131.589 17.6656 130.838 20.5803 130.131 23.8041H130.043C129.337 20.5803 128.63 17.4448 127.791 14.4418L125.671 6.31607Z" fill="#DB160D"/>
<path d="M96.3973 27.6457C102.977 27.6457 106.996 23.4503 106.996 16.6494C106.996 9.80439 102.757 5.78568 96.3973 5.78568C89.9939 5.78568 85.7544 9.80439 85.7544 16.6494C85.7544 23.4503 89.7289 27.6457 96.3973 27.6457ZM96.3973 10.1135C100.063 10.1135 102.271 12.6307 102.271 16.6053C102.271 20.624 100.151 23.2737 96.3532 23.2737C92.5994 23.2737 90.5238 20.624 90.5238 16.6053C90.5238 12.6307 92.6877 10.1135 96.3973 10.1135Z" fill="#EC6B9B"/>
<path d="M74.5925 23.3615C71.1479 23.3615 69.0281 20.8001 69.0281 16.8256V16.4723C69.0281 12.3653 71.1479 10.0689 74.5925 10.0689C78.2579 10.0689 79.9361 12.4536 79.9361 16.6048C79.9361 20.8443 78.1696 23.3615 74.5925 23.3615ZM69.0281 0H64.2587V27.0711H69.0281V21.1534H69.1164C70.0438 25.3929 72.3403 27.6452 76.4914 27.6452C81.7467 27.6452 84.6613 23.494 84.6613 16.6048C84.6613 9.89221 81.8792 5.78518 76.5356 5.78518C72.4727 5.78518 70.088 7.99326 69.1164 12.1886H69.0281V0Z" fill="#731FB8"/>
<path d="M47.3358 14.7946C47.3358 11.8358 49.1906 10.0694 52.2378 10.0694C55.4616 10.0694 56.5656 12.2774 56.5656 14.7946V27.0716H61.3351V13.5581C61.3351 9.05364 59.4361 5.78568 54.4459 5.78568C50.9571 5.78568 48.3074 7.5963 47.38 12.0125H47.3358V6.31561H42.5664V27.0716H47.3358V14.7946Z" fill="#1410D1"/>
<path d="M39.4506 3.53293V0H34.2837V3.53293H39.4506ZM39.274 27.0711V6.31512H34.5045V27.0711H39.274Z" fill="#00401D"/>
<path d="M20.9646 23.6272C18.2708 23.6272 17.3434 22.3023 17.3434 20.845C17.3434 19.4318 18.5799 18.5928 20.8763 18.5928H26.3523V19.2552C26.3523 21.7724 24.2326 23.6272 20.9646 23.6272ZM26.3523 27.0718H31.0776V14.1766C31.0776 8.8772 28.5163 5.87421 22.5103 5.87421C16.6368 5.87421 13.8988 8.74471 13.2805 13.3817L17.8291 13.9999C18.3149 10.997 19.7723 9.84875 22.3336 9.84875C25.2041 9.84875 26.3523 11.3944 26.3523 14.2208V15.0598H20.1697C14.9586 15.0598 12.6622 17.7979 12.6622 21.5958C12.6622 25.5703 15.3561 27.5134 19.1982 27.5134C22.7752 27.5134 25.2925 25.5703 26.264 21.8607H26.3523V27.0718Z" fill="#FFB800"/>
<path d="M4.76946 27.0712V16.5607C4.76946 12.9394 6.22679 11.6587 9.93637 11.6587H11.9678V6.31519H10.7754C7.63996 6.31519 5.78518 7.72836 4.85778 13.1161H4.76946V6.31519H0V27.0712H4.76946Z" fill="#DB160D"/>
</svg>
