<svg width="48" height="48" viewBox="0 0 48 48" fill="none" xmlns="http://www.w3.org/2000/svg">
<path fill-rule="evenodd" clip-rule="evenodd" d="M9.5 24C9.5 15.9919 15.9919 9.5 24 9.5C32.0081 9.5 38.5 15.9919 38.5 24C38.5 32.0081 32.0081 38.5 24 38.5C15.9919 38.5 9.5 32.0081 9.5 24ZM16.75 24C16.75 19.9959 19.9959 16.75 24 16.75C28.0041 16.75 31.25 19.9959 31.25 24C31.25 28.0041 28.0041 31.25 24 31.25C19.9959 31.25 16.75 28.0041 16.75 24Z" fill="#111111"/>
<path d="M17.75 24C17.75 20.5482 20.5482 17.75 24 17.75C27.4518 17.75 30.25 20.5482 30.25 24C30.25 27.4518 27.4518 30.25 24 30.25C20.5482 30.25 17.75 27.4518 17.75 24Z" fill="#111111"/>
<path fill-rule="evenodd" clip-rule="evenodd" d="M0 24C-2.31165e-06 10.7452 10.7452 2.31159e-06 24 0C37.2548 -2.31159e-06 48 10.7452 48 24C48 37.2548 37.2548 48 24 48C10.7452 48 3.47042e-06 37.2548 0 24ZM24 8.5C15.4396 8.5 8.5 15.4396 8.5 24C8.5 32.5604 15.4396 39.5 24 39.5C32.5604 39.5 39.5 32.5604 39.5 24C39.5 15.4396 32.5604 8.5 24 8.5ZM24 9.5C15.9919 9.5 9.5 15.9919 9.5 24C9.5 32.0081 15.9919 38.5 24 38.5C32.0081 38.5 38.5 32.0081 38.5 24C38.5 15.9919 32.0081 9.5 24 9.5ZM16.75 24C16.75 19.9959 19.9959 16.75 24 16.75C28.0041 16.75 31.25 19.9959 31.25 24C31.25 28.0041 28.0041 31.25 24 31.25C19.9959 31.25 16.75 28.0041 16.75 24ZM17.75 24C17.75 20.5482 20.5482 17.75 24 17.75C27.4518 17.75 30.25 20.5482 30.25 24C30.25 27.4518 27.4518 30.25 24 30.25C20.5482 30.25 17.75 27.4518 17.75 24Z" fill="#111111"/>
</svg>
