<?xml version="1.0" encoding="UTF-8"?>
<svg id="_Слой_1" data-name="Слой 1" xmlns="http://www.w3.org/2000/svg" version="1.1" viewBox="0 0 48 48">
  <defs>
    <style>
      .cls-1 {
        fill: none;
        stroke: #111;
      }
    </style>
  </defs>
  <path class="cls-1" d="M.5,24c0-13,10.5-23.5,23.5-23.5,13,0,23.5,10.5,23.5,23.5s-10.5,23.5-23.5,23.5S.5,37,.5,24ZM17.2,24c0-3.7,3-6.8,6.8-6.8s6.8,3,6.8,6.8-3,6.8-6.8,6.8-6.8-3-6.8-6.8ZM9,24c0-8.3,6.7-15,15-15s15,6.7,15,15-6.7,15-15,15-15-6.7-15-15Z"/>
</svg>