<svg width="80" height="80" viewBox="0 0 80 80" fill="none" xmlns="http://www.w3.org/2000/svg">
<path fill-rule="evenodd" clip-rule="evenodd" d="M40 24.5C23.1553 24.5 9.5 38.1553 9.5 55H8.5C8.5 37.603 22.603 23.5 40 23.5C57.397 23.5 71.5 37.603 71.5 55H70.5C70.5 38.1553 56.8447 24.5 40 24.5ZM40 35.5C29.2304 35.5 20.5 44.2305 20.5 55H19.5C19.5 43.6782 28.6782 34.5 40 34.5C51.3218 34.5 60.5 43.6782 60.5 55H59.5C59.5 44.2305 50.7696 35.5 40 35.5ZM40 45.5C34.7533 45.5 30.5 49.7533 30.5 55H29.5C29.5 49.201 34.201 44.5 40 44.5C45.799 44.5 50.5 49.201 50.5 55H49.5C49.5 49.7533 45.2467 45.5 40 45.5Z" fill="#111111"/>
</svg>
