<svg width="2395" height="476" viewBox="0 0 2395 476" fill="none" xmlns="http://www.w3.org/2000/svg">
<path d="M82.6801 466V285.12C82.6801 222.8 107.76 200.76 171.6 200.76H206.56V108.8H186.04C132.08 108.8 100.16 133.12 84.2001 225.84H82.6801V108.8H0.600098V466H82.6801Z" fill="white"/>
<path d="M361.398 406.72C315.038 406.72 299.078 383.92 299.078 358.84C299.078 334.52 320.358 320.08 359.878 320.08H454.118V331.48C454.118 374.8 417.638 406.72 361.398 406.72ZM454.118 466H535.438V244.08C535.438 152.88 491.358 101.2 387.998 101.2C286.918 101.2 239.798 150.6 229.158 230.4L307.438 241.04C315.798 189.36 340.878 169.6 384.958 169.6C434.358 169.6 454.118 196.2 454.118 244.84V259.28H347.718C258.038 259.28 218.518 306.4 218.518 371.76C218.518 440.16 264.878 473.6 330.998 473.6C392.558 473.6 435.878 440.16 452.598 376.32H454.118V466Z" fill="white"/>
<path d="M677.368 60.92V0.119995H588.448V60.92H677.368ZM674.328 466V108.8H592.248V466H674.328Z" fill="white"/>
<path d="M815.219 254.72C815.219 203.8 847.139 173.4 899.579 173.4C955.059 173.4 974.059 211.4 974.059 254.72V466H1056.14V233.44C1056.14 155.92 1023.46 99.68 937.579 99.68C877.539 99.68 831.939 130.84 815.979 206.84H815.219V108.8H733.139V466H815.219V254.72Z" fill="white"/>
<path d="M1284.3 402.16C1225.02 402.16 1188.54 358.08 1188.54 289.68V283.6C1188.54 212.92 1225.02 173.4 1284.3 173.4C1347.38 173.4 1376.26 214.44 1376.26 285.88C1376.26 358.84 1345.86 402.16 1284.3 402.16ZM1188.54 0.119995H1106.46V466H1188.54V364.16H1190.06C1206.02 437.12 1245.54 475.88 1316.98 475.88C1407.42 475.88 1457.58 404.44 1457.58 285.88C1457.58 170.36 1409.7 99.68 1317.74 99.68C1247.82 99.68 1206.78 137.68 1190.06 209.88H1188.54V0.119995Z" fill="white"/>
<path d="M1659.56 475.88C1772.8 475.88 1841.96 403.68 1841.96 286.64C1841.96 168.84 1769 99.68 1659.56 99.68C1549.36 99.68 1476.4 168.84 1476.4 286.64C1476.4 403.68 1544.8 475.88 1659.56 475.88ZM1659.56 174.16C1722.64 174.16 1760.64 217.48 1760.64 285.88C1760.64 355.04 1724.16 400.64 1658.8 400.64C1594.2 400.64 1558.48 355.04 1558.48 285.88C1558.48 217.48 1595.72 174.16 1659.56 174.16Z" fill="white"/>
<path d="M2163.35 108.8H2074.43L2038.71 248.64C2025.03 300.32 2012.87 354.28 2000.71 409.76H1999.19C1987.79 355.04 1974.87 303.36 1958.91 247.12L1920.91 108.8H1836.55L1945.23 466H2044.03L2082.03 310.2C2093.43 263.08 2104.83 213.68 2113.95 165.04H2115.47C2124.59 214.44 2134.47 262.32 2146.63 310.2L2186.91 466H2286.47L2394.39 108.8H2313.07L2279.63 247.12C2265.19 304.12 2252.27 354.28 2240.11 409.76H2238.59C2226.43 354.28 2214.27 300.32 2199.83 248.64L2163.35 108.8Z" fill="white"/>
</svg>
