<svg width="48" height="48" viewBox="0 0 48 48" fill="none" xmlns="http://www.w3.org/2000/svg">
<g clip-path="url(#clip0_338_965)">
<path d="M24 48C10.77 48 0 37.23 0 24C0 10.77 10.77 0 24 0C37.23 0 48 10.77 48 24C48 37.23 37.23 48 24 48ZM24 1C11.32 1 1 11.32 1 24C1 36.68 11.32 47 24 47C36.68 47 47 36.68 47 24C47 11.32 36.68 1 24 1ZM24 40.07C15.14 40.07 7.93 32.86 7.93 24H8.93C8.93 32.31 15.69 39.07 24 39.07C32.31 39.07 39.07 32.31 39.07 24H40.07C40.07 32.86 32.86 40.07 24 40.07ZM27.57 20.46C26.72 20.46 25.99 19.88 25.51 18.83C25.15 18.03 24.95 16.99 24.95 15.89C24.95 14.79 25.15 13.75 25.51 12.95C25.99 11.9 26.72 11.32 27.57 11.32C28.42 11.32 29.15 11.9 29.63 12.95C29.99 13.75 30.2 14.79 30.2 15.89C30.2 16.99 30 18.03 29.63 18.83C29.15 19.88 28.42 20.46 27.57 20.46ZM27.57 12.32C26.99 12.32 26.6 12.97 26.42 13.36C26.11 14.03 25.95 14.93 25.95 15.88C25.95 16.83 26.12 17.73 26.42 18.4C26.6 18.79 26.98 19.45 27.57 19.45C28.16 19.45 28.54 18.8 28.72 18.4C29.03 17.73 29.2 16.83 29.2 15.88C29.2 14.93 29.03 14.03 28.72 13.36C28.54 12.97 28.16 12.32 27.57 12.32ZM20.43 20.46C19.58 20.46 18.85 19.88 18.37 18.83C18.01 18.03 17.81 16.99 17.81 15.89C17.81 14.79 18.01 13.75 18.37 12.95C18.85 11.9 19.58 11.32 20.43 11.32C21.28 11.32 22.01 11.9 22.49 12.95C22.85 13.75 23.05 14.79 23.05 15.89C23.05 16.99 22.85 18.02 22.49 18.83C22.01 19.88 21.28 20.46 20.43 20.46ZM20.43 12.32C19.85 12.32 19.46 12.97 19.28 13.36C18.97 14.03 18.81 14.93 18.81 15.88C18.81 16.83 18.98 17.73 19.28 18.4C19.46 18.79 19.84 19.45 20.43 19.45C21.02 19.45 21.4 18.8 21.58 18.4C21.89 17.73 22.06 16.83 22.06 15.88C22.06 14.93 21.89 14.03 21.58 13.36C21.4 12.97 21.02 12.32 20.43 12.32Z" fill="#111111"/>
</g>
<defs>
<clipPath id="clip0_338_965">
<rect width="48" height="48" fill="white"/>
</clipPath>
</defs>
</svg>
