<?xml version="1.0" encoding="UTF-8"?>
<svg id="_Слой_1" data-name="Слой 1" xmlns="http://www.w3.org/2000/svg" version="1.1" viewBox="0 0 64 64">
  <defs>
    <style>
      .cls-1 {
        fill: #fff;
        fill-rule: evenodd;
        stroke-width: 0px;
      }
    </style>
  </defs>
  <path class="cls-1" d="M32,52.3c11.2,0,20.3-9.1,20.3-20.3h1c0,11.7-9.5,21.3-21.3,21.3s-21.3-9.5-21.3-21.3h1c0,11.2,9.1,20.3,20.3,20.3ZM28.3,24.3c.4-.8.6-1.9.6-3.2s-.2-2.4-.6-3.2c-.4-.8-.8-1.1-1.1-1.1s-.7.3-1.1,1.1c-.4.8-.6,1.9-.6,3.2s.2,2.4.6,3.2c.4.8.8,1.1,1.1,1.1s.7-.3,1.1-1.1ZM29.2,24.8c-.4.9-1.1,1.7-2,1.7s-1.6-.8-2-1.7c-.4-.9-.7-2.2-.7-3.6s.3-2.6.7-3.6c.4-.9,1.1-1.7,2-1.7s1.6.8,2,1.7c.4.9.7,2.2.7,3.6s-.3,2.6-.7,3.6ZM37.8,24.3c.4-.8.6-1.9.6-3.2s-.2-2.4-.6-3.2c-.4-.8-.8-1.1-1.1-1.1s-.7.3-1.1,1.1c-.4.8-.6,1.9-.6,3.2s.2,2.4.6,3.2c.4.8.8,1.1,1.1,1.1s.7-.3,1.1-1.1ZM38.7,24.8c-.4.9-1.1,1.7-2,1.7s-1.6-.8-2-1.7c-.4-.9-.7-2.2-.7-3.6s.3-2.6.7-3.6c.4-.9,1.1-1.7,2-1.7s1.6.8,2,1.7c.4.9.7,2.2.7,3.6s-.3,2.6-.7,3.6ZM32,63c17.1,0,31-13.9,31-31S49.1,1,32,1,1,14.9,1,32s13.9,31,31,31ZM32,64c17.7,0,32-14.3,32-32S49.7,0,32,0,0,14.3,0,32s14.3,32,32,32Z"/>
</svg>