<svg width="48" height="48" viewBox="0 0 48 48" fill="none" xmlns="http://www.w3.org/2000/svg">
<path fill-rule="evenodd" clip-rule="evenodd" d="M24 48C37.2548 48 48 37.2548 48 24C48 10.7452 37.2548 0 24 0C10.7452 0 0 10.7452 0 24C0 37.2548 10.7452 48 24 48ZM24 39.0676C32.3216 39.0676 39.0676 32.3216 39.0676 24H40.0676C40.0676 32.8739 32.8739 40.0676 24 40.0676C15.1261 40.0676 7.93243 32.8739 7.93243 24H8.93243C8.93243 32.3216 15.6784 39.0676 24 39.0676ZM27.5676 19.9595C28.332 19.9595 28.8607 19.3006 29.1694 18.6214C29.4986 17.8971 29.6892 16.9316 29.6892 15.8919C29.6892 14.8522 29.4986 13.8867 29.1694 13.1623C28.8607 12.4832 28.332 11.8243 27.5676 11.8243C26.8031 11.8243 26.2744 12.4832 25.9657 13.1623C25.6365 13.8867 25.4459 14.8522 25.4459 15.8919C25.4459 16.9316 25.6365 17.8971 25.9657 18.6214C26.2744 19.3006 26.8031 19.9595 27.5676 19.9595ZM22.0343 18.6214C21.7256 19.3006 21.1969 19.9595 20.4324 19.9595C19.668 19.9595 19.1393 19.3006 18.8306 18.6214C18.5014 17.8971 18.3108 16.9316 18.3108 15.8919C18.3108 14.8522 18.5014 13.8867 18.8306 13.1623C19.1393 12.4832 19.668 11.8243 20.4324 11.8243C21.1969 11.8243 21.7256 12.4832 22.0343 13.1623C22.3635 13.8867 22.5541 14.8522 22.5541 15.8919C22.5541 16.9316 22.3635 17.8971 22.0343 18.6214Z" fill="#111111"/>
</svg>
