<svg width="80" height="80" viewBox="0 0 80 80" fill="none" xmlns="http://www.w3.org/2000/svg">
<path fill-rule="evenodd" clip-rule="evenodd" d="M40 16.5C27.0213 16.5 16.5 27.0213 16.5 40C16.5 52.9787 27.0213 63.5 40 63.5C52.9787 63.5 63.5 52.9787 63.5 40C63.5 27.0213 52.9787 16.5 40 16.5ZM15.5 40C15.5 26.469 26.469 15.5 40 15.5C53.531 15.5 64.5 26.469 64.5 40C64.5 53.531 53.531 64.5 40 64.5C26.469 64.5 15.5 53.531 15.5 40ZM35.741 29.5761C35.4833 30.143 35.3108 30.9613 35.3108 31.8919C35.3108 32.8225 35.4833 33.6407 35.741 34.2076C36.0192 34.8197 36.3013 34.9595 36.4324 34.9595C36.5636 34.9595 36.8457 34.8197 37.1239 34.2076C37.3816 33.6407 37.5541 32.8225 37.5541 31.8919C37.5541 30.9613 37.3816 30.143 37.1239 29.5761C36.8457 28.9641 36.5636 28.8243 36.4324 28.8243C36.3013 28.8243 36.0192 28.9641 35.741 29.5761ZM34.8306 29.1623C35.1393 28.4832 35.668 27.8243 36.4324 27.8243C37.1969 27.8243 37.7256 28.4832 38.0343 29.1623C38.3635 29.8867 38.5541 30.8522 38.5541 31.8919C38.5541 32.9316 38.3635 33.8971 38.0343 34.6214C37.7256 35.3006 37.1969 35.9595 36.4324 35.9595C35.668 35.9595 35.1393 35.3006 34.8306 34.6214C34.5014 33.8971 34.3108 32.9316 34.3108 31.8919C34.3108 30.8522 34.5014 29.8867 34.8306 29.1623ZM42.8761 29.5761C42.6184 30.143 42.4459 30.9613 42.4459 31.8919C42.4459 32.8225 42.6184 33.6407 42.8761 34.2076C43.1543 34.8197 43.4364 34.9595 43.5676 34.9595C43.6987 34.9595 43.9808 34.8197 44.259 34.2076C44.5167 33.6407 44.6892 32.8225 44.6892 31.8919C44.6892 30.9613 44.5167 30.143 44.259 29.5761C43.9808 28.9641 43.6987 28.8243 43.5676 28.8243C43.4364 28.8243 43.1543 28.9641 42.8761 29.5761ZM41.9657 29.1623C42.2744 28.4832 42.8031 27.8243 43.5676 27.8243C44.332 27.8243 44.8607 28.4832 45.1694 29.1623C45.4986 29.8867 45.6892 30.8522 45.6892 31.8919C45.6892 32.9316 45.4986 33.8971 45.1694 34.6214C44.8607 35.3006 44.332 35.9595 43.5676 35.9595C42.8031 35.9595 42.2744 35.3006 41.9657 34.6214C41.6365 33.8971 41.4459 32.9316 41.4459 31.8919C41.4459 30.8522 41.6365 29.8867 41.9657 29.1623ZM24.9324 40C24.9324 48.3216 31.6784 55.0676 40 55.0676C48.3216 55.0676 55.0676 48.3216 55.0676 40H56.0676C56.0676 48.8739 48.8739 56.0676 40 56.0676C31.1261 56.0676 23.9324 48.8739 23.9324 40H24.9324Z" fill="#111111"/>
</svg>
