<svg width="80" height="80" viewBox="0 0 80 80" fill="none" xmlns="http://www.w3.org/2000/svg">
<path d="M8 37.5203L17.2635 40L17.57 38.8828L12.6331 37.5612C12.1424 37.4299 11.7163 37.227 11.3547 36.9526C10.9812 36.6749 10.6854 36.3483 10.4673 35.9726C10.2524 35.5851 10.124 35.1637 10.0819 34.7083C10.0278 34.2496 10.0825 33.7693 10.2459 33.2674L9.11492 32.9646C8.85198 33.7826 8.84126 34.5475 9.08278 35.2593C9.32753 35.9594 9.788 36.5522 10.4642 37.0378L10.4544 37.0732L8.28217 36.4918L8 37.5203Z" fill="#111111"/>
<path d="M12.6193 30.8808L13.2982 29.9374C12.6759 29.4703 12.3597 28.9478 12.3497 28.3697C12.3295 27.7845 12.535 27.1924 12.966 26.5934C13.1672 26.3139 13.3793 26.072 13.6022 25.8679C13.8222 25.6467 14.0575 25.4888 14.3081 25.3943C14.5659 25.2897 14.8368 25.2621 15.1209 25.3112C15.4021 25.3434 15.7044 25.4729 16.0278 25.7C16.2401 25.849 16.3903 25.9996 16.4786 26.1518C16.5741 26.294 16.6263 26.4433 16.6354 26.6C16.6343 26.7495 16.595 26.9097 16.5176 27.0808C16.4401 27.2518 16.3397 27.4443 16.2162 27.6581C15.9105 28.2099 15.6134 28.7602 15.3249 29.309C15.0335 29.8408 14.825 30.3632 14.6994 30.876C14.5809 31.3789 14.5921 31.8602 14.7331 32.3198C14.8638 32.7723 15.2021 33.1901 15.7479 33.5733C16.1421 33.8501 16.5324 34.0265 16.9189 34.1025C17.3025 34.1614 17.6729 34.1435 18.0302 34.0487C18.3845 33.9368 18.7135 33.7545 19.017 33.5018C19.3379 33.2462 19.6276 32.9386 19.8862 32.5792C20.1592 32.1999 20.3573 31.8505 20.4806 31.5313C20.611 31.2021 20.6859 30.8865 20.7054 30.5846C20.732 30.2727 20.7104 29.9645 20.6405 29.66C20.5677 29.3383 20.466 29.004 20.3354 28.6568L20.357 28.6269C20.5591 28.7688 20.7533 28.8901 20.9395 28.9908C21.1227 29.0744 21.3037 29.1188 21.4825 29.1241C21.6613 29.1294 21.8363 29.087 22.0076 28.9969C22.176 28.8897 22.3464 28.7163 22.5188 28.4767C22.6122 28.3469 22.6826 28.2385 22.73 28.1516C22.7845 28.0546 22.8412 27.9441 22.9 27.8201L22.0965 27.256C22.0723 27.3742 22.0207 27.4882 21.9416 27.598C21.6758 27.9674 21.3509 28.0173 20.9668 27.7477L16.8128 24.8311C16.2873 24.4621 15.8017 24.2489 15.3562 24.1915C14.9005 24.1271 14.4847 24.1658 14.1088 24.3076C13.7329 24.4494 13.3925 24.6688 13.0876 24.9656C12.7726 25.2554 12.493 25.57 12.2487 25.9094C11.9255 26.3587 11.6815 26.8035 11.5167 27.2439C11.352 27.6842 11.2752 28.1187 11.2863 28.5473C11.3045 28.9658 11.423 29.3721 11.6416 29.766C11.8602 30.1599 12.1861 30.5315 12.6193 30.8808ZM17.3923 26.658L18.6354 27.5309C19.0195 27.8005 19.3093 28.1167 19.5047 28.4793C19.7073 28.832 19.825 29.2076 19.8576 29.6062C19.8975 29.9949 19.8544 30.3929 19.7285 30.8004C19.6027 31.208 19.4104 31.5914 19.1518 31.9508C18.9937 32.1705 18.8039 32.3603 18.5823 32.5203C18.3607 32.6803 18.1267 32.794 17.8804 32.8615C17.6239 32.9219 17.3688 32.9381 17.115 32.9102C16.8584 32.8652 16.6087 32.7576 16.3662 32.5873C15.9821 32.3176 15.768 32.002 15.7239 31.6405C15.6769 31.2618 15.7235 30.8587 15.8638 30.4313C16.004 30.0038 16.1998 29.5626 16.451 29.1078C16.6992 28.636 16.9317 28.1755 17.1483 27.7265C17.2215 27.5825 17.2938 27.4079 17.3654 27.2027C17.437 26.9975 17.4388 26.8259 17.3707 26.688L17.3923 26.658Z" fill="#111111"/>
<path d="M16.7921 15.9355L17.9357 17.4078L18.8654 16.7032L17.7218 15.2309L16.7921 15.9355ZM19.0339 18.8218L24.8761 26.3435L25.8058 25.6389L22.8847 21.878L19.9636 18.1172L19.0339 18.8218Z" fill="#111111"/>
<path d="M25.5124 15.05L28.7826 23.9632L29.8843 23.5688L27.9767 18.3694C27.8278 17.9276 27.7498 17.4996 27.7429 17.0851C27.7433 16.655 27.8116 16.2658 27.9475 15.9175C28.091 15.5535 28.3042 15.2361 28.5874 14.9654C28.878 14.6789 29.2448 14.4564 29.6878 14.2978C30.1308 14.1392 30.5234 14.0769 30.8655 14.1107C31.2193 14.1404 31.528 14.2448 31.7916 14.4241C32.0552 14.6033 32.2833 14.8473 32.4757 15.1563C32.664 15.4537 32.8278 15.7924 32.9673 16.1724L35.008 21.7345L36.1097 21.3401L34.0056 15.6052C33.8112 15.0755 33.5834 14.6164 33.3222 14.2279C33.0609 13.8394 32.7492 13.5471 32.3871 13.351C32.0208 13.1434 31.5924 13.0362 31.1019 13.0294C30.623 13.0184 30.0688 13.1256 29.4393 13.351C28.7981 13.5806 28.2707 13.9583 27.8569 14.4843C27.439 14.9987 27.2243 15.5641 27.2131 16.1804L27.1781 16.193L26.614 14.6556L25.5124 15.05Z" fill="#111111"/>
<path d="M41.1577 8L39.4229 21.0059L40.4925 21.1451L40.7306 19.36L40.7675 19.3648C40.9505 20.0558 41.3197 20.6165 41.8751 21.0471C42.4428 21.4793 43.1139 21.7457 43.8884 21.8465C44.6138 21.9409 45.2578 21.895 45.8204 21.7088C46.397 21.5121 46.8935 21.2122 47.3099 20.8093C47.728 20.3942 48.0628 19.9004 48.3143 19.3277C48.5674 18.7429 48.7385 18.1166 48.8275 17.4487C48.9166 16.7808 48.9148 16.1381 48.822 15.5207C48.7309 14.8911 48.5371 14.3284 48.2405 13.8327C47.9455 13.3249 47.5454 12.9021 47.0401 12.5646C46.5471 12.2286 45.9379 12.0134 45.2126 11.919C44.8684 11.8742 44.5185 11.8719 44.1629 11.9122C43.8073 11.9524 43.4699 12.0443 43.1505 12.1881C42.8328 12.3197 42.5401 12.4978 42.2725 12.7224C42.0172 12.9487 41.8054 13.2238 41.6371 13.5478L41.6003 13.543L42.3194 8.1512L41.1577 8ZM47.6658 17.2975C47.601 17.7832 47.4747 18.261 47.287 18.7307C47.1132 19.19 46.8721 19.591 46.5637 19.9338C46.2676 20.2783 45.9067 20.5464 45.4809 20.738C45.0567 20.9176 44.568 20.9713 44.0148 20.8993C43.4001 20.8193 42.893 20.636 42.4935 20.3492C42.1079 20.052 41.805 19.6975 41.5847 19.2858C41.3767 18.8758 41.2429 18.426 41.1831 17.9364C41.1373 17.4362 41.1467 16.9433 41.2115 16.4575C41.2763 15.9718 41.3956 15.4993 41.5694 15.0401C41.7572 14.5703 42.0052 14.164 42.3136 13.8212C42.6343 13.4799 43.019 13.2211 43.4678 13.0448C43.9304 12.8579 44.4691 12.8045 45.0838 12.8845C45.637 12.9565 46.0941 13.1395 46.4552 13.4336C46.8178 13.7155 47.0969 14.0607 47.2926 14.4692C47.5005 14.8792 47.6275 15.3343 47.6733 15.8345C47.7331 16.3241 47.7306 16.8117 47.6658 17.2975Z" fill="#111111"/>
<path d="M59.2291 19.1782C59.6863 19.4943 60.02 19.867 60.2303 20.2965C60.4407 20.7259 60.5474 21.1735 60.5505 21.6391C60.5637 22.1117 60.484 22.5873 60.3114 23.066C60.156 23.5417 59.9326 23.9852 59.6411 24.3966C59.3496 24.8081 59.0007 25.1724 58.5944 25.4895C58.2053 25.8036 57.7838 26.0355 57.3297 26.185C56.8858 26.3416 56.4236 26.3959 55.9431 26.3477C55.4626 26.2996 54.9937 26.1176 54.5366 25.8015C54.0794 25.4855 53.7456 25.1127 53.5353 24.6833C53.325 24.2538 53.2132 23.8028 53.1999 23.3302C53.1968 22.8646 53.273 22.3939 53.4284 21.9183C53.601 21.4396 53.8331 20.9946 54.1246 20.5831C54.4161 20.1717 54.7564 19.8089 55.1454 19.4948C55.5517 19.1776 55.9768 18.9408 56.4207 18.7842C56.8748 18.6346 57.3421 18.5839 57.8226 18.632C58.3031 18.6801 58.7719 18.8622 59.2291 19.1782ZM59.7943 18.3804C59.1949 17.9661 58.5834 17.7078 57.9596 17.6055C57.346 17.5102 56.7502 17.5394 56.1722 17.693C55.5942 17.8466 55.0462 18.118 54.5282 18.5074C54.0172 18.8868 53.5627 19.3575 53.1645 19.9194C52.7664 20.4814 52.4708 21.0695 52.2779 21.6836C52.092 22.2877 52.0251 22.8842 52.0769 23.4733C52.1288 24.0623 52.3051 24.6252 52.6059 25.162C52.9239 25.6958 53.3826 26.1699 53.982 26.5843C54.5814 26.9986 55.1843 27.2585 55.7908 27.3638C56.4145 27.466 57.0154 27.4404 57.5934 27.2868C58.1714 27.1332 58.7159 26.8667 59.2268 26.4874C59.7449 26.098 60.203 25.6223 60.6011 25.0603C60.9993 24.4984 61.2913 23.9153 61.4771 23.3112C61.6701 22.6971 61.7406 22.0955 61.6887 21.5065C61.6368 20.9175 61.4555 20.351 61.1445 19.8072C60.8438 19.2704 60.3937 18.7948 59.7943 18.3804Z" fill="#111111"/>
<path d="M66.5621 26.3458L59.0245 32.9597L59.542 34.1198L67.8741 33.0228L67.8891 33.0564L61.4547 38.4071L61.9722 39.5672L72 38.5351L71.4975 37.4087L62.9842 38.4641L62.9692 38.4305L69.5473 33.0373L69.0148 31.8436L60.5465 32.9999L60.5315 32.9663L67.0646 27.4722L66.5621 26.3458Z" fill="#111111"/>
</svg>
