<svg width="64" height="69" viewBox="0 0 64 69" fill="none" xmlns="http://www.w3.org/2000/svg">
<path d="M58.5639 17.7783L51.0263 24.3923L51.5438 25.5524L59.8759 24.4553L59.8909 24.4889L53.4565 29.8397L53.974 30.9998L64.0018 29.9677L63.4993 28.8412L54.986 29.8967L54.971 29.8631L61.5491 24.4699L61.0166 23.2761L52.5484 24.4325L52.5333 24.3989L59.0664 18.9048L58.5639 17.7783Z" fill="#111111"/>
<path d="M51.2286 11.1783C51.6858 11.4943 52.0196 11.867 52.2299 12.2965C52.4402 12.726 52.5469 13.1735 52.55 13.6391C52.5633 14.1117 52.4836 14.5873 52.3109 15.066C52.1556 15.5417 51.9321 15.9852 51.6406 16.3967C51.3491 16.8081 51.0002 17.1724 50.5939 17.4895C50.2049 17.8036 49.7833 18.0355 49.3292 18.1851C48.8853 18.3416 48.4231 18.3959 47.9426 18.3478C47.4621 18.2996 46.9933 18.1176 46.5361 17.8015C46.0789 17.4855 45.7452 17.1127 45.5349 16.6833C45.3245 16.2538 45.2128 15.8028 45.1995 15.3302C45.1964 14.8646 45.2725 14.3939 45.4279 13.9183C45.6006 13.4396 45.8326 12.9946 46.1241 12.5831C46.4156 12.1717 46.7559 11.8089 47.1449 11.4948C47.5513 11.1776 47.9764 10.9408 48.4203 10.7842C48.8743 10.6346 49.3416 10.5839 49.8221 10.632C50.3026 10.6801 50.7715 10.8622 51.2286 11.1783ZM51.7939 10.3805C51.1945 9.96609 50.5829 9.70777 49.9592 9.60548C49.3456 9.51022 48.7498 9.53938 48.1718 9.69297C47.5938 9.84656 47.0457 10.1181 46.5277 10.5074C46.0168 10.8868 45.5622 11.3575 45.1641 11.9194C44.7659 12.4814 44.4704 13.0695 44.2774 13.6836C44.0916 14.2877 44.0246 14.8843 44.0765 15.4733C44.1284 16.0623 44.3047 16.6252 44.6054 17.162C44.9234 17.6958 45.3822 18.1699 45.9815 18.5843C46.5809 18.9986 47.1839 19.2585 47.7904 19.3638C48.4141 19.4661 49.015 19.4404 49.593 19.2868C50.171 19.1332 50.7154 18.8668 51.2264 18.4874C51.7444 18.098 52.2025 17.6223 52.6007 17.0603C52.9988 16.4984 53.2908 15.9153 53.4767 15.3112C53.6696 14.6971 53.7401 14.0955 53.6883 13.5065C53.6364 12.9175 53.455 12.3511 53.1441 11.8072C52.8433 11.2704 52.3933 10.7948 51.7939 10.3805Z" fill="#111111"/>
<path d="M33.1575 0L31.4228 13.0059L32.4923 13.1451L32.7304 11.36L32.7673 11.3648C32.9503 12.0558 33.3195 12.6165 33.8749 13.0471C34.4427 13.4793 35.1138 13.7457 35.8883 13.8465C36.6136 13.9409 37.2576 13.895 37.8203 13.7088C38.3968 13.5121 38.8933 13.2122 39.3098 12.8093C39.7279 12.3942 40.0626 11.9004 40.3141 11.3277C40.5672 10.7429 40.7383 10.1166 40.8274 9.4487C40.9165 8.78079 40.9147 8.13812 40.8219 7.52067C40.7308 6.89109 40.5369 6.32844 40.2403 5.83272C39.9454 5.32486 39.5452 4.90215 39.0399 4.56459C38.5469 4.22862 37.9378 4.01344 37.2124 3.91905C36.8682 3.87425 36.5183 3.87195 36.1628 3.91216C35.8072 3.95236 35.4697 4.04435 35.1504 4.1881C34.8327 4.31971 34.54 4.49783 34.2724 4.72245C34.0171 4.94867 33.8053 5.22379 33.637 5.54781L33.6001 5.54301L34.3193 0.151198L33.1575 0ZM39.6656 9.2975C39.6008 9.78325 39.4746 10.261 39.2869 10.7307C39.113 11.19 38.8719 11.591 38.5636 11.9338C38.2675 12.2783 37.9065 12.5464 37.4807 12.738C37.0566 12.9176 36.5679 12.9713 36.0146 12.8993C35.3999 12.8193 34.8928 12.636 34.4933 12.3492C34.1077 12.052 33.8048 11.6975 33.5846 11.2858C33.3766 10.8758 33.2427 10.426 33.183 9.93636C33.1371 9.43621 33.1466 8.94326 33.2114 8.45751C33.2762 7.97176 33.3955 7.49928 33.5693 7.04008C33.757 6.57033 34.0051 6.16402 34.3134 5.82117C34.6341 5.47991 35.0188 5.22112 35.4676 5.04479C35.9303 4.85791 36.469 4.80447 37.0837 4.88447C37.6369 4.95647 38.094 5.13951 38.455 5.43358C38.8176 5.71551 39.0968 6.0607 39.2924 6.46916C39.5004 6.87921 39.6273 7.33432 39.6732 7.83447C39.7329 8.32407 39.7304 8.81175 39.6656 9.2975Z" fill="#111111"/>
<path d="M17.5126 7.05017L20.7829 15.9633L21.8846 15.5689L19.9769 10.3696C19.828 9.92781 19.7501 9.49971 19.7431 9.0853C19.7436 8.6552 19.8118 8.26598 19.9478 7.91765C20.0912 7.55363 20.3045 7.23625 20.5877 6.96551C20.8782 6.67908 21.245 6.45657 21.688 6.29798C22.131 6.13938 22.5236 6.07701 22.8658 6.11086C23.2196 6.14053 23.5283 6.24498 23.7919 6.42421C24.0555 6.60343 24.2835 6.8475 24.476 7.15642C24.6643 7.45381 24.8281 7.79252 24.9675 8.17254L27.0083 13.7346L28.11 13.3402L26.0058 7.6054C25.8115 7.07568 25.5837 6.61656 25.3224 6.22804C25.0612 5.83952 24.7495 5.54723 24.3874 5.35115C24.0211 5.14356 23.5926 5.03637 23.1021 5.02957C22.6233 5.0186 22.0691 5.1258 21.4396 5.35118C20.7984 5.58072 20.2709 5.95847 19.8572 6.48441C19.4392 6.99883 19.2246 7.56423 19.2133 8.18059L19.1784 8.19311L18.6143 6.65576L17.5126 7.05017Z" fill="#111111"/>
<path d="M9.26458 7.50146L10.4081 8.97373L11.3378 8.26915L10.1943 6.79688L9.26458 7.50146ZM11.5064 10.3877L17.3486 17.9094L18.2783 17.2048L12.4361 9.68311L11.5064 10.3877Z" fill="#111111"/>
<path d="M4.92488 22.8806L5.60377 21.9372C4.98139 21.4701 4.6652 20.9476 4.6552 20.3695C4.63508 19.7843 4.84055 19.1922 5.27159 18.5932C5.47274 18.3137 5.68479 18.0718 5.90774 17.8677C6.12777 17.6465 6.36308 17.4886 6.61368 17.3941C6.87145 17.2895 7.14239 17.2619 7.42648 17.3111C7.70764 17.3432 8.00993 17.4728 8.33336 17.6998C8.54561 17.8489 8.69588 17.9994 8.78416 18.1516C8.87963 18.2938 8.93188 18.4432 8.9409 18.5998C8.9398 18.7493 8.90054 18.9095 8.8231 19.0806C8.74566 19.2516 8.64521 19.4441 8.52174 19.658C8.216 20.2097 7.91891 20.76 7.63046 21.3089C7.33909 21.8406 7.13058 22.363 7.00493 22.8758C6.88647 23.3787 6.89769 23.86 7.03859 24.3196C7.16938 24.7721 7.50767 25.1899 8.05345 25.5731C8.44763 25.8499 8.83796 26.0263 9.22446 26.1023C9.60803 26.1612 9.97845 26.1433 10.3357 26.0485C10.6901 25.9366 11.019 25.7543 11.3226 25.5016C11.6434 25.246 11.9332 24.9384 12.1918 24.579C12.4648 24.1997 12.6629 23.8504 12.7861 23.5311C12.9165 23.2019 12.9914 22.8863 13.0109 22.5844C13.0376 22.2725 13.0159 21.9643 12.946 21.6598C12.8732 21.3381 12.7715 21.0038 12.641 20.6566L12.6625 20.6267C12.8647 20.7686 13.0588 20.8899 13.245 20.9906C13.4283 21.0742 13.6093 21.1186 13.788 21.1239C13.9668 21.1292 14.1418 21.0868 14.3132 20.9967C14.4816 20.8895 14.652 20.7161 14.8244 20.4765C14.9178 20.3467 14.9882 20.2383 15.0355 20.1514C15.0901 20.0544 15.1467 19.9439 15.2056 19.8199L14.402 19.2558C14.3778 19.374 14.3262 19.488 14.2472 19.5979C13.9814 19.9672 13.6564 20.0171 13.2724 19.7475L9.11837 16.8309C8.5928 16.4619 8.10725 16.2487 7.66169 16.1913C7.20603 16.1269 6.79026 16.1656 6.41436 16.3074C6.03847 16.4492 5.69807 16.6686 5.39318 16.9654C5.07817 17.2552 4.79854 17.5698 4.55429 17.9093C4.23101 18.3585 3.987 18.8033 3.82226 19.2437C3.65753 19.684 3.5807 20.1185 3.5918 20.5471C3.61008 20.9656 3.72852 21.3719 3.9471 21.7658C4.16569 22.1597 4.49162 22.5313 4.92488 22.8806ZM9.69781 18.6578L10.941 19.5307C11.325 19.8003 11.6148 20.1165 11.8103 20.4791C12.0129 20.8318 12.1305 21.2074 12.1632 21.606C12.203 21.9947 12.16 22.3927 12.0341 22.8003C11.9082 23.2078 11.7159 23.5912 11.4573 23.9506C11.2993 24.1703 11.1094 24.3601 10.8878 24.5201C10.6662 24.6801 10.4322 24.7938 10.1859 24.8613C9.92945 24.9217 9.67435 24.9379 9.42058 24.91C9.16389 24.8651 8.91426 24.7574 8.67169 24.5871C8.28763 24.3174 8.07355 24.0018 8.02946 23.6403C7.98244 23.2616 8.02906 22.8586 8.16932 22.4311C8.30959 22.0036 8.50531 21.5624 8.7565 21.1076C9.00477 20.6358 9.23721 20.1753 9.45382 19.7263C9.527 19.5823 9.59939 19.4077 9.67098 19.2025C9.74257 18.9973 9.74433 18.8257 9.67626 18.6878L9.69781 18.6578Z" fill="#111111"/>
<path d="M0.000906944 28.5557L9.26444 31.0354L9.57093 29.9182L4.63398 28.5966C4.14327 28.4653 3.71716 28.2624 3.35564 27.9879C2.98216 27.7103 2.68635 27.3836 2.46822 27.008C2.25334 26.6205 2.12487 26.1991 2.08279 25.7436C2.02875 25.285 2.08343 24.8047 2.24684 24.3028L1.11582 24C0.852884 24.8179 0.84217 25.5829 1.08368 26.2947C1.32844 26.9948 1.7889 27.5876 2.46507 28.0731L2.45534 28.1086L0.283079 27.5271L0.000906944 28.5557Z" fill="#111111"/>
<path d="M5.43791 51.2217L12.9755 44.6077L12.458 43.4476L4.12591 44.5447L4.11091 44.5111L10.5453 39.1603L10.0278 38.0002L0 39.0323L0.502548 40.1588L9.01578 39.1033L9.03078 39.1369L2.4527 44.5301L2.98523 45.7239L11.4535 44.5675L11.4685 44.6011L4.93538 50.0952L5.43791 51.2217Z" fill="#111111"/>
<path d="M12.7732 57.8217C12.316 57.5057 11.9823 57.133 11.7719 56.7035C11.5616 56.274 11.4549 55.8265 11.4518 55.3609C11.4385 54.8883 11.5182 54.4127 11.6909 53.934C11.8462 53.4583 12.0697 53.0148 12.3612 52.6033C12.6527 52.1919 13.0016 51.8276 13.4079 51.5105C13.7969 51.1964 14.2185 50.9645 14.6726 50.8149C15.1165 50.6584 15.5787 50.6041 16.0592 50.6522C16.5397 50.7004 17.0085 50.8824 17.4657 51.1985C17.9229 51.5145 18.2566 51.8873 18.4669 52.3167C18.6773 52.7462 18.7891 53.1972 18.8023 53.6698C18.8054 54.1354 18.7293 54.6061 18.5739 55.0817C18.4013 55.5604 18.1692 56.0054 17.8777 56.4169C17.5862 56.8283 17.2459 57.1911 16.8569 57.5052C16.4506 57.8224 16.0255 58.0592 15.5815 58.2158C15.1275 58.3654 14.6602 58.4161 14.1797 58.368C13.6992 58.3199 13.2303 58.1378 12.7732 57.8217ZM12.2079 58.6195C12.8073 59.0339 13.4189 59.2922 14.0427 59.3945C14.6562 59.4898 15.252 59.4606 15.83 59.307C16.408 59.1534 16.9561 58.8819 17.4741 58.4926C17.985 58.1132 18.4396 57.6425 18.8377 57.0806C19.2359 56.5186 19.5314 55.9305 19.7244 55.3164C19.9102 54.7123 19.9772 54.1157 19.9253 53.5267C19.8735 52.9377 19.6971 52.3748 19.3964 51.838C19.0784 51.3042 18.6197 50.8301 18.0203 50.4157C17.4209 50.0014 16.8179 49.7415 16.2115 49.6362C15.5877 49.5339 14.9868 49.5596 14.4088 49.7132C13.8308 49.8668 13.2864 50.1332 12.7754 50.5126C12.2574 50.902 11.7993 51.3777 11.4011 51.9397C11.003 52.5016 10.711 53.0847 10.5252 53.6888C10.3322 54.3029 10.2617 54.9045 10.3135 55.4935C10.3654 56.0825 10.5468 56.6489 10.8577 57.1928C11.1585 57.7296 11.6085 58.2052 12.2079 58.6195Z" fill="#111111"/>
<path d="M30.8443 69L32.579 55.9941L31.5095 55.8549L31.2714 57.64L31.2345 57.6352C31.0515 56.9442 30.6823 56.3835 30.1269 55.9529C29.5591 55.5207 28.888 55.2543 28.1135 55.1535C27.3882 55.0591 26.7442 55.105 26.1815 55.2912C25.605 55.488 25.1085 55.7878 24.692 56.1907C24.274 56.6058 23.9392 57.0996 23.6877 57.6723C23.4346 58.2571 23.2635 58.8834 23.1744 59.5513C23.0853 60.2192 23.0872 60.8619 23.1799 61.4793C23.271 62.1089 23.4649 62.6716 23.7615 63.1673C24.0564 63.6751 24.4566 64.0979 24.9619 64.4354C25.4549 64.7714 26.064 64.9866 26.7894 65.081C27.1336 65.1258 27.4835 65.1281 27.8391 65.0878C28.1946 65.0476 28.5321 64.9557 28.8514 64.8119C29.1692 64.6803 29.4618 64.5022 29.7294 64.2775C29.9847 64.0513 30.1965 63.7762 30.3648 63.4522L30.4017 63.457L29.6825 68.8488L30.8443 69ZM24.3362 59.7025C24.401 59.2168 24.5272 58.739 24.715 58.2693C24.8888 57.8101 25.1299 57.409 25.4383 57.0662C25.7343 56.7217 26.0953 56.4536 26.5211 56.262C26.9453 56.0824 27.434 56.0287 27.9872 56.1007C28.6019 56.1807 29.109 56.364 29.5085 56.6508C29.8941 56.948 30.197 57.3025 30.4173 57.7142C30.6252 58.1242 30.7591 58.574 30.8188 59.0636C30.8647 59.5638 30.8552 60.0567 30.7904 60.5425C30.7256 61.0282 30.6063 61.5007 30.4325 61.9599C30.2448 62.4297 29.9967 62.836 29.6884 63.1788C29.3677 63.5201 28.983 63.7789 28.5342 63.9552C28.0715 64.1421 27.5328 64.1955 26.9181 64.1155C26.3649 64.0435 25.9078 63.8605 25.5468 63.5664C25.1842 63.2845 24.905 62.9393 24.7094 62.5308C24.5014 62.1208 24.3745 61.6657 24.3286 61.1655C24.2689 60.6759 24.2714 60.1883 24.3362 59.7025Z" fill="#111111"/>
<path d="M46.4892 61.9498L43.2189 53.0367L42.1172 53.4311L44.0249 58.6304C44.1738 59.0722 44.2517 59.5003 44.2587 59.9147C44.2582 60.3448 44.19 60.734 44.054 61.0823C43.9106 61.4464 43.6973 61.7638 43.4142 62.0345C43.1236 62.3209 42.7568 62.5434 42.3138 62.702C41.8708 62.8606 41.4782 62.923 41.136 62.8891C40.7822 62.8595 40.4735 62.755 40.2099 62.5758C39.9463 62.3966 39.7183 62.1525 39.5258 61.8436C39.3376 61.5462 39.1737 61.2075 39.0343 60.8275L36.9935 55.2654L35.8918 55.6598L37.996 61.3946C38.1903 61.9243 38.4181 62.3834 38.6794 62.772C38.9406 63.1605 39.2523 63.4528 39.6144 63.6488C39.9808 63.8564 40.4092 63.9636 40.8997 63.9704C41.3785 63.9814 41.9327 63.8742 42.5622 63.6488C43.2034 63.4193 43.7309 63.0415 44.1446 62.5156C44.5626 62.0012 44.7772 61.4358 44.7885 60.8194L44.8234 60.8069L45.3875 62.3442L46.4892 61.9498Z" fill="#111111"/>
<path d="M54.7372 61.4985L53.5937 60.0263L52.664 60.7309L53.8075 62.2031L54.7372 61.4985ZM52.4955 58.6123L46.6532 51.0906L45.7235 51.7952L51.5658 59.3169L52.4955 58.6123Z" fill="#111111"/>
<path d="M59.0769 46.1194L58.398 47.0628C59.0204 47.5299 59.3366 48.0524 59.3466 48.6305C59.3667 49.2157 59.1613 49.8078 58.7302 50.4068C58.5291 50.6863 58.317 50.9282 58.0941 51.1323C57.874 51.3535 57.6387 51.5114 57.3881 51.6059C57.1304 51.7105 56.8594 51.7381 56.5753 51.6889C56.2942 51.6568 55.9919 51.5272 55.6685 51.3002C55.4562 51.1511 55.3059 51.0006 55.2177 50.8484C55.1222 50.7062 55.0699 50.5568 55.0609 50.4002C55.062 50.2507 55.1013 50.0905 55.1787 49.9194C55.2561 49.7484 55.3566 49.5559 55.4801 49.342C55.7858 48.7903 56.0829 48.24 56.3714 47.6911C56.6627 47.1594 56.8712 46.637 56.9969 46.1242C57.1153 45.6213 57.1041 45.14 56.9632 44.6804C56.8324 44.2279 56.4941 43.8101 55.9484 43.4269C55.5542 43.1501 55.1639 42.9737 54.7774 42.8977C54.3938 42.8388 54.0234 42.8567 53.6661 42.9515C53.3118 43.0634 52.9828 43.2457 52.6792 43.4984C52.3584 43.754 52.0687 44.0616 51.81 44.421C51.537 44.8003 51.3389 45.1496 51.2157 45.4689C51.0853 45.7981 51.0104 46.1137 50.9909 46.4156C50.9643 46.7275 50.9859 47.0357 51.0558 47.3402C51.1286 47.6619 51.2303 47.9962 51.3609 48.3434L51.3393 48.3733C51.1372 48.2314 50.943 48.1101 50.7568 48.0094C50.5735 47.9258 50.3925 47.8814 50.2138 47.8761C50.035 47.8708 49.86 47.9132 49.6887 48.0033C49.5203 48.1105 49.3498 48.2839 49.1774 48.5235C49.084 48.6533 49.0137 48.7617 48.9663 48.8486C48.9117 48.9456 48.8551 49.0561 48.7963 49.1801L49.5998 49.7442C49.624 49.626 49.6756 49.512 49.7546 49.4021C50.0204 49.0328 50.3454 48.9829 50.7295 49.2525L54.8834 52.1691C55.409 52.5381 55.8946 52.7513 56.3401 52.8087C56.7958 52.8731 57.2116 52.8344 57.5875 52.6926C57.9633 52.5508 58.3037 52.3314 58.6086 52.0346C58.9236 51.7448 59.2033 51.4302 59.4475 51.0907C59.7708 50.6415 60.0148 50.1967 60.1796 49.7563C60.3443 49.316 60.4211 48.8815 60.41 48.4529C60.3917 48.0344 60.2733 47.6281 60.0547 47.2342C59.8361 46.8403 59.5102 46.4687 59.0769 46.1194ZM54.304 50.3422L53.0608 49.4693C52.6768 49.1997 52.387 48.8835 52.1916 48.5209C51.9889 48.1682 51.8713 47.7926 51.8386 47.394C51.7988 47.0053 51.8418 46.6073 51.9677 46.1997C52.0936 45.7922 52.2859 45.4088 52.5445 45.0494C52.7026 44.8297 52.8924 44.6399 53.114 44.4799C53.3356 44.3199 53.5696 44.2062 53.8159 44.1387C54.0724 44.0783 54.3275 44.0621 54.5812 44.09C54.8379 44.1349 55.0876 44.2426 55.3301 44.4129C55.7142 44.6826 55.9283 44.9982 55.9724 45.3597C56.0194 45.7384 55.9728 46.1414 55.8325 46.5689C55.6922 46.9964 55.4965 47.4376 55.2453 47.8924C54.997 48.3642 54.7646 48.8247 54.548 49.2737C54.4748 49.4177 54.4024 49.5923 54.3308 49.7975C54.2592 50.0027 54.2575 50.1743 54.3256 50.3122L54.304 50.3422Z" fill="#111111"/>
<path d="M64.0009 40.4443L54.7374 37.9646L54.4309 39.0818L59.3678 40.4034C59.8585 40.5347 60.2847 40.7376 60.6462 41.0121C61.0197 41.2897 61.3155 41.6164 61.5336 41.992C61.7485 42.3795 61.877 42.8009 61.919 43.2564C61.9731 43.715 61.9184 44.1953 61.755 44.6972L62.886 45C63.1489 44.1821 63.1596 43.4171 62.9181 42.7053C62.6734 42.0052 62.2129 41.4124 61.5367 40.9269L61.5465 40.8914L63.7187 41.4729L64.0009 40.4443Z" fill="#111111"/>
<path d="M4.00091 34H5.00091V35H4.00091V34Z" fill="#111111"/>
<path d="M59.0009 34H60.0009V35H59.0009V34Z" fill="#111111"/>
</svg>
