<svg width="64" height="64" viewBox="0 0 64 64" fill="none" xmlns="http://www.w3.org/2000/svg">
<path fill-rule="evenodd" clip-rule="evenodd" d="M32 23.5C27.3056 23.5 23.5 27.3056 23.5 32C23.5 36.6944 27.3056 40.5 32 40.5C36.6944 40.5 40.5 36.6944 40.5 32C40.5 27.3056 36.6944 23.5 32 23.5ZM22.5 32C22.5 26.7533 26.7533 22.5 32 22.5C37.2467 22.5 41.5 26.7533 41.5 32C41.5 37.2467 37.2467 41.5 32 41.5C26.7533 41.5 22.5 37.2467 22.5 32ZM32 12.5C21.2304 12.5 12.5 21.2305 12.5 32C12.5 42.7696 21.2304 51.5 32 51.5C42.7695 51.5 51.5 42.7696 51.5 32C51.5 21.2305 42.7696 12.5 32 12.5ZM11.5 32C11.5 20.6782 20.6782 11.5 32 11.5C43.3218 11.5 52.5 20.6782 52.5 32C52.5 43.3218 43.3218 52.5 32 52.5C20.6782 52.5 11.5 43.3218 11.5 32ZM32 1C14.8792 1 0.999997 14.8792 1 32C1 49.1208 14.8792 63 32 63C49.1208 63 63 49.1208 63 32C63 14.8792 49.1208 0.999997 32 1ZM0 32C-3.08219e-06 14.3269 14.3269 3.08212e-06 32 0C49.6731 -3.08212e-06 64 14.3269 64 32C64 49.6731 49.6731 64 32 64C14.3269 64 4.62723e-06 49.6731 0 32Z" fill="#111111"/>
</svg>
