<svg width="384" height="192" viewBox="0 0 384 192" fill="none" xmlns="http://www.w3.org/2000/svg">
<path d="M351.372 110.074L306.146 149.758L309.252 156.719L359.244 150.136L359.334 150.338L320.728 182.442L323.833 189.403L384 183.21L380.984 176.452L329.905 182.784L329.815 182.583L369.283 150.223L366.088 143.061L315.279 149.999L315.189 149.798L354.387 116.833L351.372 110.074Z" fill="#006400"/>
<path d="M307.374 67.0695C310.117 68.9658 312.12 71.2023 313.382 73.779C314.644 76.3557 315.284 79.0409 315.302 81.8345C315.382 84.6702 314.904 87.5241 313.868 90.3961C312.936 93.25 311.595 95.9113 309.846 98.38C308.097 100.849 306.004 103.034 303.566 104.937C301.232 106.822 298.702 108.213 295.978 109.11C293.314 110.05 290.541 110.375 287.658 110.087C284.775 109.798 281.962 108.705 279.219 106.809C276.476 104.913 274.474 102.676 273.212 100.1C271.95 97.523 271.279 94.8168 271.199 91.981C271.181 89.1874 271.638 86.3636 272.57 83.5097C273.606 80.6378 274.998 77.9674 276.747 75.4988C278.496 73.0301 280.538 70.8534 282.872 68.9686C285.31 67.0658 287.861 65.6447 290.524 64.7052C293.248 63.8078 296.052 63.5035 298.935 63.7922C301.818 64.0808 304.631 65.1733 307.374 67.0695ZM310.766 62.2827C307.169 59.7966 303.5 58.2466 299.757 57.6329C296.076 57.0613 292.501 57.2363 289.033 58.1578C285.565 59.0794 282.277 60.7083 279.169 63.0447C276.103 65.3208 273.376 68.1448 270.987 71.5167C268.598 74.8885 266.825 78.4168 265.667 82.1016C264.552 85.7262 264.15 89.3055 264.461 92.8397C264.772 96.3738 265.83 99.7513 267.635 102.972C269.543 106.175 272.295 109.019 275.892 111.506C279.488 113.992 283.106 115.551 286.744 116.183C290.487 116.796 294.092 116.642 297.56 115.721C301.028 114.799 304.295 113.201 307.361 110.924C310.469 108.588 313.218 105.734 315.606 102.362C317.995 98.9902 319.747 95.492 320.862 91.8674C322.02 88.1826 322.443 84.5732 322.132 81.039C321.821 77.5049 320.732 74.1063 318.867 70.8433C317.062 67.6224 314.362 64.7689 310.766 62.2827Z" fill="#FFD700"/>
<path d="M198.946 0L188.537 78.0356L194.954 78.8708L196.383 68.16L196.604 68.1888C197.702 72.3346 199.918 75.6992 203.25 78.2826C206.657 80.8756 210.683 82.4745 215.33 83.0793C219.682 83.6457 223.546 83.3702 226.922 82.2529C230.381 81.0723 233.361 79.2733 235.859 76.8557C238.368 74.3654 240.376 71.4023 241.885 67.9664C243.404 64.4577 244.43 60.6996 244.965 56.6922C245.499 52.6847 245.488 48.8287 244.932 45.124C244.385 41.3465 243.222 37.9706 241.443 34.9963C239.673 31.9491 237.272 29.4129 234.24 27.3875C231.282 25.3717 227.627 24.0807 223.275 23.5143C221.21 23.2455 219.11 23.2317 216.977 23.4729C214.844 23.7142 212.819 24.2661 210.903 25.1286C208.996 25.9183 207.24 26.987 205.635 28.3347C204.103 29.692 202.832 31.3427 201.822 33.2869L201.601 33.2581L205.916 0.907187L198.946 0ZM237.994 55.785C237.606 58.6995 236.848 61.566 235.722 64.3845C234.679 67.1397 233.232 69.5459 231.382 71.603C229.605 73.6698 227.44 75.2782 224.885 76.4282C222.34 77.5054 219.408 77.828 216.088 77.396C212.4 76.916 209.358 75.8158 206.96 74.0954C204.647 72.3118 202.829 70.185 201.508 67.7151C200.26 65.2547 199.457 62.5558 199.098 59.6181C198.823 56.6172 198.88 53.6596 199.269 50.7451C199.658 47.8306 200.373 44.9957 201.416 42.2405C202.543 39.422 204.031 36.9842 205.881 34.927C207.805 32.8795 210.114 31.3267 212.806 30.2687C215.582 29.1475 218.814 28.8268 222.503 29.3068C225.822 29.7388 228.565 30.837 230.731 32.6015C232.906 34.2931 234.581 36.3642 235.755 38.815C237.003 41.2753 237.764 44.0059 238.04 47.0068C238.398 49.9444 238.383 52.8705 237.994 55.785Z" fill="#FFA500"/>
<path d="M105.074 42.3L124.696 95.7789L131.306 93.4125L119.86 62.2165C118.967 59.5658 118.499 56.9973 118.457 54.5108C118.46 51.9302 118.869 49.5949 119.685 47.5049C120.546 45.3208 121.825 43.4165 123.524 41.7921C125.268 40.0735 127.469 38.7385 130.127 37.7869C132.785 36.8353 135.14 36.4611 137.193 36.6642C139.316 36.8422 141.168 37.4689 142.75 38.5443C144.331 39.6196 145.7 41.084 146.855 42.9375C147.984 44.7219 148.967 46.7542 149.804 49.0343L162.048 82.4068L168.658 80.0403L156.033 45.6314C154.867 42.4531 153.501 39.6984 151.933 37.3673C150.365 35.0362 148.495 33.2824 146.323 32.1059C144.125 30.8604 141.554 30.2172 138.611 30.1765C135.738 30.1106 132.413 30.7538 128.636 32.1061C124.789 33.4834 121.624 35.7498 119.142 38.9055C116.634 41.992 115.346 45.3844 115.279 49.0825L115.069 49.1577L111.684 39.9336L105.074 42.3Z" fill="#FF4500"/>
<path d="M52.752 47.6133L59.6132 56.4469L65.1914 52.2194L58.3301 43.3857L52.752 47.6133ZM66.2027 64.9307L101.256 110.061L106.834 105.833L98.0709 94.5509L89.3075 83.2683L71.7808 60.7032L66.2027 64.9307Z" fill="#EE82EE"/>
<path d="M27.7157 137.285L31.789 131.624C28.0548 128.822 26.1577 125.686 26.0976 122.218C25.9769 118.707 27.2097 115.154 29.796 111.56C31.0029 109.883 32.2752 108.432 33.6129 107.207C34.933 105.88 36.3449 104.933 37.8485 104.365C39.3952 103.738 41.0208 103.572 42.7253 103.867C44.4123 104.06 46.226 104.837 48.1666 106.2C49.4401 107.094 50.3417 107.998 50.8714 108.911C51.4442 109.764 51.7577 110.66 51.8118 111.6C51.8053 112.497 51.5697 113.458 51.105 114.485C50.6404 115.511 50.0377 116.666 49.2969 117.949C47.4625 121.259 45.6799 124.561 43.9492 127.854C42.201 131.045 40.9499 134.179 40.196 137.256C39.4852 140.273 39.5526 143.161 40.398 145.918C41.1827 148.633 43.2125 151.141 46.4871 153.44C48.8522 155.1 51.1942 156.159 53.5132 156.615C55.8146 156.968 58.0371 156.861 60.1807 156.292C62.3068 155.62 64.2805 154.527 66.1018 153.01C68.0269 151.477 69.7654 149.632 71.3171 147.475C72.955 145.199 74.1437 143.103 74.883 141.188C75.6654 139.212 76.115 137.319 76.2318 135.508C76.3918 133.636 76.262 131.787 75.8426 129.96C75.4056 128.03 74.7955 126.024 74.0122 123.941L74.1415 123.761C75.3544 124.613 76.5193 125.34 77.6365 125.944C78.7361 126.446 79.8221 126.713 80.8947 126.744C81.9672 126.776 83.0174 126.522 84.0454 125.981C85.0558 125.338 86.0782 124.298 87.1127 122.86C87.6731 122.081 88.0954 121.431 88.3796 120.909C88.7068 120.327 89.0469 119.665 89.3998 118.921L84.5787 115.536C84.4334 116.245 84.1236 116.929 83.6495 117.588C82.0546 119.804 80.105 120.104 77.8006 118.486L52.8767 100.986C49.7233 98.7723 46.8099 97.4932 44.1366 97.149C41.4026 96.7623 38.908 96.9944 36.6526 97.8454C34.3973 98.6963 32.3549 100.012 30.5255 101.794C28.6355 103.532 26.9577 105.42 25.4922 107.457C23.5525 110.152 22.0884 112.821 21.1 115.463C20.1116 118.105 19.6507 120.712 19.7172 123.283C19.8269 125.795 20.5375 128.232 21.8491 130.596C23.1606 132.959 25.1161 135.189 27.7157 137.285ZM56.3533 111.948L63.8123 117.185C66.1167 118.803 67.8552 120.7 69.0279 122.876C70.2438 124.992 70.9496 127.245 71.1455 129.637C71.3845 131.969 71.1263 134.357 70.3709 136.802C69.6156 139.248 68.462 141.548 66.9103 143.705C65.962 145.023 64.823 146.162 63.4933 147.121C62.1637 148.081 60.7598 148.764 59.2818 149.169C57.7432 149.531 56.2125 149.629 54.6899 149.461C53.1498 149.191 51.652 148.545 50.1966 147.524C47.8922 145.906 46.6077 144.012 46.3432 141.843C46.0611 139.571 46.3408 137.152 47.1824 134.587C48.024 132.022 49.1983 129.376 50.7055 126.647C52.1951 123.816 53.5897 121.053 54.8894 118.359C55.3284 117.495 55.7628 116.447 56.1923 115.216C56.6219 113.985 56.6324 112.955 56.224 112.128L56.3533 111.948Z" fill="#800080"/>
<path d="M0 177.122L55.5812 192L57.4202 185.297L27.7984 177.368C24.8542 176.58 22.2975 175.362 20.1284 173.716C17.8875 172.05 16.1127 170.09 14.8039 167.836C13.5146 165.511 12.7438 162.982 12.4913 160.25C12.1671 157.498 12.4952 154.616 13.4756 151.605L6.6895 149.788C5.11186 154.696 5.04758 159.285 6.49666 163.556C7.9652 167.757 10.728 171.313 14.785 174.227L14.7266 174.44L1.69303 170.951L0 177.122Z" fill="#0000CD"/>
</svg>
