<svg
    id="logornbw"
    width="64"
    height="32"
    viewBox="0 0 64 32"
    fill="none"
    xmlns="http://www.w3.org/2000/svg">
    <path
        d="M0 29.5203L9.26353 32L9.57003 30.8828L4.63307 29.5612C4.14236 29.4299 3.71625 29.227 3.35474 28.9526C2.98125 28.6749 2.68544 28.3483 2.46732 27.9726C2.25244 27.5851 2.12396 27.1637 2.08189 26.7083C2.02785 26.2496 2.08253 25.7693 2.24593 25.2674L1.11492 24.9646C0.851977 25.7826 0.841263 26.5475 1.08278 27.2593C1.32753 27.9594 1.788 28.5522 2.46416 29.0378L2.45443 29.0732L0.282172 28.4918L0 29.5203Z"
        fill="#111111" />
    <path
        d="M4.61934 22.8808L5.29823 21.9374C4.67585 21.4703 4.35966 20.9478 4.34966 20.3697C4.32955 19.7845 4.53501 19.1924 4.96605 18.5934C5.1672 18.3139 5.37925 18.072 5.6022 17.8679C5.82223 17.6467 6.05754 17.4888 6.30814 17.3943C6.56592 17.2897 6.83685 17.2621 7.12094 17.3112C7.4021 17.3434 7.7044 17.4729 8.02782 17.7C8.24007 17.849 8.39034 17.9996 8.47862 18.1518C8.5741 18.294 8.62634 18.4433 8.63536 18.6C8.63427 18.7495 8.595 18.9097 8.51756 19.0808C8.44012 19.2518 8.33967 19.4443 8.21621 19.6581C7.91047 20.2099 7.61337 20.7602 7.32492 21.309C7.03355 21.8408 6.82504 22.3632 6.69939 22.876C6.58093 23.3789 6.59215 23.8602 6.73305 24.3198C6.86385 24.7723 7.20213 25.1901 7.74791 25.5733C8.14209 25.8501 8.53242 26.0265 8.91892 26.1025C9.30249 26.1614 9.67291 26.1435 10.0302 26.0487C10.3845 25.9368 10.7135 25.7545 11.017 25.5018C11.3379 25.2462 11.6276 24.9386 11.8862 24.5792C12.1592 24.1999 12.3573 23.8505 12.4806 23.5313C12.611 23.2021 12.6859 22.8865 12.7054 22.5846C12.732 22.2727 12.7104 21.9645 12.6405 21.66C12.5677 21.3383 12.466 21.004 12.3354 20.6568L12.357 20.6269C12.5591 20.7688 12.7533 20.8901 12.9395 20.9908C13.1227 21.0744 13.3037 21.1188 13.4825 21.1241C13.6613 21.1294 13.8363 21.087 14.0076 20.9969C14.176 20.8897 14.3464 20.7163 14.5188 20.4767C14.6122 20.3469 14.6826 20.2385 14.73 20.1516C14.7845 20.0546 14.8412 19.9441 14.9 19.8201L14.0965 19.256C14.0723 19.3742 14.0207 19.4882 13.9416 19.598C13.6758 19.9674 13.3509 20.0173 12.9668 19.7477L8.81283 16.8311C8.28726 16.4621 7.80171 16.2489 7.35615 16.1915C6.90049 16.1271 6.48472 16.1658 6.10882 16.3076C5.73293 16.4494 5.39253 16.6688 5.08764 16.9656C4.77263 17.2554 4.493 17.57 4.24875 17.9094C3.92547 18.3587 3.68146 18.8035 3.51672 19.2439C3.35199 19.6842 3.27516 20.1187 3.28626 20.5473C3.30454 20.9658 3.42298 21.3721 3.64156 21.766C3.86015 22.1599 4.18608 22.5315 4.61934 22.8808ZM9.39227 18.658L10.6354 19.5309C11.0195 19.8005 11.3093 20.1167 11.5047 20.4793C11.7073 20.832 11.825 21.2076 11.8576 21.6062C11.8975 21.9949 11.8544 22.3929 11.7285 22.8004C11.6027 23.208 11.4104 23.5914 11.1518 23.9508C10.9937 24.1705 10.8039 24.3603 10.5823 24.5203C10.3607 24.6803 10.1267 24.794 9.88036 24.8615C9.62391 24.9219 9.36881 24.9381 9.11504 24.9102C8.85835 24.8652 8.60872 24.7576 8.36616 24.5873C7.98209 24.3176 7.76801 24.002 7.72392 23.6405C7.6769 23.2618 7.72352 22.8587 7.86379 22.4313C8.00405 22.0038 8.19977 21.5626 8.45097 21.1078C8.69923 20.636 8.93167 20.1755 9.14828 19.7265C9.22146 19.5825 9.29385 19.4079 9.36544 19.2027C9.43703 18.9975 9.43879 18.8259 9.37072 18.688L9.39227 18.658Z"
        fill="#111111" />
    <path
        d="M8.79214 7.93553L9.93567 9.40781L10.8654 8.70322L9.72184 7.23095L8.79214 7.93553ZM11.0339 10.8218L16.8761 18.3435L17.8058 17.6389L14.8847 13.878L11.9636 10.1172L11.0339 10.8218Z"
        fill="#111111" />
    <path
        d="M17.5124 7.05001L20.7826 15.9632L21.8843 15.5688L19.9767 10.3694C19.8278 9.92765 19.7498 9.49956 19.7429 9.08515C19.7433 8.65505 19.8116 8.26583 19.9475 7.9175C20.091 7.55347 20.3042 7.23609 20.5874 6.96536C20.878 6.67893 21.2448 6.45642 21.6878 6.29782C22.1308 6.13923 22.5234 6.07685 22.8655 6.1107C23.2193 6.14038 23.528 6.24483 23.7916 6.42405C24.0552 6.60328 24.2833 6.84735 24.4757 7.15626C24.664 7.45366 24.8278 7.79237 24.9673 8.17239L27.008 13.7345L28.1097 13.3401L26.0056 7.60525C25.8112 7.07552 25.5834 6.6164 25.3222 6.22789C25.0609 5.83937 24.7492 5.54707 24.3871 5.351C24.0208 5.14341 23.5924 5.03621 23.1019 5.02942C22.623 5.01845 22.0688 5.12565 21.4393 5.35102C20.7981 5.58057 20.2707 5.95831 19.8569 6.48425C19.439 6.99868 19.2243 7.56407 19.2131 8.18043L19.1781 8.19295L18.614 6.65561L17.5124 7.05001Z"
        fill="#111111" />
    <path
        d="M33.1577 0L31.4229 13.0059L32.4925 13.1451L32.7306 11.36L32.7675 11.3648C32.9505 12.0558 33.3197 12.6165 33.8751 13.0471C34.4428 13.4793 35.1139 13.7457 35.8884 13.8465C36.6138 13.9409 37.2578 13.895 37.8204 13.7088C38.397 13.5121 38.8935 13.2122 39.3099 12.8093C39.728 12.3942 40.0628 11.9004 40.3143 11.3277C40.5674 10.7429 40.7385 10.1166 40.8275 9.4487C40.9166 8.78079 40.9148 8.13812 40.822 7.52067C40.7309 6.89109 40.5371 6.32844 40.2405 5.83272C39.9455 5.32486 39.5454 4.90215 39.0401 4.56459C38.5471 4.22862 37.9379 4.01344 37.2126 3.91905C36.8684 3.87425 36.5185 3.87195 36.1629 3.91216C35.8073 3.95236 35.4699 4.04434 35.1505 4.1881C34.8328 4.31971 34.5401 4.49783 34.2725 4.72245C34.0172 4.94867 33.8054 5.22379 33.6371 5.54781L33.6003 5.54301L34.3194 0.151198L33.1577 0ZM39.6658 9.2975C39.601 9.78325 39.4747 10.261 39.287 10.7307C39.1132 11.19 38.8721 11.591 38.5637 11.9338C38.2676 12.2783 37.9067 12.5464 37.4809 12.738C37.0567 12.9176 36.568 12.9713 36.0148 12.8993C35.4001 12.8193 34.893 12.636 34.4935 12.3492C34.1079 12.052 33.805 11.6975 33.5847 11.2858C33.3767 10.8758 33.2429 10.426 33.1831 9.93636C33.1373 9.43621 33.1467 8.94326 33.2115 8.45751C33.2763 7.97176 33.3956 7.49928 33.5694 7.04008C33.7572 6.57033 34.0052 6.16402 34.3136 5.82117C34.6343 5.47991 35.019 5.22112 35.4678 5.04479C35.9304 4.85791 36.4691 4.80447 37.0838 4.88447C37.637 4.95647 38.0941 5.13951 38.4552 5.43358C38.8178 5.71551 39.0969 6.0607 39.2926 6.46916C39.5005 6.87921 39.6275 7.33432 39.6733 7.83447C39.7331 8.32407 39.7306 8.81175 39.6658 9.2975Z"
        fill="#111111" />
    <path
        d="M51.2291 11.1782C51.6863 11.4943 52.02 11.867 52.2303 12.2965C52.4407 12.7259 52.5474 13.1735 52.5505 13.6391C52.5637 14.1117 52.484 14.5873 52.3114 15.066C52.156 15.5417 51.9326 15.9852 51.6411 16.3966C51.3496 16.8081 51.0007 17.1724 50.5944 17.4895C50.2053 17.8036 49.7838 18.0355 49.3297 18.185C48.8858 18.3416 48.4236 18.3959 47.9431 18.3477C47.4626 18.2996 46.9937 18.1176 46.5366 17.8015C46.0794 17.4855 45.7456 17.1127 45.5353 16.6833C45.325 16.2538 45.2132 15.8028 45.1999 15.3302C45.1968 14.8646 45.273 14.3939 45.4284 13.9183C45.601 13.4396 45.8331 12.9946 46.1246 12.5831C46.4161 12.1717 46.7564 11.8089 47.1454 11.4948C47.5517 11.1776 47.9768 10.9408 48.4207 10.7842C48.8748 10.6346 49.3421 10.5839 49.8226 10.632C50.3031 10.6801 50.7719 10.8622 51.2291 11.1782ZM51.7943 10.3804C51.1949 9.96608 50.5834 9.70776 49.9596 9.60547C49.346 9.51021 48.7502 9.53937 48.1722 9.69296C47.5942 9.84655 47.0462 10.118 46.5282 10.5074C46.0172 10.8868 45.5627 11.3575 45.1645 11.9194C44.7664 12.4814 44.4708 13.0695 44.2779 13.6836C44.092 14.2877 44.0251 14.8842 44.0769 15.4733C44.1288 16.0623 44.3051 16.6252 44.6059 17.162C44.9239 17.6958 45.3826 18.1699 45.982 18.5843C46.5814 18.9986 47.1843 19.2585 47.7908 19.3638C48.4145 19.466 49.0154 19.4404 49.5934 19.2868C50.1714 19.1332 50.7159 18.8667 51.2268 18.4874C51.7449 18.098 52.203 17.6223 52.6011 17.0603C52.9993 16.4984 53.2913 15.9153 53.4771 15.3112C53.6701 14.6971 53.7406 14.0955 53.6887 13.5065C53.6368 12.9175 53.4555 12.351 53.1445 11.8072C52.8438 11.2704 52.3937 10.7948 51.7943 10.3804Z"
        fill="#111111" />
    <path
        d="M58.5621 18.3458L51.0245 24.9597L51.542 26.1198L59.8741 25.0228L59.8891 25.0564L53.4547 30.4071L53.9722 31.5672L64 30.5351L63.4975 29.4087L54.9842 30.4641L54.9692 30.4305L61.5473 25.0373L61.0148 23.8436L52.5465 24.9999L52.5315 24.9663L59.0646 19.4722L58.5621 18.3458Z"
        fill="#111111" />
</svg>
