<svg width="24" height="24" viewBox="0 0 24 24" fill="none" xmlns="http://www.w3.org/2000/svg">
<path d="M5.79939 3.62081L11.9986 3L18.1978 3.62081L22.9972 9.72367L11.9986 21.8557L1 9.72367L5.79939 3.62081Z" fill="#FDB300"/>
<path d="M5.45694 9.73047L12.0006 21.8625L1.00195 9.73047H5.45694Z" fill="#EA6C00"/>
<path d="M18.545 9.73047L12.0014 21.8625L23 9.73047H18.545Z" fill="#EA6C00"/>
<path d="M5.45703 9.73047H18.5443L12.0007 21.8625L5.45703 9.73047Z" fill="#FDAD00"/>
<path d="M11.9987 3L5.79946 3.6208L5.45508 9.72366L11.9987 3Z" fill="#FDD231"/>
<path d="M11.9954 3L18.1947 3.6208L18.5391 9.72366L11.9954 3Z" fill="#FDD231"/>
<path d="M22.998 9.71615L18.1986 3.61328L18.5431 9.71615H22.998Z" fill="#FDAD00"/>
<path d="M1 9.71615L5.79937 3.61328L5.45498 9.71615H1Z" fill="#FDAD00"/>
<path d="M11.9987 3L5.45508 9.72366H18.5423L11.9987 3Z" fill="#FEEEB7"/>
</svg>
