<svg width="148" height="226" viewBox="0 0 148 226" fill="none" xmlns="http://www.w3.org/2000/svg">
<g clip-path="url(#clip0_7897_17961)">
<path fill-rule="evenodd" clip-rule="evenodd" d="M105.915 221.667V194.047C102.124 202.517 97.1149 209.221 91.0345 214.267C81.1861 222.44 68.8432 226 55.1222 226C35.5273 226 21.547 219.474 12.5542 208.158C3.65833 196.964 0 181.525 0 164.333V59H42.0846V154.666C42.0846 163.793 44.1001 171.953 48.6693 177.772C53.1401 183.465 60.3833 187.333 71.8281 187.333C82.7847 187.333 91.2406 184.173 96.9407 178.709C102.624 173.261 105.915 165.191 105.915 154.666V59H148V221.667H105.915ZM105.915 185.717C97.2382 212.08 78.7164 223 55.1222 223C17.3671 223 3 198 3 164.333V62H39.0846V154.666C39.0846 173.666 47.4376 190.333 71.8281 190.333C94.8821 190.333 108.915 176.999 108.915 154.666V62H145V218.667H108.915V175.667H108.581C107.836 179.239 106.945 182.587 105.915 185.717Z" fill="#111111"/>
<path fill-rule="evenodd" clip-rule="evenodd" d="M0 0H148V42H0V0ZM3 3V39H145V3H3Z" fill="#111111"/>
</g>
<defs>
<clipPath id="clip0_7897_17961">
<rect width="148" height="226" fill="white"/>
</clipPath>
</defs>
</svg>
