<svg width="66" height="102" viewBox="0 0 66 102" fill="none" xmlns="http://www.w3.org/2000/svg">
<path d="M48.1739 98.1495V98.6495H48.6739H64.9021H65.4021V98.1495V27.7022V27.2022H64.9021H48.6739H48.1739V27.7022V69.371C48.1739 74.2853 46.6325 78.1536 43.8765 80.795C41.1177 83.439 37.0839 84.909 31.995 84.909C26.6355 84.909 23.1112 83.0852 20.912 80.2851C18.6964 77.464 17.7694 73.5806 17.7694 69.371V27.7022V27.2022H17.2694H1.04121H0.541214V27.7022V73.7178C0.541214 81.3469 2.16762 88.0706 6.00283 92.896C9.85418 97.7417 15.8726 100.598 24.4819 100.598C30.5044 100.598 35.848 99.0378 40.0902 95.5178C43.6798 92.5393 46.443 88.1891 48.1739 82.2852V98.1495ZM1 0.5H0.5V1V17.1916V17.6916H1H65H65.5V17.1916V1V0.5H65H1Z" stroke="#111111"/>
</svg>
