<svg width="24" height="24" viewBox="0 0 24 24" fill="none" xmlns="http://www.w3.org/2000/svg">
<path d="M5.54167 2H18.4583C20.4167 2 22 3.62393 22 5.63248V18.3675C22 20.3761 20.4167 22 18.4583 22H5.54167C3.58333 22 2 20.3761 2 18.3675V5.63248C2 3.62393 3.58333 2 5.54167 2Z" fill="#470137"/>
<path d="M12.5173 7.25711L10.0173 11.4879L12.684 15.9751C12.7007 16.0093 12.709 16.0434 12.7007 16.0776C12.6923 16.1118 12.659 16.0862 12.609 16.0947H10.7007C10.5673 16.0947 10.4757 16.0862 10.4173 16.0007C10.2423 15.6417 10.059 15.2913 9.884 14.9323C9.709 14.5819 9.51733 14.2229 9.31733 13.8554C9.11733 13.4879 8.91733 13.1204 8.71733 12.7443H8.70066C8.52566 13.1118 8.334 13.4793 8.14233 13.8469C7.95066 14.2144 7.759 14.5819 7.57566 14.9409C7.384 15.2998 7.19233 15.6674 7.00066 16.0178C6.96733 16.1033 6.90066 16.1118 6.809 16.1118H4.97567C4.94233 16.1118 4.91733 16.1289 4.91733 16.0862C4.909 16.052 4.91733 16.0178 4.934 15.9922L7.52566 11.6332L5.00067 7.24856C4.97567 7.21438 4.96733 7.18019 4.984 7.16309C5.00066 7.13745 5.034 7.12891 5.06733 7.12891H6.959C7.00066 7.12891 7.04233 7.13745 7.07566 7.146C7.109 7.16309 7.134 7.18874 7.159 7.22292C7.31733 7.59044 7.50066 7.95797 7.69233 8.32549C7.89233 8.69301 8.084 9.05198 8.29233 9.41096C8.49233 9.76993 8.67566 10.1289 8.85066 10.4964H8.86733C9.04233 10.1204 9.22566 9.75284 9.409 9.39386C9.59233 9.03489 9.784 8.67592 9.97566 8.31694C10.1673 7.95797 10.3507 7.59044 10.534 7.24002C10.5423 7.20583 10.559 7.17164 10.584 7.15455C10.6173 7.13745 10.6507 7.12891 10.6923 7.13745H12.4507C12.4923 7.12891 12.534 7.15455 12.5423 7.19728C12.5507 7.20583 12.534 7.24002 12.5173 7.25711Z" fill="#FF61F6"/>
<path d="M16.3661 16.273C15.7494 16.2816 15.1327 16.1534 14.5744 15.8884C14.0494 15.6406 13.6161 15.2303 13.3161 14.726C13.0077 14.2047 12.8577 13.5551 12.8577 12.7773C12.8494 12.1448 13.0077 11.5209 13.3161 10.9739C13.6327 10.4183 14.0911 9.95679 14.6411 9.6491C15.2244 9.31577 15.9244 9.15337 16.7494 9.15337C16.7911 9.15337 16.8494 9.15337 16.9244 9.16192C16.9994 9.17047 17.0827 9.17047 17.1827 9.17901V6.47816C17.1827 6.41833 17.2077 6.38414 17.2661 6.38414H18.9577C18.9994 6.37559 19.0327 6.40978 19.0411 6.44397C19.0411 6.45252 19.0411 6.46106 19.0411 6.46106V14.5978C19.0411 14.7517 19.0494 14.9226 19.0577 15.1106C19.0744 15.2901 19.0827 15.4611 19.0911 15.6064C19.0911 15.6662 19.0661 15.7175 19.0077 15.7431C18.5744 15.9312 18.1161 16.0679 17.6494 16.1534C17.2244 16.2303 16.7994 16.273 16.3661 16.273ZM17.1827 14.5636V10.8029C17.1077 10.7859 17.0327 10.7688 16.9577 10.7602C16.8661 10.7517 16.7744 10.7431 16.6827 10.7431C16.3577 10.7431 16.0327 10.8115 15.7411 10.9653C15.4577 11.1106 15.2161 11.3243 15.0327 11.5978C14.8494 11.8713 14.7577 12.2388 14.7577 12.6833C14.7494 12.9824 14.7994 13.2816 14.8994 13.5636C14.9827 13.7944 15.1077 13.9995 15.2744 14.1705C15.4327 14.3243 15.6244 14.444 15.8411 14.5123C16.0661 14.5893 16.2994 14.6235 16.5327 14.6235C16.6577 14.6235 16.7744 14.6149 16.8827 14.6064C16.9911 14.6149 17.0827 14.5978 17.1827 14.5636Z" fill="#FF61F6"/>
</svg>
